<?xml version="1.0" encoding="utf-8"?>
<!-- Generator: Adobe Illustrator 26.0.2, SVG Export Plug-In . SVG Version: 6.00 Build 0)  -->
<svg version="1.1" xmlns="http://www.w3.org/2000/svg" xmlns:xlink="http://www.w3.org/1999/xlink" x="0px" y="0px"
	 viewBox="0 0 320 1911" style="enable-background:new 0 0 320 1911;" xml:space="preserve">
<style type="text/css">
	.st0{fill:#190128;}
	.st1{fill:#98FF8F;}
	.st2{fill:#5B205C;}
	.st3{fill:#E3CF7F;}
	.st4{fill:#36114A;}
	.st5{opacity:0.5;fill:#FFFFFF;}
	.st6{fill:#1F032F;}
	.st7{fill:#260638;}
	.st8{opacity:0.25;fill:#FFF5EF;}
	.st9{fill:#FFF5EF;}
	.st10{fill:#521C57;}
	.st11{fill:#56577A;}
	.st12{opacity:0.5;fill:#9EEBCC;}
	.st13{opacity:0.75;fill:#FFF5EF;}
	.st14{opacity:0.75;fill:#C0E37F;}
	.st15{fill:#56888F;}
	.st16{fill:#C0E37F;}
	.st17{fill:#54A89C;}
	.st18{fill:#51C9A9;}
	.st19{opacity:0.5;fill:#FFF5EF;}
	.st20{fill:#9EEBCC;}
	.st21{fill:#8DD4BB;}
	.st22{fill:#B9D8C3;}
	.st23{opacity:0.75;fill:#FFFF8F;}
	.st24{fill:#CBDFCA;}
	.st25{opacity:0.15;fill:#FFF5EF;}
	.st26{opacity:0.25;fill:#C2A9C2;}
	.st27{fill:#C2A9C2;}
	.st28{fill:#81B8B3;}
	.st29{fill:#718FA1;}
	.st30{fill:#EAE3C7;}
	.st31{fill:#FAD8AC;}
	.st32{fill:#FFE6D5;}
	.st33{opacity:0.35;fill:#FFFFFF;}
	.st34{opacity:0.15;fill:#FFFFFF;}
	.st35{fill:#FFD1A1;}
	.st36{fill:#FFC483;}
	.st37{fill:#FFC98E;}
	.st38{fill:#FFD8BB;}
	.st39{opacity:0.5;}
	.st40{fill:#FFB776;}
	.st41{fill:#FFC183;}
	.st42{opacity:0.75;}
	.st43{fill:#EDA876;}
	.st44{fill:#E89D6B;}
	.st45{opacity:0.5;fill:#E89D6B;}
	.st46{fill:#FFFFFF;}
	.st47{fill:#E58373;}
	.st48{fill:#DD9268;}
	.st49{fill:#D68968;}
	.st50{fill:#FFCBA4;}
	.st51{fill:#C67466;}
	.st52{fill:#CAEACA;}
	.st53{fill:#E0F2DF;}
	.st54{fill:#BA6D61;}
	.st55{fill:#AC655F;}
	.st56{fill:#A45D5F;}
	.st57{fill:#FFB187;}
	.st58{fill:#8D4B61;}
	.st59{fill:#E08977;}
	.st60{fill:#9C555F;}
	.st61{fill:#56435D;}
	.st62{fill:#614B63;}
	.st63{fill:#7F3B59;}
	.st64{fill:#4D3E54;}
	.st65{fill:#32253F;}
	.st66{fill:#2B1B37;}
	.st67{fill:#5B2950;}
	.st68{fill:#4A1E45;}
	.st69{fill:#662E55;}
	.st70{fill:#382A44;}
	.st71{opacity:0.05;fill:#FFFFFF;}
	.st72{fill:#250C33;}
	.st73{fill:#300F39;}
	.st74{fill:#FF00CF;}
</style>
<g id="_x31_9__x28_Rest_of_Sky_x29_">
</g>
<g id="_x31_8__x28_Cloud_Layer_7_x29_">
</g>
<g id="_x31_7__x28_Cloud_Layer_6_x29_">
</g>
<g id="_x31_6__x28_Cloud_Layer_5_x29_">
</g>
<g id="_x31_5">
</g>
<g id="_x31_4">
</g>
<g id="_x31_3__x28_Cloud_Layer_4__x2B__Aircraft_x29_">
</g>
<g id="_x31_2_00000053541090334089295900000016410686384436047024_">
</g>
<g id="_x31_1__x28_Cloud_Layer_3__x2B__Higher_Birds_x29_">
</g>
<g id="_x31_0__x28__x2B__Nearby_Birds_x29_">
</g>
<g id="_x39___x28_Cloud_Layer_2_x29_">
</g>
<g id="_x38___x28__x2B__Nearby_Birds_x29_">
</g>
<g id="_x37___x28_Cloud_Layer_1_x29_">
</g>
<g id="_x36__00000068661700993368236970000009778035845983078308_">
</g>
<g id="_x35__00000078044523084173153740000012161118921027427980_">
</g>
<g id="_x34__00000014591708090884853300000012924613216120282812_">
</g>
<g id="_x33__00000150784116898789853780000012635840894519326891_">
	<g>
		<path class="st56" d="M311.03,1755c0.9-1.72,1.48-3.65,1.65-5.72c0.64-7.65-4.83-14.74-12.4-16.06
			c-5.44-0.95-10.64,1.14-13.96,4.98c-1.3,1.5-3.46,1.76-5.1,0.64c-1.66-1.13-3.6-1.9-5.73-2.16c-5.4-0.67-10.43,2.1-12.92,6.59
			c-0.7,1.26-2.19,1.93-3.53,1.37c-1.39-0.58-2.93-0.89-4.57-0.83c-4.84,0.15-9.1,3.65-10.2,8.37c-0.22,0.95-0.3,1.9-0.27,2.82
			H311.03z"/>
		<g>
			<path class="st61" d="M320,1727.91c-4.85,2.54-9.3,5.93-13.11,10.11l-7.96,8.76c-6.78,7.46-18.64,7.09-24.94-0.79l0,0
				c-2.57-3.21-6.25-5.34-10.31-5.96l-33.3-5.12c-7.31-1.12-14.47,2.79-17.48,9.55l-18.6,41.84c-5.44,12.25-14.07,22.82-24.97,30.61
				L158,1825v86h162V1727.91z"/>
		</g>
		<path class="st62" d="M181.28,1814.97L181.28,1814.97c12.35-13.17,21.9-28.72,28.07-45.69l3.5-9.62
			c2.08-5.73,5.09-11.09,8.9-15.85l7.24-9.06c-6.82-0.46-13.27,3.37-16.09,9.7l-18.6,41.84c-5.44,12.25-14.07,22.82-24.97,30.61
			L158,1825v4.73C166.73,1826.78,174.94,1821.73,181.28,1814.97z"/>
		<g>
			<g>
				<path class="st63" d="M306.89,1738.02l-1.38,1.52l14.49-2.83v-8.8C315.15,1730.45,310.7,1733.83,306.89,1738.02z"/>
			</g>
			<g>
				<path class="st64" d="M305.51,1739.53l-6.59,7.24c-0.05,0.06-0.11,0.11-0.17,0.16l21.24-5.06v-5.17L305.51,1739.53z"/>
			</g>
		</g>
		<g>
			<path class="st58" d="M247.44,1727.36l6.39,1.73c0.76,0.21,1.36-0.66,0.89-1.3l-8.38-11.33c-0.45-0.61,0.09-1.46,0.84-1.31
				l5.85,1.19c0.71,0.14,1.26-0.63,0.87-1.25l-7.75-12.57c-0.4-0.64,0.2-1.44,0.93-1.24l3.18,0.86c0.75,0.2,1.34-0.64,0.9-1.27
				l-10.36-15.12c-0.33-0.48-1.04-0.48-1.37,0l-10.36,15.12c-0.44,0.64,0.16,1.48,0.9,1.27l3.18-0.86c0.73-0.2,1.32,0.6,0.93,1.24
				l-7.75,12.57c-0.38,0.62,0.16,1.4,0.87,1.25l5.85-1.19c0.75-0.15,1.29,0.7,0.84,1.31l-8.38,11.33c-0.47,0.63,0.12,1.51,0.89,1.3
				l6.39-1.73c0.77-0.21,1.36,0.68,0.88,1.31l-9.26,12.02c-0.49,0.64,0.12,1.53,0.89,1.31l6.72-1.95c5.28-1.53,10.89-1.53,16.17,0
				l6.72,1.95c0.77,0.22,1.38-0.67,0.89-1.31l-9.26-12.02C246.08,1728.04,246.67,1727.15,247.44,1727.36z"/>
			<path class="st60" d="M236.95,1699.21c-1.12,0-1.89-1.13-1.47-2.17l4.65-11.63l-0.04-0.04c-0.25,0.01-0.49,0.13-0.65,0.36
				l-10.36,15.12c-0.44,0.64,0.16,1.48,0.9,1.27l3.18-0.86c0.73-0.2,1.32,0.6,0.93,1.24l-7.75,12.57c-0.38,0.62,0.16,1.4,0.87,1.25
				l5.85-1.19c0.75-0.15,1.29,0.7,0.84,1.31l-8.38,11.33c-0.47,0.63,0.12,1.51,0.89,1.3l6.39-1.73c0.77-0.21,1.36,0.68,0.88,1.31
				l-9.26,12.02c-0.49,0.64,0.12,1.53,0.89,1.31l10.49-3.04l2.52-11.58c0.21-0.99-0.54-1.92-1.55-1.92h-2.11
				c-1.24,0-2-1.36-1.35-2.41l4.64-7.6c0.65-1.06-0.11-2.41-1.35-2.41h-0.7c-1.21,0-1.97-1.29-1.39-2.35l5.01-9.1
				c0.58-1.06-0.18-2.35-1.39-2.35H236.95z"/>
		</g>
		<path class="st61" d="M221.75,1743.81l2.44-3.05l-11.28,3.7l-8.71,19.61l8.36-3.58l0.3-0.82
			C214.94,1753.92,217.94,1748.57,221.75,1743.81z"/>
		<path class="st64" d="M273.99,1745.99c-2.57-3.21-6.25-5.34-10.31-5.96l-21.68-3.34l-7.88,4.25l-9.92-0.19l-2.44,3.05
			c-3.81,4.76-6.82,10.12-8.9,15.85l-0.3,0.82l9.11-3.9l1.28-0.55c4.67-2,9.67-3.12,14.74-3.31l43.38-1.61
			C278.39,1750.11,275.93,1748.41,273.99,1745.99z"/>
		<path class="st63" d="M231.39,1745.38l45.24,3.23c-0.95-0.76-1.84-1.63-2.64-2.62l0,0c-2.57-3.21-6.25-5.34-10.31-5.96
			l-21.68-3.34l-10.53-1.62c-7.95-1.22-15.74,3.03-19,10.38l-4.65,10.46l13.55-8.13C224.38,1745.97,227.88,1745.13,231.39,1745.38z"
			/>
		<g>
			<path class="st58" d="M229,1734.75c-6.82-0.46-13.27,3.37-16.09,9.7l-5.09,11.46l9.53-5.72c1.32-2.22,2.79-4.36,4.4-6.38
				L229,1734.75z"/>
		</g>
		<path class="st63" d="M237.5,1749h-1c-0.28,0-0.5-0.22-0.5-0.5v-7c0-0.28,0.22-0.5,0.5-0.5h1c0.28,0,0.5,0.22,0.5,0.5v7
			C238,1748.78,237.78,1749,237.5,1749z"/>
		<path class="st62" d="M236,1760H235c-0.55,0-1-0.45-1-1V1758c0-0.55,0.45-1,1-1H236c0.55,0,1,0.45,1,1v0.99
			C237,1759.55,236.55,1760,236,1760z"/>
		<path class="st62" d="M227,1767H226c-0.55,0-1-0.45-1-1V1765c0-0.55,0.45-1,1-1H227c0.55,0,1,0.45,1,1v0.99
			C228,1766.55,227.55,1767,227,1767z"/>
		<path class="st64" d="M234,1770H233c-0.55,0-1-0.45-1-1V1768c0-0.55,0.45-1,1-1H234c0.55,0,1,0.45,1,1v0.99
			C235,1769.55,234.55,1770,234,1770z"/>
	</g>
</g>
<g id="_x32__00000155142127021454457340000001118262530934973368_">
</g>
<g id="_x31__00000176748215646741422430000014996548749285466274_">
</g>
<g id="Full">
</g>
<g id="Guide">
</g>
</svg>
