<?xml version="1.0" encoding="utf-8"?>
<!-- Generator: Adobe Illustrator 26.0.2, SVG Export Plug-In . SVG Version: 6.00 Build 0)  -->
<svg version="1.1" xmlns="http://www.w3.org/2000/svg" xmlns:xlink="http://www.w3.org/1999/xlink" x="0px" y="0px"
	 viewBox="0 0 320 1911" style="enable-background:new 0 0 320 1911;" xml:space="preserve">
<style type="text/css">
	.st0{fill:#190128;}
	.st1{fill:#98FF8F;}
	.st2{fill:#5B205C;}
	.st3{fill:#E3CF7F;}
	.st4{fill:#36114A;}
	.st5{opacity:0.5;fill:#FFFFFF;}
	.st6{fill:#1F032F;}
	.st7{fill:#260638;}
	.st8{opacity:0.25;fill:#FFF5EF;}
	.st9{fill:#FFF5EF;}
	.st10{fill:#521C57;}
	.st11{fill:#56577A;}
	.st12{opacity:0.5;fill:#9EEBCC;}
	.st13{opacity:0.75;fill:#FFF5EF;}
	.st14{opacity:0.75;fill:#C0E37F;}
	.st15{fill:#56888F;}
	.st16{fill:#C0E37F;}
	.st17{fill:#54A89C;}
	.st18{fill:#51C9A9;}
	.st19{opacity:0.5;fill:#FFF5EF;}
	.st20{fill:#9EEBCC;}
	.st21{fill:#8DD4BB;}
	.st22{fill:#B9D8C3;}
	.st23{opacity:0.75;fill:#FFFF8F;}
	.st24{fill:#CBDFCA;}
	.st25{opacity:0.15;fill:#FFF5EF;}
	.st26{opacity:0.25;fill:#C2A9C2;}
	.st27{fill:#C2A9C2;}
	.st28{fill:#81B8B3;}
	.st29{fill:#718FA1;}
	.st30{fill:#EAE3C7;}
	.st31{fill:#FAD8AC;}
	.st32{fill:#FFE6D5;}
	.st33{opacity:0.35;fill:#FFFFFF;}
	.st34{opacity:0.15;fill:#FFFFFF;}
	.st35{fill:#FFD1A1;}
	.st36{fill:#FFC483;}
	.st37{fill:#FFC98E;}
	.st38{fill:#FFD8BB;}
	.st39{opacity:0.5;}
	.st40{fill:#FFB776;}
	.st41{fill:#FFC183;}
	.st42{opacity:0.75;}
	.st43{fill:#EDA876;}
	.st44{fill:#E89D6B;}
	.st45{opacity:0.5;fill:#E89D6B;}
	.st46{fill:#FFFFFF;}
	.st47{fill:#E58373;}
	.st48{fill:#DD9268;}
	.st49{fill:#D68968;}
	.st50{fill:#FFCBA4;}
	.st51{fill:#C67466;}
	.st52{fill:#CAEACA;}
	.st53{fill:#E0F2DF;}
	.st54{fill:#BA6D61;}
	.st55{fill:#AC655F;}
	.st56{fill:#A45D5F;}
	.st57{fill:#FFB187;}
	.st58{fill:#8D4B61;}
	.st59{fill:#E08977;}
	.st60{fill:#9C555F;}
	.st61{fill:#56435D;}
	.st62{fill:#614B63;}
	.st63{fill:#7F3B59;}
	.st64{fill:#4D3E54;}
	.st65{fill:#32253F;}
	.st66{fill:#2B1B37;}
	.st67{fill:#5B2950;}
	.st68{fill:#4A1E45;}
	.st69{fill:#662E55;}
	.st70{fill:#382A44;}
	.st71{opacity:0.05;fill:#FFFFFF;}
	.st72{fill:#250C33;}
	.st73{fill:#300F39;}
	.st74{fill:#FF00CF;}
</style>
<g id="_x31_9__x28_Rest_of_Sky_x29_">
</g>
<g id="_x31_8__x28_Cloud_Layer_7_x29_">
</g>
<g id="_x31_7__x28_Cloud_Layer_6_x29_">
</g>
<g id="_x31_6__x28_Cloud_Layer_5_x29_">
</g>
<g id="_x31_5">
</g>
<g id="_x31_4">
</g>
<g id="_x31_3__x28_Cloud_Layer_4__x2B__Aircraft_x29_">
</g>
<g id="_x31_2_00000053541090334089295900000016410686384436047024_">
</g>
<g id="_x31_1__x28_Cloud_Layer_3__x2B__Higher_Birds_x29_">
</g>
<g id="_x31_0__x28__x2B__Nearby_Birds_x29_">
	<g>
		<path class="st34" d="M320,1911v-487.14c-2.26,0.79-4.77,0.98-7.19,0.42c-7.69-1.78-15.82,1.29-19.81,7.35
			c-0.35,0.53-0.7,1.05-1.09,1.55l-5.24,6.51c-2.18,2.7-5.35,4.4-8.81,4.76c-6.64,0.7-12.83,3.67-17.14,8.38l-3.28,3.59
			c-2.9,3.17-7.63,4.57-12.05,3.55c-8.02-1.85-16.53,1.56-20.31,8.16c-2.03,2.86-3.8,5.88-5.29,9.02c-2.58,5.44-8.61,8.31-14.4,6.64
			l-0.64-0.18c-5.19-1.5-8.76-6.24-8.76-11.64v-2.86c0-6.53-2.67-12.77-7.39-17.28c-6.03-5.75-14.87-7.45-22.75-4.75l-10.33,3.54
			c-2.86,0.98-6.01,0.63-8.58-0.94l-15.8-9.67c-6.63-4.06-14.95-4.18-21.7-0.31l-17.01,9.76c-3.06,1.75-6.54,2.64-10.06,2.56
			l-0.05,0c-5.04-0.11-9.74-2.47-11.98-6l-2.53-4c-3.32-5.24-9.16-9.36-16.11-11.53c-3.62-1.13-6.56-3.39-8.16-6.33l-2.6-4.8
			c-0.84-1.55-1.57-3.16-2.34-4.74c-2.93-5.96-10.52-10.22-18.91-10.4c-5.04-0.11-9.74-2.47-11.98-6l-2.53-4
			c-1.32-2.08-3.09-3.99-5.17-5.66V1911H320z"/>
		<g>
			<g>
				<g>
					<path class="st40" d="M188.82,1462.33h-0.63c-0.44,0-0.7-0.49-0.45-0.85l4.17-6.12c0.16-0.23,0.41-0.36,0.69-0.36h5.45
						c0.28,0,0.53,0.14,0.69,0.36l4.17,6.12c0.25,0.36-0.01,0.85-0.45,0.85h-6.97l-3.33-4.67L188.82,1462.33z"/>
					<polygon class="st32" points="188.82,1479 195.49,1479 195.49,1462.33 192.15,1457.33 188.82,1462.33 188.82,1466.33 					"/>
					<rect x="195.49" y="1462.33" class="st38" width="6.67" height="16.67"/>
				</g>
				<path class="st36" d="M191.76,1467.33h0.76c0.25,0,0.45-0.2,0.45-0.45v-2.05c0-0.46-0.37-0.83-0.83-0.83l0,0
					c-0.46,0-0.83,0.37-0.83,0.83v2.05C191.31,1467.13,191.51,1467.33,191.76,1467.33z"/>
			</g>
			<path class="st40" d="M63.69,1468.8c3.45-4.38,2.98-10.87-1.08-14.7c-2.92-2.76-6.9-3.57-10.46-2.58
				c-1.39,0.39-2.8-0.32-3.34-1.66c-0.55-1.35-1.42-2.59-2.61-3.61c-3.01-2.57-7.16-2.91-10.47-1.18c-0.93,0.49-2.1,0.29-2.69-0.58
				c-0.61-0.91-1.42-1.71-2.44-2.34c-3-1.85-6.98-1.44-9.54,0.98c-3.48,3.29-3.27,8.76,0.27,11.79c2.76,2.36,6.68,2.48,9.56,0.54
				c0.43,1.93,1.45,3.74,3.07,5.12c2.93,2.5,6.94,2.89,10.2,1.33c-0.04,3.13,1.26,6.26,3.83,8.45
				C52.7,1474.37,59.83,1473.71,63.69,1468.8z"/>
			<g>
				<g>
					<path class="st40" d="M114.18,1434.33h0.63c0.44,0,0.7-0.49,0.45-0.85l-4.17-6.12c-0.16-0.23-0.41-0.36-0.69-0.36h-5.45
						c-0.28,0-0.53,0.14-0.69,0.36l-4.17,6.12c-0.25,0.36,0.01,0.85,0.45,0.85h6.97l3.33-4.67L114.18,1434.33z"/>
					<polygon class="st38" points="114.18,1445 107.51,1445 107.51,1434.33 110.85,1429.33 114.18,1434.33 114.18,1438.33 					"/>
					
						<rect x="100.85" y="1434.33" transform="matrix(-1 4.501987e-11 -4.501987e-11 -1 208.3583 2879.3286)" class="st32" width="6.67" height="10.67"/>
				</g>
				<path class="st36" d="M111.24,1439.33h-0.76c-0.25,0-0.45-0.2-0.45-0.45v-2.05c0-0.46,0.37-0.83,0.83-0.83l0,0
					c0.46,0,0.83,0.37,0.83,0.83v2.05C111.69,1439.13,111.49,1439.33,111.24,1439.33z"/>
			</g>
			<path class="st40" d="M268.9,1486.59c0.2-5.71-4.12-10.79-9.79-11.5c-4.08-0.51-7.87,1.22-10.21,4.19
				c-0.91,1.16-2.51,1.43-3.77,0.65c-1.27-0.78-2.74-1.28-4.34-1.4c-4.04-0.3-7.68,1.93-9.37,5.36c-0.48,0.97-1.56,1.51-2.57,1.15
				c-1.05-0.38-2.21-0.55-3.43-0.46c-3.59,0.29-6.64,3.04-7.29,6.58c-0.89,4.82,2.6,9.22,7.36,9.58c3.71,0.28,7.02-2,8.23-5.34
				c1.52,1.33,3.46,2.21,5.63,2.37c3.93,0.3,7.48-1.81,9.23-5.08c1.86,2.61,4.83,4.41,8.28,4.67
				C263.19,1497.85,268.68,1492.98,268.9,1486.59z"/>
			<path class="st40" d="M197.47,1485c0.94-6.39,2.24-13.3,4.08-20.61c0.9-3.59,1.86-7.03,2.87-10.31c0.4-1.29,2.24-1.29,2.62,0.01
				c0.95,3.27,1.86,6.71,2.7,10.3c1.71,7.33,2.89,14.24,3.68,20.61H197.47z"/>
			<path class="st40" d="M145.36,1479.19c0.01-5.72,4.53-10.63,10.22-11.12c4.1-0.35,7.82,1.52,10.04,4.58
				c0.87,1.2,2.45,1.53,3.74,0.8c1.3-0.74,2.79-1.18,4.39-1.24c4.05-0.15,7.6,2.22,9.16,5.71c0.44,0.98,1.5,1.57,2.53,1.24
				c1.06-0.34,2.23-0.47,3.45-0.33c3.58,0.42,6.52,3.29,7.03,6.86c0.7,4.85-2.95,9.11-7.72,9.29c-3.72,0.14-6.94-2.26-8.02-5.65
				c-1.57,1.27-3.54,2.08-5.72,2.16c-3.94,0.14-7.41-2.1-9.03-5.43c-1.96,2.54-5,4.22-8.45,4.35
				C150.64,1490.66,145.34,1485.59,145.36,1479.19z"/>
			<g>
				<g>
					<path class="st40" d="M302.82,1456.33h0.63c0.44,0,0.7-0.49,0.45-0.85l-4.17-6.12c-0.16-0.23-0.41-0.36-0.69-0.36h-5.45
						c-0.28,0-0.53,0.14-0.69,0.36l-4.17,6.12c-0.25,0.36,0.01,0.85,0.45,0.85h6.97l3.33-4.67L302.82,1456.33z"/>
					<polygon class="st38" points="302.82,1479 296.15,1479 296.15,1456.33 299.48,1451.33 302.82,1456.33 302.82,1460.33 					"/>
					
						<rect x="289.48" y="1456.33" transform="matrix(-1 4.338251e-11 -4.338251e-11 -1 585.6359 2935.3286)" class="st32" width="6.67" height="22.67"/>
				</g>
				<path class="st36" d="M299.88,1461.33h-0.76c-0.25,0-0.45-0.2-0.45-0.45v-2.05c0-0.46,0.37-0.83,0.83-0.83l0,0
					c0.46,0,0.83,0.37,0.83,0.83v2.05C300.33,1461.13,300.13,1461.33,299.88,1461.33z"/>
			</g>
			<path class="st38" d="M309,1487h-8c-0.55,0-1-0.45-1-1v-18c0-0.55,0.45-1,1-1h8c0.55,0,1,0.45,1,1v18
				C310,1486.55,309.55,1487,309,1487z"/>
			<path class="st40" d="M305.37,1484.26c0.62-4.26,1.5-8.86,2.72-13.74c0.6-2.39,1.24-4.69,1.91-6.87
				c0.26-0.86,1.49-0.86,1.75,0.01c0.63,2.18,1.24,4.47,1.8,6.87c1.14,4.89,1.92,9.49,2.46,13.74H305.37z"/>
			<path class="st38" d="M85,1455h-8c-0.55,0-1-0.45-1-1v-12c0-0.55,0.45-1,1-1h8c0.55,0,1,0.45,1,1v12
				C86,1454.55,85.55,1455,85,1455z"/>
			<path class="st9" d="M77,1461h-8c-0.55,0-1-0.45-1-1v-18c0-0.55,0.45-1,1-1h8c0.55,0,1,0.45,1,1v18
				C78,1460.55,77.55,1461,77,1461z"/>
			<rect x="68" y="1444" class="st38" width="10" height="3"/>
			<rect x="68" y="1450" class="st38" width="10" height="3"/>
			<g>
				<g>
					<path class="st40" d="M279.82,1464.33h-0.63c-0.44,0-0.7-0.49-0.45-0.85l4.17-6.12c0.16-0.23,0.41-0.36,0.69-0.36h5.45
						c0.28,0,0.53,0.14,0.69,0.36l4.17,6.12c0.25,0.36-0.01,0.85-0.45,0.85h-6.97l-3.33-4.67L279.82,1464.33z"/>
					<polygon class="st32" points="279.82,1481 286.49,1481 286.49,1464.33 283.15,1459.33 279.82,1464.33 279.82,1468.33 					"/>
					<rect x="286.49" y="1464.33" class="st38" width="6.67" height="16.67"/>
				</g>
				<path class="st36" d="M282.76,1469.33h0.76c0.25,0,0.45-0.2,0.45-0.45v-2.05c0-0.46-0.37-0.83-0.83-0.83h0
					c-0.46,0-0.83,0.37-0.83,0.83v2.05C282.31,1469.13,282.51,1469.33,282.76,1469.33z"/>
			</g>
			<g>
				<polygon class="st32" points="127.24,1423 129.24,1423 131.24,1483 125.24,1483 				"/>
				<path class="st9" d="M128.66,1426.13l8.38,1.26c0.43,0.06,0.84-0.21,0.94-0.63l0,0c0.1-0.42-0.14-0.85-0.55-0.98l-8.05-2.63l0,0
					l-3.12-7.88c-0.16-0.4-0.6-0.62-1.02-0.49l0,0c-0.42,0.13-0.66,0.55-0.57,0.97l1.77,8.28l0,0l-5.28,6.62
					c-0.27,0.34-0.24,0.83,0.08,1.13l0,0c0.32,0.3,0.81,0.3,1.13,0.01L128.66,1426.13L128.66,1426.13z"/>
			</g>
			<path class="st40" d="M210,1488.26c0.62-4.26,1.5-8.86,2.72-13.74c0.6-2.39,1.24-4.69,1.91-6.87c0.26-0.86,1.49-0.86,1.75,0.01
				c0.63,2.18,1.24,4.47,1.8,6.87c1.14,4.89,1.92,9.49,2.46,13.74H210z"/>
			<path class="st40" d="M83.37,1451c0.62-4.26,1.5-8.86,2.72-13.74c0.6-2.39,1.24-4.69,1.91-6.87c0.26-0.86,1.49-0.86,1.75,0.01
				c0.63,2.18,1.24,4.47,1.8,6.87c1.14,4.89,1.92,9.49,2.46,13.74H83.37z"/>
			<path class="st40" d="M9.37,1447c0.62-4.26,1.5-8.86,2.72-13.74c0.6-2.39,1.24-4.69,1.91-6.87c0.26-0.86,1.49-0.86,1.75,0.01
				c0.63,2.18,1.24,4.47,1.8,6.87c1.14,4.89,1.92,9.49,2.46,13.74H9.37z"/>
			<path class="st40" d="M2,1439c0.62-4.26,1.5-8.86,2.72-13.74c0.6-2.39,1.24-4.69,1.91-6.87c0.26-0.86,1.49-0.86,1.75,0.01
				c0.63,2.18,1.24,4.47,1.8,6.87c1.14,4.89,1.92,9.49,2.46,13.74H2z"/>
			<path class="st41" d="M320,1483.94l-22.78-11.39c-5.8-2.9-12.63-2.9-18.44,0l-34.99,17.49c-7.19,3.6-15.82,2.68-22.09-2.34
				l-16.37-13.1c-7.73-6.19-18.77-6-26.29,0.45l0,0c-8.4,7.2-20.99,6.48-28.52-1.62l-20.33-21.9c-10.65-11.47-27.8-14.09-41.39-6.33
				l-22.42,12.81c-6.42,3.67-14.31,3.62-20.68-0.13L0,1431v480h320V1483.94z"/>
			<path class="st40" d="M320,1493l-22.78-11.39c-5.8-2.9-12.63-2.9-18.44,0l-34.99,17.49c-7.19,3.6-15.82,2.68-22.09-2.34
				l-16.37-13.1c-7.73-6.19-18.77-6-26.29,0.45l0,0c-8.4,7.2-20.99,6.48-28.52-1.62l-20.33-21.9c-10.65-11.47-27.8-14.09-41.39-6.33
				l-22.42,12.81c-6.42,3.67-14.31,3.62-20.68-0.13L0,1440.06V1911h320V1493z"/>
			<path class="st36" d="M87.33,1465h-0.66c-0.37,0-0.67-0.3-0.67-0.67v-0.66c0-0.37,0.3-0.67,0.67-0.67h0.66
				c0.37,0,0.67,0.3,0.67,0.67v0.66C88,1464.7,87.7,1465,87.33,1465z"/>
			<path class="st36" d="M292.58,1502h-0.66c-0.37,0-0.67-0.3-0.67-0.67v-0.66c0-0.37,0.3-0.67,0.67-0.67h0.66
				c0.37,0,0.67,0.3,0.67,0.67v0.66C293.25,1501.7,292.95,1502,292.58,1502z"/>
			<path class="st36" d="M11.33,1489h-0.66c-0.37,0-0.67-0.3-0.67-0.67v-0.66c0-0.37,0.3-0.67,0.67-0.67h0.66
				c0.37,0,0.67,0.3,0.67,0.67v0.66C12,1488.7,11.7,1489,11.33,1489z"/>
			<path class="st36" d="M93.33,1471h-0.66c-0.37,0-0.67-0.3-0.67-0.67v-0.66c0-0.37,0.3-0.67,0.67-0.67h0.66
				c0.37,0,0.67,0.3,0.67,0.67v0.66C94,1470.7,93.7,1471,93.33,1471z"/>
			<path class="st36" d="M83.75,1474h-0.5c-0.69,0-1.25-0.56-1.25-1.25v-0.5c0-0.69,0.56-1.25,1.25-1.25h0.5
				c0.69,0,1.25,0.56,1.25,1.25v0.5C85,1473.44,84.44,1474,83.75,1474z"/>
			<path class="st36" d="M286,1497h-0.5c-0.69,0-1.25-0.56-1.25-1.25v-0.5c0-0.69,0.56-1.25,1.25-1.25h0.5
				c0.69,0,1.25,0.56,1.25,1.25v0.5C287.25,1496.44,286.69,1497,286,1497z"/>
			<path class="st36" d="M174.75,1529h-0.5c-0.69,0-1.25-0.56-1.25-1.25v-0.5c0-0.69,0.56-1.25,1.25-1.25h0.5
				c0.69,0,1.25,0.56,1.25,1.25v0.5C176,1528.44,175.44,1529,174.75,1529z"/>
		</g>
		<g class="st42">
			<g>
				<g>
					<path class="st43" d="M261.84,1417.22l-2.22,2.22c-0.32,0.32-0.85,0.09-0.85-0.35v-0.79l-1.08-1.08
						c-0.34-0.34-0.1-0.92,0.38-0.92h3.39C261.94,1416.29,262.18,1416.88,261.84,1417.22z"/>
				</g>
				<g>
					<path class="st43" d="M248.31,1409.92l-2.22,2.22c-0.32,0.32-0.85,0.09-0.85-0.35V1411l-1.08-1.08
						c-0.34-0.34-0.1-0.92,0.38-0.92h3.39C248.41,1409,248.65,1409.58,248.31,1409.92z"/>
				</g>
				<g>
					<path class="st43" d="M236.31,1403.92l-2.22,2.22c-0.32,0.32-0.85,0.09-0.85-0.35V1405l-1.08-1.08
						c-0.34-0.34-0.1-0.92,0.38-0.92h3.39C236.41,1403,236.65,1403.58,236.31,1403.92z"/>
				</g>
				<g>
					<path class="st43" d="M249.46,1425h-3.39c-0.48,0-0.72,0.58-0.38,0.92l1.08,1.08v0.79c0,0.45,0.54,0.67,0.85,0.35l2.22-2.22
						C250.18,1425.58,249.94,1425,249.46,1425z"/>
				</g>
				<g>
					<path class="st43" d="M235.93,1435h-3.39c-0.48,0-0.72,0.58-0.38,0.92l1.08,1.08v0.79c0,0.45,0.54,0.67,0.85,0.35l2.22-2.22
						C236.65,1435.58,236.41,1435,235.93,1435z"/>
				</g>
			</g>
		</g>
	</g>
</g>
<g id="_x39___x28_Cloud_Layer_2_x29_">
</g>
<g id="_x38___x28__x2B__Nearby_Birds_x29_">
</g>
<g id="_x37___x28_Cloud_Layer_1_x29_">
</g>
<g id="_x36__00000068661700993368236970000009778035845983078308_">
</g>
<g id="_x35__00000078044523084173153740000012161118921027427980_">
</g>
<g id="_x34__00000014591708090884853300000012924613216120282812_">
</g>
<g id="_x33__00000150784116898789853780000012635840894519326891_">
</g>
<g id="_x32__00000155142127021454457340000001118262530934973368_">
</g>
<g id="_x31__00000176748215646741422430000014996548749285466274_">
</g>
<g id="Full">
</g>
<g id="Guide">
</g>
</svg>
