<?xml version="1.0" encoding="utf-8"?>
<!-- Generator: Adobe Illustrator 26.0.2, SVG Export Plug-In . SVG Version: 6.00 Build 0)  -->
<svg version="1.1" xmlns="http://www.w3.org/2000/svg" xmlns:xlink="http://www.w3.org/1999/xlink" x="0px" y="0px"
	 viewBox="0 0 320 1911" style="enable-background:new 0 0 320 1911;" xml:space="preserve">
<style type="text/css">
	.st0{fill:#190128;}
	.st1{fill:#98FF8F;}
	.st2{fill:#5B205C;}
	.st3{fill:#E3CF7F;}
	.st4{fill:#36114A;}
	.st5{opacity:0.5;fill:#FFFFFF;}
	.st6{fill:#1F032F;}
	.st7{fill:#260638;}
	.st8{opacity:0.25;fill:#FFF5EF;}
	.st9{fill:#FFF5EF;}
	.st10{fill:#521C57;}
	.st11{fill:#56577A;}
	.st12{opacity:0.5;fill:#9EEBCC;}
	.st13{opacity:0.75;fill:#FFF5EF;}
	.st14{opacity:0.75;fill:#C0E37F;}
	.st15{fill:#56888F;}
	.st16{fill:#C0E37F;}
	.st17{fill:#54A89C;}
	.st18{fill:#51C9A9;}
	.st19{opacity:0.5;fill:#FFF5EF;}
	.st20{fill:#9EEBCC;}
	.st21{fill:#8DD4BB;}
	.st22{fill:#B9D8C3;}
	.st23{opacity:0.75;fill:#FFFF8F;}
	.st24{fill:#CBDFCA;}
	.st25{opacity:0.15;fill:#FFF5EF;}
	.st26{opacity:0.25;fill:#C2A9C2;}
	.st27{fill:#C2A9C2;}
	.st28{fill:#81B8B3;}
	.st29{fill:#718FA1;}
	.st30{fill:#EAE3C7;}
	.st31{fill:#FAD8AC;}
	.st32{fill:#FFE6D5;}
	.st33{opacity:0.35;fill:#FFFFFF;}
	.st34{opacity:0.15;fill:#FFFFFF;}
	.st35{fill:#FFD1A1;}
	.st36{fill:#FFC483;}
	.st37{fill:#FFC98E;}
	.st38{fill:#FFD8BB;}
	.st39{opacity:0.5;}
	.st40{fill:#FFB776;}
	.st41{fill:#FFC183;}
	.st42{opacity:0.75;}
	.st43{fill:#EDA876;}
	.st44{fill:#E89D6B;}
	.st45{opacity:0.5;fill:#E89D6B;}
	.st46{fill:#FFFFFF;}
	.st47{fill:#E58373;}
	.st48{fill:#DD9268;}
	.st49{fill:#D68968;}
	.st50{fill:#FFCBA4;}
	.st51{fill:#C67466;}
	.st52{fill:#CAEACA;}
	.st53{fill:#E0F2DF;}
	.st54{fill:#BA6D61;}
	.st55{fill:#AC655F;}
	.st56{fill:#A45D5F;}
	.st57{fill:#FFB187;}
	.st58{fill:#8D4B61;}
	.st59{fill:#E08977;}
	.st60{fill:#9C555F;}
	.st61{fill:#56435D;}
	.st62{fill:#614B63;}
	.st63{fill:#7F3B59;}
	.st64{fill:#4D3E54;}
	.st65{fill:#32253F;}
	.st66{fill:#2B1B37;}
	.st67{fill:#5B2950;}
	.st68{fill:#4A1E45;}
	.st69{fill:#662E55;}
	.st70{fill:#382A44;}
	.st71{opacity:0.05;fill:#FFFFFF;}
	.st72{fill:#250C33;}
	.st73{fill:#300F39;}
	.st74{fill:#FF00CF;}
</style>
<g id="_x31_9__x28_Rest_of_Sky_x29_">
</g>
<g id="_x31_8__x28_Cloud_Layer_7_x29_">
</g>
<g id="_x31_7__x28_Cloud_Layer_6_x29_">
</g>
<g id="_x31_6__x28_Cloud_Layer_5_x29_">
</g>
<g id="_x31_5">
</g>
<g id="_x31_4">
</g>
<g id="_x31_3__x28_Cloud_Layer_4__x2B__Aircraft_x29_">
</g>
<g id="_x31_2_00000053541090334089295900000016410686384436047024_">
</g>
<g id="_x31_1__x28_Cloud_Layer_3__x2B__Higher_Birds_x29_">
</g>
<g id="_x31_0__x28__x2B__Nearby_Birds_x29_">
</g>
<g id="_x39___x28_Cloud_Layer_2_x29_">
</g>
<g id="_x38___x28__x2B__Nearby_Birds_x29_">
</g>
<g id="_x37___x28_Cloud_Layer_1_x29_">
</g>
<g id="_x36__00000068661700993368236970000009778035845983078308_">
</g>
<g id="_x35__00000078044523084173153740000012161118921027427980_">
	<g>
		<path class="st51" d="M149.14,1666.18c-1.99-0.62-3.97-0.77-5.86-0.53c-1.81,0.23-3.41-1.09-3.83-2.87
			c-1.51-6.31-6.7-11.39-13.51-12.41c-2.68-0.4-5.31-0.13-7.72,0.69c-2.38,0.81-4.92-0.23-6-2.5c-2.75-5.8-8.38-10.1-15.33-10.79
			c-9.67-0.96-18.74,5.83-20.55,15.37c-2.03,10.68,5.23,20.81,15.88,22.4c5.82,0.87,11.41-0.99,15.48-4.62
			c1.67,6.07,6.76,10.9,13.39,11.89c3.66,0.55,7.21-0.18,10.23-1.81c0.73,5.99,5.36,11.01,11.62,11.94
			c8.02,1.2,15.46-4.77,15.8-13.1C159,1673.71,154.99,1668.01,149.14,1666.18z"/>
		<circle class="st51" cx="288" cy="1627" r="12"/>
		<path class="st51" d="M45.45,1616.05l5.64,1.53c0.67,0.18,1.2-0.59,0.78-1.15l-7.39-10c-0.4-0.54,0.08-1.29,0.74-1.16l5.16,1.05
			c0.63,0.13,1.11-0.56,0.77-1.11l-6.84-11.09c-0.35-0.57,0.17-1.27,0.82-1.1l2.81,0.76c0.66,0.18,1.18-0.56,0.8-1.13l-9.14-13.35
			c-0.29-0.43-0.92-0.43-1.21,0l-9.14,13.35c-0.39,0.56,0.14,1.3,0.8,1.13l2.81-0.76c0.64-0.17,1.17,0.53,0.82,1.1l-6.84,11.09
			c-0.34,0.55,0.14,1.23,0.77,1.11l5.16-1.05c0.66-0.13,1.14,0.62,0.74,1.16l-7.39,10c-0.41,0.56,0.11,1.33,0.78,1.15l5.64-1.53
			c0.68-0.18,1.2,0.6,0.77,1.16l-8.17,10.61c-0.43,0.56,0.1,1.35,0.79,1.15l5.93-1.72c4.66-1.35,9.61-1.35,14.27,0l5.93,1.72
			c0.68,0.2,1.22-0.59,0.79-1.15l-8.17-10.61C44.24,1616.65,44.77,1615.87,45.45,1616.05z"/>
		<rect x="36.48" y="1617" class="st51" width="5" height="22"/>
		<path class="st51" d="M318.16,1599.93c-1.1-4.72-2.29-9.23-3.55-13.53c-0.5-1.71-2.92-1.72-3.44-0.02
			c-1.32,4.31-2.58,8.83-3.77,13.55c-2.41,9.6-4.12,18.67-5.35,27.07H320v-18.54C319.45,1605.67,318.84,1602.83,318.16,1599.93z"/>
		<g>
			<path class="st54" d="M255.89,1604h-0.95c-0.66,0-1.05-0.74-0.68-1.28l6.26-9.17c0.23-0.34,0.62-0.55,1.03-0.55h8.18
				c0.41,0,0.8,0.2,1.03,0.55l6.26,9.17c0.37,0.54-0.02,1.28-0.68,1.28h-10.45l-5-7L255.89,1604z"/>
			<g>
				<path class="st46" d="M250.32,1614l7.41,11.11c0.37,0.56,1,0.89,1.66,0.89h28.11v71h-29.19h-16v-71L250.32,1614z"/>
				<polygon class="st38" points="242.32,1630 252.32,1616 250.32,1613 242.32,1626 				"/>
				
					<rect x="260.32" y="1626" transform="matrix(-1 2.134414e-11 -2.134414e-11 -1 547.8273 3323)" class="st38" width="27.19" height="71"/>
				<path class="st54" d="M289.39,1626h-30.02c-0.67,0-1.29-0.33-1.66-0.89l-6.61-9.92c-0.38-0.57-1.21-0.57-1.59,0L242.3,1626
					h-1.75c-0.53,0-0.84-0.59-0.54-1.03l9.87-14.36c0.26-0.38,0.7-0.61,1.17-0.61h28.85c0.37,0,0.71,0.19,0.91,0.5l9.11,14.57
					C290.16,1625.48,289.87,1626,289.39,1626z"/>
				<path class="st38" d="M250.61,1634h1.37c0.45,0,0.81-0.36,0.81-0.81v-2.69c0-0.83-0.67-1.5-1.5-1.5l0,0
					c-0.83,0-1.5,0.67-1.5,1.5v2.69C249.8,1633.64,250.17,1634,250.61,1634z"/>
			</g>
			<polygon class="st46" points="260.89,1610 265.89,1619 265.89,1604 260.89,1596.5 255.89,1604 255.89,1610 			"/>
			<rect x="265.89" y="1604" class="st38" width="10" height="15"/>
			<circle class="st38" cx="260.89" cy="1606" r="1.5"/>
		</g>
		<path class="st51" d="M289.62,1637c1.11-7.6,2.67-15.8,4.84-24.48c1.07-4.27,2.21-8.35,3.41-12.25c0.47-1.54,2.66-1.53,3.11,0.01
			c1.13,3.89,2.21,7.97,3.21,12.24c2.04,8.71,3.43,16.92,4.38,24.48H289.62z"/>
		<g>
			<path class="st38" d="M93.51,1599l-7.41,11.11c-0.37,0.56-1,0.89-1.66,0.89H70.51v76h15h16v-76L93.51,1599z"/>
			<rect x="70.51" y="1611" class="st46" width="13" height="76"/>
			<path class="st54" d="M68.61,1611h15.84c0.67,0,1.29-0.33,1.66-0.89l6.61-9.92c0.38-0.57,1.21-0.57,1.59,0l7.21,10.81h1.75
				c0.53,0,0.84-0.59,0.54-1.03l-9.87-14.36c-0.26-0.38-0.7-0.61-1.17-0.61H78.11c-0.37,0-0.71,0.19-0.91,0.5l-9.11,14.57
				C67.84,1610.48,68.13,1611,68.61,1611z"/>
			<path class="st50" d="M93.2,1619h-1.37c-0.45,0-0.81-0.36-0.81-0.81v-2.69c0-0.83,0.67-1.5,1.5-1.5h0c0.83,0,1.5,0.67,1.5,1.5
				v2.69C94.01,1618.64,93.65,1619,93.2,1619z"/>
			<rect x="70.51" y="1611" class="st38" width="15" height="3"/>
		</g>
		<path class="st54" d="M54.06,1665c1.17-8,2.81-16.63,5.1-25.78c1.13-4.49,2.33-8.79,3.59-12.9c0.49-1.62,2.8-1.61,3.28,0.01
			c1.19,4.1,2.33,8.39,3.38,12.88c2.14,9.17,3.61,17.81,4.61,25.78H54.06z"/>
		<g>
			<path class="st54" d="M119.27,1636h0.95c0.66,0,1.05-0.74,0.68-1.28l-6.26-9.17c-0.23-0.34-0.62-0.55-1.03-0.55h-8.18
				c-0.41,0-0.8,0.2-1.03,0.55l-6.26,9.17c-0.37,0.54,0.02,1.28,0.68,1.28h10.45l5-7L119.27,1636z"/>
			<polygon class="st38" points="109.27,1673 109.27,1636 114.27,1628.5 119.27,1636 119.27,1673 			"/>
			
				<rect x="99.27" y="1636" transform="matrix(-1 -4.511115e-11 4.511115e-11 -1 208.5418 3309)" class="st46" width="10" height="37"/>
			<circle class="st50" cx="114.27" cy="1638" r="1.5"/>
			<rect x="99.27" y="1636" class="st38" width="10.73" height="3"/>
		</g>
		<path class="st55" d="M0,1911h320v-298.92l-38.8,29.85c-5.68,4.37-13.28,5.33-19.87,2.51l-4.04-1.73
			c-7.92-3.39-17.12-1.28-22.76,5.23l-37.14,41.86c-5.08,5.73-13.98,5.91-19.28,0.38l-4.58-4.77c-4.76-4.95-11.75-6.78-18.47-5.34
			c-6.32,1.36-12.92-0.45-17.66-4.87l-6.67-6.21c-4.32-4.02-10.2-5.91-16.05-5.14l-22.44,2.93c-6.13,0.8-12.28-1.31-16.63-5.71
			l-23.25-23.5c-5.02-5.07-12.37-7.05-19.25-5.18L0,1641.35V1911z"/>
		<path class="st54" d="M281.2,1641.92c-5.68,4.37-13.28,5.33-19.87,2.5l-4.04-1.73c-7.92-3.39-17.12-1.28-22.76,5.23l-37.33,40.82
			c-5.4,5.91-14.68,6.03-20.23,0.25l-3.46-3.6c-4.76-4.95-11.75-6.78-18.47-5.34c-6.32,1.36-12.92-0.45-17.66-4.87l-6.67-6.21
			c-4.32-4.02-10.2-5.91-16.05-5.14l-22.44,2.93c-6.13,0.8-12.28-1.31-16.63-5.71l-23.25-23.5c-5.02-5.07-12.37-7.05-19.25-5.18
			L0,1641.35v19.94l34.61-14.1c3.31-1.35,7.1-0.74,9.83,1.57l32.3,27.45c2.08,1.77,4.81,2.56,7.51,2.2l34.73-4.74
			c3.15-0.43,6.3,0.73,8.42,3.09l11.03,12.25c2.22,2.47,5.57,3.61,8.84,3.02l12.01-2.18c2.97-0.54,6.03,0.35,8.24,2.41l10.33,9.59
			c7.75,7.19,19.9,6.56,26.86-1.39l39.43-45.06c2.37-2.71,6.05-3.86,9.54-2.99l17.58,4.39c5.48,1.37,11.28-0.01,15.56-3.7
			l33.18-28.6v-12.44L281.2,1641.92z"/>
		<path class="st54" d="M8.06,1640.88c0.94-6.39,2.24-13.3,4.08-20.61c0.9-3.59,1.86-7.03,2.87-10.31c0.4-1.29,2.24-1.29,2.62,0.01
			c0.95,3.27,1.86,6.71,2.7,10.3c1.71,7.33,2.89,14.24,3.68,20.61H8.06z"/>
		<path class="st54" d="M16.06,1643c-1.2-9.59-2.96-19.98-5.54-31.02c-1.26-5.41-2.63-10.58-4.06-15.51
			c-0.57-1.96-3.35-1.97-3.94-0.02c-0.86,2.81-1.7,5.7-2.51,8.66V1643H16.06z"/>
		<path class="st54" d="M278.15,1645l2.81-6.79c0.17-0.4-0.24-0.8-0.64-0.64l0,0c-1.68,0.7-3.02,2.03-3.71,3.71l0,0l0,0
			c-1.68-0.7-3.57-0.7-5.25,0l0,0c-0.4,0.17-0.4,0.73,0,0.9L278.15,1645z"/>
		<path class="st54" d="M167.41,1683h-0.83c-0.32,0-0.59-0.26-0.59-0.59v-4.83c0-0.32,0.26-0.59,0.59-0.59h0.83
			c0.32,0,0.59,0.26,0.59,0.59v4.83C168,1682.74,167.74,1683,167.41,1683z"/>
		<path class="st54" d="M171.41,1685h-0.83c-0.32,0-0.59-0.26-0.59-0.59v-4.83c0-0.32,0.26-0.59,0.59-0.59h0.83
			c0.32,0,0.59,0.26,0.59,0.59v4.83C172,1684.74,171.74,1685,171.41,1685z"/>
		<path class="st54" d="M159.33,1703h-0.66c-0.37,0-0.67-0.3-0.67-0.67v-0.66c0-0.37,0.3-0.67,0.67-0.67h0.66
			c0.37,0,0.67,0.3,0.67,0.67v0.66C160,1702.7,159.7,1703,159.33,1703z"/>
		<path class="st54" d="M115.33,1685h-0.66c-0.37,0-0.67-0.3-0.67-0.67v-0.66c0-0.37,0.3-0.67,0.67-0.67h0.66
			c0.37,0,0.67,0.3,0.67,0.67v0.66C116,1684.7,115.7,1685,115.33,1685z"/>
		<path class="st51" d="M252.33,1662h-0.66c-0.37,0-0.67-0.3-0.67-0.67v-0.66c0-0.37,0.3-0.67,0.67-0.67h0.66
			c0.37,0,0.67,0.3,0.67,0.67v0.66C253,1661.7,252.7,1662,252.33,1662z"/>
		<path class="st54" d="M310.33,1649h-0.66c-0.37,0-0.67-0.3-0.67-0.67v-0.66c0-0.37,0.3-0.67,0.67-0.67h0.66
			c0.37,0,0.67,0.3,0.67,0.67v0.66C311,1648.7,310.7,1649,310.33,1649z"/>
		<path class="st51" d="M305.33,1655h-0.66c-0.37,0-0.67-0.3-0.67-0.67v-0.66c0-0.37,0.3-0.67,0.67-0.67h0.66
			c0.37,0,0.67,0.3,0.67,0.67v0.66C306,1654.7,305.7,1655,305.33,1655z"/>
		<path class="st54" d="M260.33,1662h-0.66c-0.37,0-0.67-0.3-0.67-0.67v-0.66c0-0.37,0.3-0.67,0.67-0.67h0.66
			c0.37,0,0.67,0.3,0.67,0.67v0.66C261,1661.7,260.7,1662,260.33,1662z"/>
		<path class="st54" d="M256.33,1668h-0.66c-0.37,0-0.67-0.3-0.67-0.67v-0.66c0-0.37,0.3-0.67,0.67-0.67h0.66
			c0.37,0,0.67,0.3,0.67,0.67v0.66C257,1667.7,256.7,1668,256.33,1668z"/>
		<path class="st51" d="M153.33,1707h-0.66c-0.37,0-0.67-0.3-0.67-0.67v-0.66c0-0.37,0.3-0.67,0.67-0.67h0.66
			c0.37,0,0.67,0.3,0.67,0.67v0.66C154,1706.7,153.7,1707,153.33,1707z"/>
	</g>
</g>
<g id="_x34__00000014591708090884853300000012924613216120282812_">
</g>
<g id="_x33__00000150784116898789853780000012635840894519326891_">
</g>
<g id="_x32__00000155142127021454457340000001118262530934973368_">
</g>
<g id="_x31__00000176748215646741422430000014996548749285466274_">
</g>
<g id="Full">
</g>
<g id="Guide">
</g>
</svg>
