<?xml version="1.0" encoding="utf-8"?>
<!-- Generator: Adobe Illustrator 26.0.2, SVG Export Plug-In . SVG Version: 6.00 Build 0)  -->
<svg version="1.1" xmlns="http://www.w3.org/2000/svg" xmlns:xlink="http://www.w3.org/1999/xlink" x="0px" y="0px"
	 viewBox="0 0 500 375" style="enable-background:new 0 0 500 375;" xml:space="preserve">
<style type="text/css">
	.st0{fill:#FFEAD7;}
	.st1{opacity:0.5;fill:#FFDFC2;}
	.st2{fill:#FFFFFF;}
	.st3{opacity:0.5;fill:#FFDCB8;}
	.st4{fill:#FFF5EF;}
	.st5{fill:#FFDCB8;}
	.st6{fill:#FFCE99;}
	.st7{fill:#FFDFC2;}
	.st8{fill:#FFDBBD;}
	.st9{fill:#FFC483;}
	.st10{fill:#FFB776;}
	.st11{fill:#FFCBA4;}
	.st12{fill:#E89D6B;}
	.st13{fill:#DD9268;}
	.st14{fill:#E58373;}
	.st15{fill:#E0F2DF;}
	.st16{fill:#CAEACA;}
	.st17{fill:none;}
	.st18{fill:#C67466;}
	.st19{fill:#AC655F;}
	.st20{fill:#FFB187;}
	.st21{fill:#8D4B61;}
	.st22{fill:#9C555F;}
	.st23{fill:#AAE2AA;}
	.st24{fill:#79CCAA;}
	.st25{fill:#662E55;}
	.st26{fill:#5B2950;}
	.st27{fill:#32253F;}
	.st28{fill:#2B1B37;}
	.st29{fill:#382A44;}
	.st30{opacity:0.05;fill:#FFFFFF;}
	.st31{fill:#4A1E45;}
	.st32{fill:#56435D;}
	.st33{fill:#7F3B59;}
	.st34{fill:#B2836F;}
	.st35{fill:#4D3E54;}
	.st36{fill:#614B63;}
	.st37{opacity:0.7;fill:#49BA9C;}
	.st38{fill:#3B123E;}
	.st39{fill:#A4DDC8;}
	.st40{fill:#250C33;}
	.st41{fill:#300F39;}
	.st42{fill:#190128;}
	.st43{fill:#35F200;}
	.st44{fill:#0058F4;}
</style>
<g id="_x31_">
</g>
<g id="_x32_">
</g>
<g id="_x33_">
</g>
<g id="_x34__1_">
</g>
<g id="_x35__00000068650285933184752780000010330952612633446584_">
</g>
<g id="_x36_">
</g>
<g id="_x37_">
</g>
<g id="_x38_">
</g>
<g id="_x39__00000049217028608276070180000013554017633487154818_">
</g>
<g id="_x31_0_00000147915158777594467630000018299806147496965556_">
</g>
<g id="_x31_1_00000031209085476423013220000010579698211204677507_">
</g>
<g id="_x31_2">
	<g>
		<g>
			<path class="st26" d="M337,326c-1.48-10.11-3.55-21.02-6.44-32.57c-1.42-5.67-2.94-11.11-4.53-16.3
				c-0.63-2.05-3.54-2.03-4.14,0.02c-1.5,5.17-2.94,10.6-4.27,16.28c-2.71,11.59-4.56,22.5-5.82,32.57H337z"/>
			<path class="st25" d="M320.16,326c-0.25-9.04,0.12-19.43,1.77-30.85c0.98-6.78,2.28-13.04,3.72-18.73
				c-1-1.29-3.25-1.04-3.77,0.73c-1.5,5.17-2.94,10.6-4.27,16.28c-2.71,11.59-4.56,22.5-5.82,32.57H320.16z"/>
		</g>
		<rect x="72" y="287.49" class="st40" width="8" height="48"/>
		<path class="st41" d="M80,335.74h-4v-28.51c0-2.07,1.67-3.74,3.74-3.74H80V335.74z"/>
		<g>
			<path class="st42" d="M122.75,344c1.72-11.73,4.12-24.4,7.48-37.81c1.65-6.59,3.42-12.9,5.26-18.92
				c0.73-2.37,4.11-2.36,4.81,0.02c1.75,6.01,3.41,12.31,4.95,18.9c3.14,13.45,5.29,26.12,6.76,37.81H122.75z"/>
			<path class="st40" d="M142.29,344c0.29-10.49-0.14-22.56-2.06-35.82c-1.14-7.87-2.64-15.13-4.32-21.74
				c1.17-1.5,3.78-1.21,4.38,0.85c1.75,6.01,3.41,12.31,4.95,18.9c3.14,13.45,5.29,26.12,6.76,37.81H142.29z"/>
		</g>
		<g>
			<path class="st42" d="M108,328c1.53-10.48,3.68-21.79,6.68-33.77c1.47-5.88,3.05-11.52,4.7-16.9c0.65-2.12,3.67-2.11,4.29,0.02
				c1.56,5.37,3.05,10.99,4.42,16.88c2.81,12.02,4.73,23.33,6.03,33.77H108z"/>
			<path class="st40" d="M125.46,328c0.26-9.37-0.13-20.15-1.84-31.99c-1.01-7.03-2.36-13.52-3.86-19.42
				c1.04-1.34,3.37-1.08,3.91,0.76c1.56,5.37,3.05,10.99,4.42,16.88c2.81,12.02,4.73,23.33,6.03,33.77H125.46z"/>
		</g>
		<path class="st40" d="M88.45,285.52l9.22,2.81c1.46,0.45,2.68-1.18,1.84-2.46l-13.29-20.24c-0.81-1.23,0.3-2.82,1.73-2.49
			l8.5,1.94c1.37,0.31,2.47-1.14,1.8-2.38l-12.33-22.54c-0.7-1.29,0.51-2.78,1.91-2.35l4.07,1.24c1.44,0.44,2.65-1.13,1.87-2.41
			L77.4,209.7c-0.64-1.05-2.16-1.05-2.79,0l-16.38,26.94c-0.78,1.28,0.44,2.85,1.87,2.41l4.07-1.24c1.4-0.43,2.61,1.06,1.91,2.35
			L53.74,262.7c-0.68,1.24,0.42,2.69,1.8,2.38l8.5-1.94c1.44-0.33,2.54,1.26,1.73,2.49l-13.29,20.24c-0.84,1.28,0.38,2.91,1.84,2.46
			l9.22-2.81c1.48-0.45,2.7,1.21,1.83,2.49l-14.66,21.43c-0.88,1.29,0.37,2.96,1.86,2.48l22.92-7.48c0.33-0.11,0.68-0.11,1.01,0
			l22.92,7.48c1.48,0.48,2.74-1.19,1.86-2.48l-14.66-21.43C85.76,286.73,86.98,285.07,88.45,285.52z"/>
		<g>
			<path class="st40" d="M306,340c-1.29-8.82-3.1-18.35-5.62-28.44c-1.24-4.95-2.57-9.7-3.96-14.23c-0.55-1.79-3.09-1.78-3.61,0.02
				c-1.31,4.52-2.57,9.26-3.72,14.21c-2.36,10.12-3.98,19.65-5.08,28.44H306z"/>
			<path class="st41" d="M291.3,340c-0.22-7.89,0.11-16.97,1.55-26.94c0.85-5.92,1.99-11.38,3.25-16.35
				c-0.88-1.12-2.84-0.91-3.29,0.64c-1.31,4.52-2.57,9.26-3.72,14.21c-2.36,10.12-3.98,19.65-5.08,28.44H291.3z"/>
		</g>
		<g>
			<path class="st40" d="M321.65,335.61c-1.48-10.13-3.55-21.06-6.45-32.64c-1.43-5.69-2.95-11.13-4.54-16.33
				c-0.63-2.05-3.55-2.04-4.15,0.02c-1.51,5.19-2.95,10.63-4.27,16.31c-2.71,11.61-4.57,22.55-5.83,32.64H321.65z"/>
			<path class="st41" d="M304.78,335.6c-0.25-9.06,0.12-19.47,1.78-30.92c0.98-6.79,2.28-13.06,3.73-18.77
				c-1.01-1.29-3.26-1.05-3.78,0.73c-1.51,5.19-2.95,10.63-4.27,16.31c-2.71,11.61-4.57,22.55-5.83,32.64H304.78z"/>
		</g>
		<path class="st41" d="M101.29,309.44l-14.66-21.43c-0.87-1.28,0.35-2.94,1.83-2.49l9.22,2.81c1.46,0.45,2.68-1.18,1.84-2.46
			l-13.29-20.24c-0.81-1.23,0.3-2.82,1.73-2.49l8.5,1.94c1.37,0.31,2.47-1.14,1.8-2.38l-12.33-22.54c-0.7-1.29,0.51-2.78,1.91-2.35
			l4.07,1.24c1.44,0.44,2.65-1.13,1.87-2.41L77.4,209.7c-0.43-0.72-1.28-0.93-1.97-0.67l9.52,20.95c0.7,1.54-0.5,3.28-2.19,3.15h0
			c-1.57-0.11-2.76,1.38-2.3,2.88l5.46,17.85c0.49,1.61-0.9,3.16-2.55,2.85l-0.89-0.17c-1.61-0.3-2.99,1.18-2.57,2.77l4.85,18.27
			c0.38,1.42-0.69,2.81-2.16,2.81h-2.27c-1.44,0-2.51,1.35-2.17,2.75l5.61,23.64l15.67,5.11
			C100.91,312.4,102.17,310.73,101.29,309.44z"/>
		<path class="st41" d="M343.43,323.93h-3v-7.97c0-0.57,0.46-1.03,1.03-1.03h0.93c0.57,0,1.03,0.46,1.03,1.03V323.93z"/>
		<path class="st41" d="M348,326h-3v-5.97c0-0.57,0.46-1.03,1.03-1.03h0.93c0.57,0,1.03,0.46,1.03,1.03V326z"/>
		<g>
			<path class="st41" d="M335.21,317.1c-6.52-2.94-13.74,0.13-18.26,7.93c-2.65,4.57-7.03,5.89-10.56,3.2l-3.98-3.04
				c-4.08-3.12-9.05-2.58-12.91,1.38l-11.48,13.17c-2.98,3.42-6.95,4.17-10.31,1.96l-4.87-3.19c-0.07-0.05-0.14-0.09-0.21-0.14
				c-10.37-6.68-22.16-3.77-31.41,7.23l-14.54,17.29l-0.09,0l0.01,9.23l144.12-5.98l-0.01-9.13l0-0.1l-0.02-28.34L335.21,317.1z"/>
			<path class="st40" d="M256.7,345.83l13.39,4.82c4.27,1.54,8.79-0.16,12.28-4.6l9-11.46c2.39-3.04,5.5-4.14,8.4-2.98l13.39,5.37
				c2.99,1.08,6.16-0.05,8.64-3.1l4.38-5.37c2.96-3.64,6.86-4.51,10.24-2.29l26.88,17.64l0.03,33.84l-146.74,6.09l3.48-18.47
				l22.44-16.92c2.42-1.83,5.02-2.94,7.67-3.28h0C252.38,344.82,254.57,345.06,256.7,345.83z"/>
		</g>
		<g>
			<path class="st40" d="M172.85,324.05c-5.11-0.84-9.86,0.09-13.78,2.25c-1.97,1.08-4.45,0.57-5.83-1.21
				c-4.32-5.55-11.34-8.77-18.83-7.89c-6.11,0.72-11.27,4.02-14.56,8.68c-1.23,1.75-3.57,2.35-5.55,1.53
				c-3.15-1.29-6.67-1.83-10.29-1.4c-5.69,0.67-10.57,3.58-13.87,7.75c-1.24,1.57-3.28,2.21-5.18,1.6
				c-4.52-1.45-9.67-1.38-14.75,0.75c-8.44,3.53-13.32,12.43-12.25,21.51l0,0L60.22,377L192,361.51l-2.28-19.38v0
				C188.66,333.06,181.85,325.53,172.85,324.05z"/>
			<g>
				<path class="st41" d="M172.85,324.05c-5.11-0.84-9.86,0.09-13.78,2.25c-1.97,1.08-4.45,0.57-5.83-1.21
					c-4.32-5.55-11.34-8.77-18.83-7.89c-6.11,0.72-11.27,4.02-14.56,8.68c-1.23,1.75-3.57,2.35-5.55,1.53
					c-3.15-1.29-6.67-1.83-10.29-1.4c-5.69,0.67-10.57,3.58-13.87,7.75c-1.24,1.57-3.28,2.21-5.18,1.6
					c-4.52-1.45-9.67-1.38-14.75,0.75c-7.1,2.97-11.66,9.74-12.29,17.22c1.96-4.91,5.79-8.98,10.92-11
					c4.97-1.96,12.38-1.46,16.73,0.03c1.83,0.63,3.82,0.05,5.05-1.45c3.28-3.97,8.05-6.69,13.58-7.22c3.52-0.34,6.91,0.25,9.94,1.57
					c1.9,0.83,4.17,0.3,5.4-1.37c3.27-4.45,8.34-7.54,14.27-8.11c7.27-0.7,14,2.56,18.08,8.02c1.3,1.75,3.69,2.3,5.62,1.29
					c3.85-2,8.46-2.82,13.39-1.9c8.69,1.62,15.13,9.04,15.98,17.85l0,0l1.06,10.96l4.08-0.48l-2.28-19.38l0,0
					C188.66,333.06,181.85,325.53,172.85,324.05z"/>
			</g>
		</g>
		<g>
			<g>
				<path class="st42" d="M484.75,320c-1.64-11.23-3.94-23.35-7.16-36.19c-1.58-6.31-3.27-12.35-5.03-18.11
					c-0.69-2.27-3.94-2.26-4.6,0.02c-1.67,5.75-3.27,11.78-4.74,18.09c-3.01,12.88-5.07,25.01-6.47,36.19H484.75z"/>
				<path class="st40" d="M466.04,320c-0.28-10.04,0.14-21.59,1.97-34.29c1.09-7.53,2.53-14.49,4.14-20.81
					c-1.12-1.43-3.61-1.16-4.19,0.81c-1.67,5.75-3.27,11.78-4.74,18.09c-3.01,12.88-5.07,25.01-6.47,36.19H466.04z"/>
			</g>
			<path class="st42" d="M472.05,301.83c-6.85-1.76-14.11,0.23-19.11,5.23L433.4,326.6c-2.76,2.76-6.68,4-10.52,3.34l-51.65-8.91
				c-5.67-0.98-11.4,0.64-15.96,4.15c-5.96,4.59-19.64,15.29-28.39,22.14c-4.96,3.88-11.46,5.2-17.54,3.56l-12.95-3.5
				c-9.42-2.54-19.34-2.53-28.75,0.05l-42,11.51c-10.66,2.92-22.04,1.54-31.69-3.84l-12.65-7.06c-15.38-8.58-33.79-9.82-50.18-3.39
				l-11.97,4.69c-7.9,3.1-16.89,0.88-22.43-5.54c-3.81-4.41-7.81-9.07-9.87-11.59c-3.2-3.92-7.61-6.66-12.6-7.47l-17.45-2.81
				c-3.65-0.59-6.82-2.83-8.6-6.06l-3.85-7c-2.75-5-7.51-8.59-13.08-9.86L0,291.88V397h500v-88L472.05,301.83z"/>
			<g>
				<path class="st42" d="M435,332c-1.53-10.43-3.66-21.69-6.65-33.61c-1.47-5.86-3.04-11.46-4.68-16.82
					c-0.65-2.11-3.66-2.1-4.27,0.02c-1.55,5.34-3.03,10.94-4.4,16.8c-2.79,11.96-4.71,23.22-6.01,33.61H435z"/>
				<path class="st40" d="M417.63,332c-0.26-9.33,0.13-20.05,1.83-31.84c1.01-6.99,2.35-13.45,3.84-19.32
					c-1.04-1.33-3.36-1.08-3.89,0.76c-1.55,5.34-3.03,10.94-4.4,16.8c-2.79,11.96-4.71,23.22-6.01,33.61H417.63z"/>
			</g>
			<g>
				<path class="st42" d="M451,340c-1.53-10.43-3.66-21.69-6.65-33.61c-1.47-5.86-3.04-11.46-4.68-16.82
					c-0.65-2.11-3.66-2.1-4.27,0.02c-1.55,5.34-3.03,10.94-4.4,16.8c-2.79,11.96-4.71,23.22-6.01,33.61H451z"/>
				<path class="st40" d="M433.63,340c-0.26-9.33,0.13-20.05,1.83-31.84c1.01-6.99,2.35-13.45,3.84-19.32
					c-1.04-1.33-3.36-1.08-3.89,0.76c-1.55,5.34-3.03,10.94-4.4,16.8c-2.79,11.96-4.71,23.22-6.01,33.61H433.63z"/>
			</g>
			<path class="st40" d="M389.16,327.24l8.91-7.97c0.53-0.47,0.22-1.34-0.48-1.38l0,0c-2.96-0.17-5.86,0.85-8.06,2.82l0,0l0,0
				c-1.97-2.21-4.74-3.54-7.69-3.71h0c-0.7-0.04-1.11,0.79-0.64,1.32L389.16,327.24z"/>
			<g>
				<path class="st42" d="M6.25,300.5c1.57-10.73,3.76-22.31,6.84-34.58c1.51-6.02,3.13-11.79,4.81-17.3
					c0.66-2.17,3.76-2.16,4.39,0.02c1.6,5.49,3.12,11.26,4.53,17.28c2.88,12.3,4.84,23.89,6.18,34.58H6.25z"/>
				<path class="st40" d="M24.12,300.5c0.27-9.59-0.13-20.63-1.88-32.76c-1.04-7.2-2.42-13.84-3.95-19.88
					c1.07-1.37,3.45-1.11,4,0.78c1.6,5.49,3.12,11.26,4.53,17.28c2.88,12.3,4.84,23.89,6.18,34.58H24.12z"/>
			</g>
			<path class="st40" d="M60.08,327h-1.16c-0.51,0-0.92-0.41-0.92-0.92v-8.16c0-0.51,0.41-0.92,0.92-0.92h1.16
				c0.51,0,0.92,0.41,0.92,0.92v8.16C61,326.59,60.59,327,60.08,327z"/>
			<path class="st40" d="M65.58,329h-1.16c-0.51,0-0.92-0.41-0.92-0.92v-8.16c0-0.51,0.41-0.92,0.92-0.92h1.16
				c0.51,0,0.92,0.41,0.92,0.92v8.16C66.5,328.59,66.09,329,65.58,329z"/>
			<path class="st40" d="M491,310h-3v-7.97c0-0.57,0.46-1.03,1.03-1.03h0.93c0.57,0,1.03,0.46,1.03,1.03V310z"/>
			<path class="st40" d="M86.83,332.18c-3.11-3.99-7.61-6.66-12.6-7.47l-17.45-2.81c-3.65-0.59-6.82-2.83-8.6-6.06l-3.85-7
				c-2.75-5-7.51-8.59-13.08-9.86L0,291.84v8.18l22.14,3.91c3.67,0.65,6.79,3.05,8.35,6.43l6.72,14.56
				c1.73,3.75,5.29,6.33,9.39,6.82l27.87,2.27c0,0,0,0,0,0l14.72,1.2L86.83,332.18z"/>
			<path class="st40" d="M421.7,342.42c6.44,1.46,13.18-0.38,17.99-4.91l21.53-20.34c4.15-3.92,10.17-5.11,15.5-3.06l23.29,8.96V309
				l-27.95-7.17c-6.85-1.76-14.11,0.23-19.11,5.23L433.4,326.6c-2.76,2.76-6.68,4-10.52,3.34l-51.65-8.91
				c-5.67-0.98-11.49,0.53-15.96,4.15l-0.82,0.58L421.7,342.42z"/>
		</g>
	</g>
</g>
<g id="Full_Illustration">
</g>
<g id="Cropping_Guide">
</g>
</svg>
