<?xml version="1.0" encoding="utf-8"?>
<!-- Generator: Adobe Illustrator 26.0.2, SVG Export Plug-In . SVG Version: 6.00 Build 0)  -->
<svg version="1.1" xmlns="http://www.w3.org/2000/svg" xmlns:xlink="http://www.w3.org/1999/xlink" x="0px" y="0px"
	 viewBox="0 0 320 1911" style="enable-background:new 0 0 320 1911;" xml:space="preserve">
<style type="text/css">
	.st0{fill:#190128;}
	.st1{fill:#98FF8F;}
	.st2{fill:#5B205C;}
	.st3{fill:#E3CF7F;}
	.st4{fill:#36114A;}
	.st5{opacity:0.5;fill:#FFFFFF;}
	.st6{fill:#1F032F;}
	.st7{fill:#260638;}
	.st8{opacity:0.25;fill:#FFF5EF;}
	.st9{fill:#FFF5EF;}
	.st10{fill:#521C57;}
	.st11{fill:#56577A;}
	.st12{opacity:0.5;fill:#9EEBCC;}
	.st13{opacity:0.75;fill:#FFF5EF;}
	.st14{opacity:0.75;fill:#C0E37F;}
	.st15{fill:#56888F;}
	.st16{fill:#C0E37F;}
	.st17{fill:#54A89C;}
	.st18{fill:#51C9A9;}
	.st19{opacity:0.5;fill:#FFF5EF;}
	.st20{fill:#9EEBCC;}
	.st21{fill:#8DD4BB;}
	.st22{fill:#B9D8C3;}
	.st23{opacity:0.75;fill:#FFFF8F;}
	.st24{fill:#CBDFCA;}
	.st25{opacity:0.15;fill:#FFF5EF;}
	.st26{opacity:0.25;fill:#C2A9C2;}
	.st27{fill:#C2A9C2;}
	.st28{fill:#81B8B3;}
	.st29{fill:#718FA1;}
	.st30{fill:#EAE3C7;}
	.st31{fill:#FAD8AC;}
	.st32{fill:#FFE6D5;}
	.st33{opacity:0.35;fill:#FFFFFF;}
	.st34{opacity:0.15;fill:#FFFFFF;}
	.st35{fill:#FFD1A1;}
	.st36{fill:#FFC483;}
	.st37{fill:#FFC98E;}
	.st38{fill:#FFD8BB;}
	.st39{opacity:0.5;}
	.st40{fill:#FFB776;}
	.st41{fill:#FFC183;}
	.st42{opacity:0.75;}
	.st43{fill:#EDA876;}
	.st44{fill:#E89D6B;}
	.st45{opacity:0.5;fill:#E89D6B;}
	.st46{fill:#FFFFFF;}
	.st47{fill:#E58373;}
	.st48{fill:#DD9268;}
	.st49{fill:#D68968;}
	.st50{fill:#FFCBA4;}
	.st51{fill:#C67466;}
	.st52{fill:#CAEACA;}
	.st53{fill:#E0F2DF;}
	.st54{fill:#BA6D61;}
	.st55{fill:#AC655F;}
	.st56{fill:#A45D5F;}
	.st57{fill:#FFB187;}
	.st58{fill:#8D4B61;}
	.st59{fill:#E08977;}
	.st60{fill:#9C555F;}
	.st61{fill:#56435D;}
	.st62{fill:#614B63;}
	.st63{fill:#7F3B59;}
	.st64{fill:#4D3E54;}
	.st65{fill:#32253F;}
	.st66{fill:#2B1B37;}
	.st67{fill:#5B2950;}
	.st68{fill:#4A1E45;}
	.st69{fill:#662E55;}
	.st70{fill:#382A44;}
	.st71{opacity:0.05;fill:#FFFFFF;}
	.st72{fill:#250C33;}
	.st73{fill:#300F39;}
	.st74{fill:#FF00CF;}
</style>
<g id="_x31_9__x28_Rest_of_Sky_x29_">
</g>
<g id="_x31_8__x28_Cloud_Layer_7_x29_">
</g>
<g id="_x31_7__x28_Cloud_Layer_6_x29_">
	<g>
		<path class="st19" d="M113.91,154.8l-6.47,4.31c-3.96,2.64-9.04,2.96-13.29,0.83l-5.83-2.91c-4.4-2.2-9.65-1.79-13.65,1.07L58,170
			h96l-25.9-15.54C123.7,151.82,118.18,151.95,113.91,154.8z"/>
		<path class="st27" d="M128.73,297l-29.12-15.49c-14.08-7.49-30.69-8.57-45.61-2.97l-20.73,7.77c-5.17,1.94-10.92,1.51-15.75-1.17
			l-2.47-1.37c-4.65-2.59-10.11-3.04-15.05-1.41V297H128.73z"/>
		<path class="st29" d="M268.1,436.74l-23.04,15.83c-10.4,7.15-25.13,8.9-37.76,4.49v0c-9.68-3.38-20.79-3.18-30.26,0.54L120.15,480
			H320v-39.83l-4.59-3C301.7,428.14,281.7,427.39,268.1,436.74z"/>
		<path class="st13" d="M98,685l-8.9-9.03c-9.27-9.41-20.17-12.37-30.51-8.77c-6.81,2.37-13.82,1.58-20.31-2.62
			c-12.14-7.85-25.67-9.74-38.28-4.97V685H98z"/>
		<path class="st13" d="M137,749.88l-6.15-3.69c-8.63-5.18-19.3-5.59-28.3-1.09L93,749.88H137z"/>
		<path class="st9" d="M320,696.77c-6.14-1.64-13.53-0.59-17.68,2.68l-9.15,7.21c-3.77,2.97-10.33,4.18-16.3,3.01l-4.46-0.88
			c-5.54-1.09-11.65-0.13-15.53,2.45L233,727.89h87V696.77z"/>
		<path class="st13" d="M204.2,907.05l-5.94,3.96c-3.64,2.42-8.29,2.71-12.2,0.76l-5.35-2.67c-4.03-2.02-8.85-1.64-12.53,0.98
			L152.89,921H241l-23.77-14.26C213.19,904.31,208.12,904.43,204.2,907.05z"/>
		<path class="st13" d="M63,995l19.63-11.04c5.64-3.17,12.62-2.71,17.8,1.17h0c3.6,2.7,8.47,3,12.37,0.77l9.87-5.64
			c5.49-3.13,12.29-2.82,17.47,0.8l3.96,2.77c3.46,2.42,7.97,2.71,11.71,0.75l19.42-10.17c7.57-3.96,16.75-3.11,23.46,2.19L222,995
			H63z"/>
	</g>
</g>
<g id="_x31_6__x28_Cloud_Layer_5_x29_">
</g>
<g id="_x31_5">
</g>
<g id="_x31_4">
</g>
<g id="_x31_3__x28_Cloud_Layer_4__x2B__Aircraft_x29_">
</g>
<g id="_x31_2_00000053541090334089295900000016410686384436047024_">
</g>
<g id="_x31_1__x28_Cloud_Layer_3__x2B__Higher_Birds_x29_">
</g>
<g id="_x31_0__x28__x2B__Nearby_Birds_x29_">
</g>
<g id="_x39___x28_Cloud_Layer_2_x29_">
</g>
<g id="_x38___x28__x2B__Nearby_Birds_x29_">
</g>
<g id="_x37___x28_Cloud_Layer_1_x29_">
</g>
<g id="_x36__00000068661700993368236970000009778035845983078308_">
</g>
<g id="_x35__00000078044523084173153740000012161118921027427980_">
</g>
<g id="_x34__00000014591708090884853300000012924613216120282812_">
</g>
<g id="_x33__00000150784116898789853780000012635840894519326891_">
</g>
<g id="_x32__00000155142127021454457340000001118262530934973368_">
</g>
<g id="_x31__00000176748215646741422430000014996548749285466274_">
</g>
<g id="Full">
</g>
<g id="Guide">
</g>
</svg>
