<?xml version="1.0" encoding="utf-8"?>
<!-- Generator: Adobe Illustrator 26.0.2, SVG Export Plug-In . SVG Version: 6.00 Build 0)  -->
<svg version="1.1" xmlns="http://www.w3.org/2000/svg" xmlns:xlink="http://www.w3.org/1999/xlink" x="0px" y="0px"
	 viewBox="0 0 500 375" style="enable-background:new 0 0 500 375;" xml:space="preserve">
<style type="text/css">
	.st0{fill:#FFEAD7;}
	.st1{opacity:0.5;fill:#FFDFC2;}
	.st2{fill:#FFFFFF;}
	.st3{opacity:0.5;fill:#FFDCB8;}
	.st4{fill:#FFF5EF;}
	.st5{fill:#FFDCB8;}
	.st6{fill:#FFCE99;}
	.st7{fill:#FFDFC2;}
	.st8{fill:#FFDBBD;}
	.st9{fill:#FFC483;}
	.st10{fill:#FFB776;}
	.st11{fill:#FFCBA4;}
	.st12{fill:#E89D6B;}
	.st13{fill:#DD9268;}
	.st14{fill:#E58373;}
	.st15{fill:#E0F2DF;}
	.st16{fill:#CAEACA;}
	.st17{fill:none;}
	.st18{fill:#C67466;}
	.st19{fill:#AC655F;}
	.st20{fill:#FFB187;}
	.st21{fill:#8D4B61;}
	.st22{fill:#9C555F;}
	.st23{fill:#AAE2AA;}
	.st24{fill:#79CCAA;}
	.st25{fill:#662E55;}
	.st26{fill:#5B2950;}
	.st27{fill:#32253F;}
	.st28{fill:#2B1B37;}
	.st29{fill:#382A44;}
	.st30{opacity:0.05;fill:#FFFFFF;}
	.st31{fill:#4A1E45;}
	.st32{fill:#56435D;}
	.st33{fill:#7F3B59;}
	.st34{fill:#B2836F;}
	.st35{fill:#4D3E54;}
	.st36{fill:#614B63;}
	.st37{opacity:0.7;fill:#49BA9C;}
	.st38{fill:#3B123E;}
	.st39{fill:#A4DDC8;}
	.st40{fill:#250C33;}
	.st41{fill:#300F39;}
	.st42{fill:#190128;}
	.st43{fill:#35F200;}
	.st44{fill:#0058F4;}
</style>
<g id="_x31_">
</g>
<g id="_x32_">
</g>
<g id="_x33_">
</g>
<g id="_x34__1_">
</g>
<g id="_x35__00000068650285933184752780000010330952612633446584_">
</g>
<g id="_x36_">
</g>
<g id="_x37_">
</g>
<g id="_x38_">
</g>
<g id="_x39__00000049217028608276070180000013554017633487154818_">
</g>
<g id="_x31_0_00000147915158777594467630000018299806147496965556_">
	<g>
		<path class="st18" d="M241.36,247c1.23-8.42,2.96-17.52,5.37-27.14c1.19-4.73,2.45-9.26,3.78-13.58c0.52-1.7,2.95-1.7,3.45,0.02
			c1.25,4.31,2.45,8.84,3.56,13.57c2.26,9.66,3.8,18.75,4.85,27.14H241.36z"/>
		<path class="st18" d="M161.42,260.01c1.07-7.32,2.57-15.23,4.67-23.59c1.03-4.11,2.13-8.05,3.28-11.81c0.45-1.48,2.57-1.47,3,0.01
			c1.09,3.75,2.13,7.68,3.09,11.79c1.96,8.4,3.3,16.3,4.22,23.59H161.42z"/>
		<path class="st18" d="M111,241.05c1.07-7.32,2.57-15.23,4.67-23.59c1.03-4.11,2.13-8.05,3.28-11.81c0.45-1.48,2.57-1.47,3,0.01
			c1.09,3.75,2.13,7.68,3.09,11.79c1.96,8.4,3.3,16.3,4.22,23.59H111z"/>
		<path class="st19" d="M253.51,243.41c0.94-6.39,2.24-13.3,4.08-20.61c0.9-3.59,1.86-7.03,2.87-10.31c0.4-1.29,2.24-1.29,2.62,0.01
			c0.95,3.27,1.86,6.71,2.7,10.3c1.71,7.33,2.89,14.24,3.68,20.61H253.51z"/>
		<path class="st18" d="M86.2,250.59c1.4-9.55,3.35-19.85,6.08-30.76c1.34-5.36,2.78-10.49,4.28-15.39
			c0.59-1.93,3.35-1.92,3.91,0.02c1.42,4.89,2.78,10.02,4.03,15.38c2.56,10.95,4.31,21.25,5.5,30.76H86.2z"/>
		<path class="st18" d="M419.2,293c1.4-9.55,3.35-19.85,6.08-30.76c1.34-5.36,2.78-10.49,4.28-15.39c0.59-1.93,3.35-1.92,3.91,0.02
			c1.42,4.89,2.78,10.02,4.03,15.38c2.56,10.95,4.31,21.25,5.5,30.76H419.2z"/>
		<path class="st18" d="M330,281c1.4-9.55,3.35-19.85,6.08-30.76c1.34-5.36,2.78-10.49,4.28-15.39c0.59-1.93,3.35-1.92,3.91,0.02
			c1.42,4.89,2.78,10.02,4.03,15.38c2.56,10.95,4.31,21.25,5.5,30.76H330z"/>
		<path class="st18" d="M463,289c1.4-9.55,3.35-19.85,6.08-30.76c1.34-5.36,2.78-10.49,4.28-15.39c0.59-1.93,3.35-1.92,3.91,0.02
			c1.42,4.89,2.78,10.02,4.03,15.38c2.56,10.95,4.31,21.25,5.5,30.76H463z"/>
		<path class="st18" d="M113.8,222.38c3.12-0.15,5.9,1.38,7.5,3.76c0.63,0.93,1.82,1.23,2.82,0.71c1.01-0.52,2.15-0.82,3.37-0.82
			c3.08,0,5.72,1.9,6.8,4.6c0.31,0.76,1.1,1.24,1.89,1.02c0.82-0.23,1.71-0.29,2.63-0.15c2.71,0.42,4.86,2.68,5.15,5.41
			c0.4,3.71-2.5,6.84-6.13,6.84c-2.83,0-5.21-1.91-5.94-4.52c-1.23,0.92-2.75,1.48-4.41,1.48c-3,0-5.57-1.8-6.71-4.38
			c-1.56,1.88-3.91,3.07-6.55,3.07c-4.82,0-8.7-4-8.51-8.86C105.89,226.2,109.46,222.59,113.8,222.38z"/>
		<rect x="106.01" y="234.39" class="st18" width="35.15" height="20.61"/>
		<path class="st19" d="M98.2,258.59c1.4-9.55,3.35-19.85,6.08-30.76c1.34-5.36,2.78-10.49,4.28-15.39
			c0.59-1.93,3.35-1.92,3.91,0.02c1.42,4.89,2.78,10.02,4.03,15.38c2.56,10.95,4.31,21.25,5.5,30.76H98.2z"/>
		<path class="st19" d="M388.2,291c1.4-9.55,3.35-19.85,6.08-30.76c1.34-5.36,2.78-10.49,4.28-15.39c0.59-1.93,3.35-1.92,3.91,0.02
			c1.42,4.89,2.78,10.02,4.03,15.38c2.56,10.95,4.31,21.25,5.5,30.76H388.2z"/>
		<path class="st19" d="M400.7,290c1.78-12.15,4.26-25.27,7.74-39.16c1.71-6.82,3.54-13.36,5.45-19.6c0.75-2.46,4.26-2.45,4.98,0.02
			c1.81,6.22,3.53,12.75,5.13,19.58c3.26,13.94,5.48,27.06,7,39.16H400.7z"/>
		<path class="st18" d="M49,246.59c1.4-9.55,3.35-19.85,6.08-30.76c1.34-5.36,2.78-10.49,4.28-15.39c0.59-1.93,3.35-1.92,3.91,0.02
			c1.42,4.89,2.78,10.02,4.03,15.38c2.56,10.95,4.31,21.25,5.5,30.76H49z"/>
		<path class="st18" d="M6.95,254.52c1.4-9.55,3.35-19.85,6.08-30.76c1.34-5.36,2.78-10.49,4.28-15.39
			c0.59-1.93,3.35-1.92,3.91,0.02c1.42,4.89,2.78,10.02,4.03,15.38c2.56,10.95,4.31,21.25,5.5,30.76H6.95z"/>
		<path class="st19" d="M39.85,216.8c-3.48-0.07-6.52,1.72-8.23,4.42c-0.67,1.06-1.99,1.42-3.11,0.88c-1.14-0.55-2.42-0.84-3.77-0.8
			c-3.43,0.1-6.3,2.3-7.42,5.33c-0.32,0.85-1.18,1.41-2.07,1.19c-0.92-0.23-1.91-0.27-2.93-0.09c-3,0.55-5.32,3.14-5.56,6.18
			c-0.32,4.14,2.99,7.53,7.03,7.42c3.15-0.09,5.74-2.29,6.46-5.21c1.39,0.99,3.11,1.56,4.95,1.51c3.33-0.09,6.14-2.18,7.33-5.08
			c1.8,2.04,4.45,3.29,7.38,3.21c5.36-0.15,9.56-4.72,9.19-10.13C48.77,220.8,44.69,216.91,39.85,216.8z"/>
		<path class="st18" d="M351.05,264.07c-1.62-0.15-3.19-0.06-4.69,0.23c-1.78,0.35-3.63-0.33-4.72-1.77
			c-3.01-3.97-7.77-6.54-13.13-6.54c-0.67,0-1.33,0.04-1.97,0.12c-2.37,0.28-4.55-1.14-5.24-3.42c-2.06-6.77-8.34-11.69-15.78-11.69
			c-0.19,0-0.37,0-0.55,0.01c-2.02,0.07-3.87-1.11-4.64-2.98c-1.03-2.49-2.97-4.6-5.57-5.73c-3.62-1.59-7.58-1.02-10.54,1.09
			c-1.15,0.82-2.68,0.6-3.61-0.44c-0.95-1.07-2.17-1.93-3.6-2.47c-3.63-1.38-7.58-0.32-10.07,2.37c-0.7,0.76-1.85,0.97-2.68,0.35
			c-0.86-0.64-1.88-1.11-3.03-1.35c-3.38-0.72-6.93,0.98-8.49,4.06c-2.13,4.19-0.12,9.18,4.15,10.8c1.94,0.74,4,0.64,5.77-0.11
			l-0.64,6.19l20.75,2.14l0.5-4.81c0.96,0.86,2.07,1.57,3.34,2.05c1.01,0.39,2.05,0.6,3.08,0.67c-0.82,2.79-0.96,5.88-0.07,9.1
			c1.75,6.36,7.27,11.13,13.81,11.94c3.07,0.38,6-0.1,8.59-1.21c0.09,9.04,7.43,16.34,16.49,16.34c2.2,0,4.29-0.44,6.21-1.22
			c2.69,5.46,8.29,9.22,14.79,9.22c9.32,0,16.83-7.73,16.49-17.12C365.69,271.7,359.2,264.83,351.05,264.07z"/>
		<path class="st19" d="M210.23,245.54c-3.61-1.58-7.56-1.02-10.52,1.07c-1.16,0.82-2.69,0.63-3.64-0.43
			c-0.95-1.07-2.17-1.93-3.6-2.47c-3.63-1.38-7.58-0.32-10.07,2.37c-0.7,0.76-1.85,0.97-2.68,0.35c-0.86-0.64-1.88-1.11-3.03-1.35
			c-3.38-0.72-6.93,0.98-8.49,4.06c-2.13,4.19-0.12,9.18,4.15,10.8c1.94,0.74,4,0.64,5.77-0.11l-0.64,6.19l20.75,2.14l0.5-4.81
			c0.96,0.86,2.07,1.57,3.34,2.05c5.67,2.16,12.04-0.82,13.99-6.63C217.84,253.58,215.25,247.73,210.23,245.54z"/>
		<g>
			<path class="st20" d="M161.51,229l-7.41,11.11c-0.37,0.56-1,0.89-1.66,0.89h-13.93v35h15h16v-35L161.51,229z"/>
			<rect x="138.51" y="241" class="st4" width="13" height="35"/>
			<path class="st21" d="M136.61,241h15.84c0.67,0,1.29-0.33,1.66-0.89l6.61-9.92c0.38-0.57,1.21-0.57,1.59,0l7.21,10.81h1.75
				c0.53,0,0.84-0.59,0.54-1.03l-9.87-14.36c-0.26-0.38-0.7-0.61-1.17-0.61h-14.66c-0.37,0-0.71,0.19-0.91,0.5l-9.11,14.57
				C135.84,240.48,136.13,241,136.61,241z"/>
			<path class="st14" d="M161.2,249h-1.37c-0.45,0-0.81-0.36-0.81-0.81v-2.69c0-0.83,0.67-1.5,1.5-1.5l0,0c0.83,0,1.5,0.67,1.5,1.5
				v2.69C162.01,248.64,161.65,249,161.2,249z"/>
			<rect x="138.51" y="241" class="st20" width="15" height="3"/>
		</g>
		<g>
			<path class="st4" d="M200,219l7.41,11.11c0.37,0.56,1,0.89,1.66,0.89h28.12v35H208h-16v-35L200,219z"/>
			<polygon class="st20" points="192,235 202,221 200,218 192,231 			"/>
			<rect x="210" y="231" transform="matrix(-1 2.149069e-11 -2.149069e-11 -1 447 497)" class="st20" width="27" height="35"/>
			<path class="st21" d="M239.09,231h-30.02c-0.67,0-1.29-0.33-1.66-0.89l-6.61-9.92c-0.38-0.57-1.21-0.57-1.59,0L192,231h-1.75
				c-0.53,0-0.84-0.59-0.54-1.03l9.87-14.36c0.26-0.38,0.7-0.61,1.17-0.61h28.85c0.37,0,0.71,0.19,0.91,0.5l9.11,14.57
				C239.86,230.48,239.57,231,239.09,231z"/>
			<path class="st20" d="M200.72,239h1.37c0.45,0,0.81-0.36,0.81-0.81v-2.69c0-0.83-0.67-1.5-1.5-1.5l0,0c-0.83,0-1.5,0.67-1.5,1.5
				v2.69C199.91,238.64,200.27,239,200.72,239z"/>
		</g>
		<g>
			
				<rect x="244" y="241" transform="matrix(-1 2.631305e-11 -2.631305e-11 -1 508.1854 514)" class="st20" width="20.19" height="32"/>
			<rect x="219" y="241" class="st4" width="25" height="32"/>
		</g>
		<path class="st19" d="M220.1,258.89c-3-1.96-6.63-2.04-9.6-0.61c-1.16,0.56-2.51,0.16-3.2-0.93c-0.7-1.1-1.66-2.05-2.86-2.76
			c-3.05-1.78-6.76-1.42-9.39,0.62c-0.74,0.57-1.8,0.59-2.45-0.08c-0.68-0.7-1.52-1.28-2.51-1.67c-2.93-1.15-6.36-0.15-8.23,2.38
			c-2.53,3.44-1.48,8.22,2.11,10.31c1.64,0.95,3.49,1.17,5.2,0.76l-1.49,5.46l18.31,5.02l1.16-4.24c0.73,0.91,1.63,1.72,2.7,2.34
			c4.77,2.78,10.93,1.07,13.55-3.86C225.72,267.24,224.27,261.61,220.1,258.89z"/>
		<path class="st19" d="M154.82,260.95c-0.47-4.34-4-7.86-8.34-8.33c-1.67-0.18-3.26,0.08-4.68,0.67c-1.01,0.42-2.19,0.21-2.93-0.61
			c-2.29-2.56-5.66-4.14-9.4-4c-1.62,0.06-3.17,0.46-4.58,1.13c-3.19,1.52-6.88,1.42-9.89-0.43c-3.5-2.15-7.61-3.39-12.01-3.39
			c-2.22,0-4.36,0.32-6.39,0.9c-3.23,0.93-6.65,0.21-9.28-1.89C83.4,241.88,78.42,240,73,240c-0.02,0-0.05,0-0.07,0
			c-3.76,0.01-7.33-1.77-9.3-4.98C59.59,228.41,52.31,224,44,224c-8.5,0-15.92,4.61-19.9,11.47c-3.29-1.24-6.93-1.75-10.74-1.32
			c-5.17,0.58-9.81,2.93-13.36,6.39v32.98c4.14,4.01,9.78,6.48,16,6.48c3.05,0,5.96-0.6,8.63-1.68C27.03,288.46,36.13,296,47,296
			c8.27,0,15.52-4.37,19.57-10.92c2.04,0.59,4.2,0.92,6.43,0.92c4.24,0,8.22-1.15,11.63-3.16C88.83,288.4,95.49,292,103,292
			c11.71,0,21.37-8.75,22.81-20.07c1.29,0.48,2.68,0.75,4.14,0.75c3.52,0,6.68-1.53,8.88-3.94c1.7,1.67,4.04,2.71,6.61,2.71
			C151,271.45,155.44,266.64,154.82,260.95z"/>
		<path class="st19" d="M298.24,252c-0.56-0.01-1.11,0.02-1.65,0.09c-2.07,0.27-4.05-0.71-5.06-2.54c-1.96-3.56-5.67-6.08-9.91-6.29
			c-4.41-0.22-8.33,1.95-10.58,5.33c-0.87,1.31-2.56,1.7-3.95,0.97c-1.42-0.74-3.04-1.15-4.75-1.15c-4.34,0-8.05,2.68-9.58,6.48
			c-0.43,1.07-1.55,1.74-2.66,1.43c-1.15-0.32-2.4-0.42-3.7-0.21c-3.82,0.59-6.85,3.78-7.26,7.62c-0.56,5.23,3.52,9.64,8.63,9.64
			c3.99,0,7.34-2.7,8.36-6.36c1.73,1.3,3.87,2.08,6.21,2.08c4.22,0,7.85-2.54,9.45-6.16c2.2,2.64,5.51,4.32,9.22,4.32
			c2.3,0,4.45-0.66,6.27-1.79c1.12,4.89,5.49,8.54,10.71,8.54c5.94,0,10.77-4.7,10.99-10.59C309.22,257.37,304.29,252.13,298.24,252
			z"/>
		<path class="st21" d="M500,397V269l-25.13,11.11c-16.9,7.48-36.35,6.5-52.42-2.63l0,0c-11.92-6.77-25.84-9.13-39.33-6.66
			l-31.47,5.76c-12.12,2.22-24.64,0.54-35.75-4.79L308,268l-15.95-7.98c-10.1-5.05-21.99-5.05-32.09,0L252,264
			c-5.26,2.63-11.07,4-16.95,4h-19.61c-4.86,0-9.62-1.37-13.74-3.94l-6.63-4.14c-12.01-7.51-26.84-8.95-40.07-3.91L92,280
			c-14.96,5.2-31.17,5.63-46.39,1.22L0,268v129"/>
		<path class="st22" d="M6,276.92l45.61,13.22c15.22,4.41,31.43,3.98,46.39-1.22l62.99-24c13.23-5.04,28.06-3.59,40.07,3.91
			l6.63,4.14c4.12,2.58,8.88,3.94,13.74,3.94h19.61c5.88,0,11.69-1.37,16.95-4l7.95-3.98c10.1-5.05,21.99-5.05,32.09,0l15.95,7.98
			l7.9,3.79c11.11,5.33,23.63,7.01,35.75,4.79l31.47-5.76c13.48-2.47,27.41-0.11,39.33,6.66l0,0c16.07,9.13,35.52,10.11,52.42,2.63
			l19.13-8.46v-11.61l-25.13,11.11c-16.9,7.48-36.35,6.5-52.42-2.63l0,0c-11.92-6.77-25.84-9.13-39.33-6.66l-31.47,5.76
			c-12.12,2.22-24.64,0.54-35.75-4.79l-7.9-3.79l-15.95-7.98c-10.1-5.05-21.99-5.05-32.09,0l-7.95,3.98c-5.26,2.63-11.07,4-16.95,4
			h-19.61c-4.86,0-9.62-1.37-13.74-3.94l-6.63-4.14c-12.01-7.51-26.84-8.95-40.07-3.91l-62.99,24c-14.96,5.2-31.17,5.63-46.39,1.22
			L0,267.96v7.26L6,276.92z"/>
		<path class="st23" d="M201.69,264h31.2c10.55,0,19.11,8.55,19.11,19.11V328h-16v-40.89c0-10.55-8.55-19.11-19.11-19.11h-1.42
			C210.59,268,205.81,266.61,201.69,264L201.69,264z"/>
		<path class="st16" d="M235.39,264h-4c10.55,0,19.11,8.55,19.11,19.11V328h4v-44.89C254.5,272.55,245.95,264,235.39,264z"/>
		<path class="st24" d="M220,268h-4c10.55,0,19.11,8.55,19.11,19.11V328h4v-40.89C239.11,276.55,230.55,268,220,268z"/>
		<path class="st14" d="M312,276H88H0v15.08c2.45,2.19,4,5.37,4,8.92v97h8v-96.6c0-6.61,5.17-12.28,11.78-12.4
			c6.73-0.12,12.22,5.3,12.22,12v97h8v-97c0-6.63,5.37-12,12-12s12,5.37,12,12v97h8v-97c0-6.63,5.37-12,12-12s12,5.37,12,12v97h8
			v-97c0-6.63,5.37-12,12-12s12,5.37,12,12v97h8v-96.6c0-6.61,5.17-12.28,11.78-12.4c6.73-0.12,12.22,5.3,12.22,12v97h8v-96.6
			c0-6.61,5.17-12.28,11.78-12.4c6.73-0.12,12.22,5.3,12.22,12v97h8v-96.6c0-6.61,5.17-12.28,11.78-12.4
			c6.73-0.12,12.22,5.3,12.22,12v97h8v-96.6c0-6.61,5.17-12.28,11.78-12.4c6.73-0.12,12.22,5.3,12.22,12v97h8v-97
			c0-6.63,5.37-12,12-12s12,5.37,12,12v97h8v-97c0-6.63,5.37-12,12-12s12,5.37,12,12v97h8v-97c0-6.63,5.37-12,12-12s12,5.37,12,12
			v97h8v-96.6c0-6.61,5.17-12.28,11.78-12.4c6.73-0.12,12.22,5.3,12.22,12v97h8v-96.6c0-6.61,5.17-12.28,11.78-12.4
			c6.73-0.12,12.22,5.3,12.22,12v97h8v-96.6c0-6.61,5.17-12.28,11.78-12.4c6.73-0.12,12.22,5.3,12.22,12v97h8v-96.6
			c0-6.61,5.17-12.28,11.78-12.4c6.73-0.12,12.22,5.3,12.22,12v97h8v-97v-24H312z"/>
		<path class="st20" d="M320,276H96H0v12.01c6.63,0,12,5.36,12,11.99v97h8v-96.6c0-6.61,5.17-12.28,11.78-12.4
			c6.73-0.12,12.22,5.3,12.22,12v97h8v-97c0-6.63,5.37-12,12-12s12,5.37,12,12v97h8v-97c0-6.63,5.37-12,12-12s12,5.37,12,12v97h8
			v-97c0-6.63,5.37-12,12-12s12,5.37,12,12v97h8v-96.6c0-6.61,5.17-12.28,11.78-12.4c6.73-0.12,12.22,5.3,12.22,12v97h8v-96.6
			c0-6.61,5.17-12.28,11.78-12.4c6.73-0.12,12.22,5.3,12.22,12v97h8v-96.6c0-6.61,5.17-12.28,11.78-12.4
			c6.73-0.12,12.22,5.3,12.22,12v97h8v-96.6c0-6.61,5.17-12.28,11.78-12.4c6.73-0.12,12.22,5.3,12.22,12v97h8v-97
			c0-6.63,5.37-12,12-12s12,5.37,12,12v97h8v-97c0-6.63,5.37-12,12-12s12,5.37,12,12v97h8v-97c0-6.63,5.37-12,12-12s12,5.37,12,12
			v97h8v-96.6c0-6.61,5.17-12.28,11.78-12.4c6.73-0.12,12.22,5.3,12.22,12v97h8v-96.6c0-6.61,5.17-12.28,11.78-12.4
			c6.73-0.12,12.22,5.3,12.22,12v97h8v-96.6c0-6.61,5.17-12.28,11.78-12.4c6.73-0.12,12.22,5.3,12.22,12v97h8v-96.6
			c0-6.61,5.17-12.28,11.78-12.4c6.73-0.12,12.22,5.3,12.22,12v97h8v-97v-24H320z"/>
		<rect y="279" class="st14" width="500" height="3"/>
		<path class="st20" d="M226.81,256h1.37c0.45,0,0.81-0.36,0.81-0.81v-2.69c0-0.83-0.67-1.5-1.5-1.5l0,0c-0.83,0-1.5,0.67-1.5,1.5
			v2.69C226,255.64,226.36,256,226.81,256z"/>
		<path class="st20" d="M234.81,256h1.37c0.45,0,0.81-0.36,0.81-0.81v-2.69c0-0.83-0.67-1.5-1.5-1.5l0,0c-0.83,0-1.5,0.67-1.5,1.5
			v2.69C234,255.64,234.36,256,234.81,256z"/>
		<path class="st22" d="M217.68,239.79l21.48-15.46c1.11-0.8,2.6-0.81,3.72-0.03l22.37,15.49c0.54,0.37,0.27,1.21-0.38,1.21h-46.8
			C217.42,241,217.15,240.17,217.68,239.79z"/>
		<rect x="217" y="241" class="st20" width="43" height="3"/>
		<path class="st22" d="M262.41,261.5h-0.83c-0.32,0-0.59-0.26-0.59-0.59v-4.83c0-0.32,0.26-0.59,0.59-0.59h0.83
			c0.32,0,0.59,0.26,0.59,0.59v4.83C263,261.24,262.74,261.5,262.41,261.5z"/>
		<path class="st22" d="M185.41,257.5h-0.83c-0.32,0-0.59-0.26-0.59-0.59v-4.83c0-0.32,0.26-0.59,0.59-0.59h0.83
			c0.32,0,0.59,0.26,0.59,0.59v4.83C186,257.24,185.74,257.5,185.41,257.5z"/>
		<path class="st22" d="M139.5,264.5h-1c-0.28,0-0.5-0.22-0.5-0.5v-5c0-0.28,0.22-0.5,0.5-0.5h1c0.28,0,0.5,0.22,0.5,0.5v5
			C140,264.28,139.78,264.5,139.5,264.5z"/>
		<path class="st22" d="M143.5,262.5h-1c-0.28,0-0.5-0.22-0.5-0.5v-5c0-0.28,0.22-0.5,0.5-0.5h1c0.28,0,0.5,0.22,0.5,0.5v5
			C144,262.28,143.78,262.5,143.5,262.5z"/>
		<path class="st22" d="M266.41,259.5h-0.83c-0.32,0-0.59-0.26-0.59-0.59v-4.83c0-0.32,0.26-0.59,0.59-0.59h0.83
			c0.32,0,0.59,0.26,0.59,0.59v4.83C267,259.24,266.74,259.5,266.41,259.5z"/>
		<path class="st14" d="M168.21,282.71l2.17,2.17c0.35,0.35,0.9,0.35,1.25,0l1.5-1.5c0.35-0.35,0.9-0.35,1.25,0l0,0
			c0.35,0.35,0.9,0.35,1.25,0l0.67-0.67c0.45-0.45,1.06-0.71,1.7-0.71h2v-1.5h-15v1.5h1.5C167.14,282,167.75,282.25,168.21,282.71z"
			/>
		<path class="st14" d="M235,282h3.24c0.49,0,0.95,0.19,1.3,0.54l1.91,1.91c0.44,0.44,1.16,0.44,1.61,0l1.91-1.91
			c0.34-0.34,0.81-0.54,1.3-0.54H251v-1.5h-16V282z"/>
		<path class="st21" d="M265.25,239.79l-22.37-15.49c-0.16-0.11-0.33-0.2-0.5-0.28c-0.05-0.02-0.1-0.04-0.16-0.06
			c-0.13-0.05-0.25-0.09-0.39-0.13c-0.06-0.01-0.11-0.03-0.17-0.04c-0.14-0.03-0.27-0.04-0.41-0.05c-0.05,0-0.09-0.01-0.14-0.01
			c-0.18,0-0.37,0-0.55,0.03c0,0,0,0,0,0l1.94,9.69c0.57,2.87-1.62,5.54-4.55,5.54h-19.17l-1.1,0.79c-0.52,0.38-0.26,1.21,0.39,1.21
			H244h1.5h19.37C265.52,241,265.78,240.16,265.25,239.79z"/>
		<path class="st19" d="M128.33,233h-0.66c-0.37,0-0.67-0.3-0.67-0.67v-0.66c0-0.37,0.3-0.67,0.67-0.67h0.66
			c0.37,0,0.67,0.3,0.67,0.67v0.66C129,232.7,128.7,233,128.33,233z"/>
		<path class="st22" d="M174.33,270h-0.66c-0.37,0-0.67-0.3-0.67-0.67v-0.66c0-0.37,0.3-0.67,0.67-0.67h0.66
			c0.37,0,0.67,0.3,0.67,0.67v0.66C175,269.7,174.7,270,174.33,270z"/>
		<path class="st22" d="M279.33,273h-0.66c-0.37,0-0.67-0.3-0.67-0.67v-0.66c0-0.37,0.3-0.67,0.67-0.67h0.66
			c0.37,0,0.67,0.3,0.67,0.67v0.66C280,272.7,279.7,273,279.33,273z"/>
		<path class="st22" d="M219.33,305h-0.66c-0.37,0-0.67-0.3-0.67-0.67v-0.66c0-0.37,0.3-0.67,0.67-0.67h0.66
			c0.37,0,0.67,0.3,0.67,0.67v0.66C220,304.7,219.7,305,219.33,305z"/>
		<path class="st22" d="M182.33,273h-0.66c-0.37,0-0.67-0.3-0.67-0.67v-0.66c0-0.37,0.3-0.67,0.67-0.67h0.66
			c0.37,0,0.67,0.3,0.67,0.67v0.66C183,272.7,182.7,273,182.33,273z"/>
		<rect x="15" y="230" class="st19" width="30" height="15"/>
		<g>
			<path class="st25" d="M270.82,312.02c-5.25-0.26-9.91,2.31-12.61,6.32c-1.05,1.57-3.06,2.06-4.74,1.19
				c-1.7-0.88-3.62-1.37-5.66-1.37c-5.25,0-9.72,3.28-11.5,7.9c-0.48,1.25-1.87,1.87-3.16,1.52c-1.36-0.37-2.83-0.48-4.36-0.24
				c-3.46,0.54-6.4,3.09-7.82,6.3c-0.57,1.29-2.12,1.72-3.29,0.93c-1.84-1.23-4.06-1.88-6.35-1.74c-1.54,0.1-2.96,0.51-4.2,1.17
				c-1.18,0.62-2.68,0.31-3.41-0.8c-2.73-4.13-7.8-6.38-12.93-5.25c-1.99,0.44-3.77,1.34-5.24,2.56c-1.45,1.21-3.52,1.16-4.88-0.15
				c-3.73-3.57-9.31-5.05-14.72-3.14c-6.15,2.17-10.11,8.45-9.41,14.94c0.92,8.64,9.07,14.34,17.32,12.52
				c4.32-0.95,7.75-3.76,9.64-7.4c2.8,3.82,7.68,5.84,12.6,4.76c2.72-0.6,5.02-2.06,6.7-4.02c2.12,4.01,6.72,6.29,11.37,5.27
				c4.59-1.01,7.78-4.92,8.1-9.37c1.9,2.44,4.85,4.01,8.17,4.01c4.76,0,8.76-3.22,9.98-7.59c2.06,1.55,4.62,2.49,7.4,2.49
				c5.04,0,9.36-3.03,11.28-7.35c2.63,3.15,6.58,5.16,11,5.16c8.1,0,14.63-6.72,14.31-14.9
				C284.11,318.44,278.12,312.38,270.82,312.02z"/>
			<path class="st26" d="M153.08,397h135.9v-66.8c-0.43-7.17-6.36-13.05-13.54-13.41c-5.26-0.27-9.93,2.31-12.63,6.32
				c-1.05,1.57-3.06,2.06-4.74,1.19c-1.7-0.88-3.62-1.37-5.66-1.37c-5.25,0-9.72,3.28-11.5,7.9c-0.47,1.23-1.85,1.88-3.12,1.53
				c-1.44-0.4-3-0.5-4.62-0.21c-3.44,0.61-6.37,3.02-7.71,6.25c-0.23,0.55-0.4,1.1-0.53,1.64c-0.52,2.24-2.4,3.9-4.69,3.9h-0.12
				c-1.41,0-2.75-0.63-3.65-1.71c-2.07-2.48-5.26-3.95-8.58-3.74c-1.54,0.1-2.96,0.51-4.2,1.17c-1.18,0.62-2.68,0.31-3.41-0.8
				c-2.73-4.13-7.8-6.38-12.93-5.25c-1.99,0.44-3.77,1.34-5.24,2.56c-1.45,1.21-3.52,1.16-4.88-0.15
				c-3.73-3.57-9.31-5.05-14.72-3.14c-6.15,2.17-10.11,8.45-9.41,14.94V397z"/>
		</g>
	</g>
</g>
<g id="_x31_1_00000031209085476423013220000010579698211204677507_">
</g>
<g id="_x31_2">
</g>
<g id="Full_Illustration">
</g>
<g id="Cropping_Guide">
</g>
</svg>
