<?xml version="1.0" encoding="utf-8"?>
<!-- Generator: Adobe Illustrator 26.0.2, SVG Export Plug-In . SVG Version: 6.00 Build 0)  -->
<svg version="1.1" xmlns="http://www.w3.org/2000/svg" xmlns:xlink="http://www.w3.org/1999/xlink" x="0px" y="0px"
	 viewBox="0 0 500 375" style="enable-background:new 0 0 500 375;" xml:space="preserve">
<style type="text/css">
	.st0{fill:#FFEAD7;}
	.st1{opacity:0.5;fill:#FFDFC2;}
	.st2{fill:#FFFFFF;}
	.st3{opacity:0.5;fill:#FFDCB8;}
	.st4{fill:#FFF5EF;}
	.st5{fill:#FFDCB8;}
	.st6{fill:#FFCE99;}
	.st7{fill:#FFDFC2;}
	.st8{fill:#FFDBBD;}
	.st9{fill:#FFC483;}
	.st10{fill:#FFB776;}
	.st11{fill:#FFCBA4;}
	.st12{fill:#E89D6B;}
	.st13{fill:#DD9268;}
	.st14{fill:#E58373;}
	.st15{fill:#E0F2DF;}
	.st16{fill:#CAEACA;}
	.st17{fill:none;}
	.st18{fill:#C67466;}
	.st19{fill:#AC655F;}
	.st20{fill:#FFB187;}
	.st21{fill:#8D4B61;}
	.st22{fill:#9C555F;}
	.st23{fill:#AAE2AA;}
	.st24{fill:#79CCAA;}
	.st25{fill:#662E55;}
	.st26{fill:#5B2950;}
	.st27{fill:#32253F;}
	.st28{fill:#2B1B37;}
	.st29{fill:#382A44;}
	.st30{opacity:0.05;fill:#FFFFFF;}
	.st31{fill:#4A1E45;}
	.st32{fill:#56435D;}
	.st33{fill:#7F3B59;}
	.st34{fill:#B2836F;}
	.st35{fill:#4D3E54;}
	.st36{fill:#614B63;}
	.st37{opacity:0.7;fill:#49BA9C;}
	.st38{fill:#3B123E;}
	.st39{fill:#A4DDC8;}
	.st40{fill:#250C33;}
	.st41{fill:#300F39;}
	.st42{fill:#190128;}
	.st43{fill:#35F200;}
	.st44{fill:#0058F4;}
</style>
<g id="_x31_">
</g>
<g id="_x32_">
</g>
<g id="_x33_">
</g>
<g id="_x34__1_">
</g>
<g id="_x35__00000068650285933184752780000010330952612633446584_">
</g>
<g id="_x36_">
	<g>
		<polygon class="st7" points="36.28,125 38.28,125 40.28,185 34.28,185 		"/>
		<polygon class="st7" points="429.28,123.68 431.28,123.68 433.28,183.68 427.28,183.68 		"/>
		<polygon class="st7" points="448.59,131 450.59,131 452.59,191 446.59,191 		"/>
		<path class="st10" d="M343.5,167.59c0.78-5.33,1.87-11.09,3.4-17.19c0.75-2.99,1.55-5.86,2.39-8.6c0.33-1.08,1.87-1.07,2.18,0.01
			c0.79,2.73,1.55,5.6,2.25,8.59c1.43,6.12,2.41,11.88,3.07,17.19H343.5z"/>
		<path class="st9" d="M350.7,172c0.78-5.33,1.87-11.09,3.4-17.19c0.75-2.99,1.55-5.86,2.39-8.6c0.33-1.08,1.87-1.07,2.18,0.01
			c0.79,2.73,1.55,5.6,2.25,8.59c1.43,6.12,2.41,11.88,3.07,17.19H350.7z"/>
		<path class="st9" d="M187,148.91c0.78-5.33,1.87-11.09,3.4-17.19c0.75-2.99,1.55-5.86,2.39-8.6c0.33-1.08,1.87-1.07,2.18,0.01
			c0.79,2.73,1.55,5.6,2.25,8.59c1.43,6.12,2.41,11.88,3.07,17.19H187z"/>
		<path class="st10" d="M193.5,154c0.78-5.33,1.87-11.09,3.4-17.19c0.75-2.99,1.55-5.86,2.39-8.6c0.33-1.08,1.87-1.07,2.18,0.01
			c0.79,2.73,1.55,5.6,2.25,8.59c1.43,6.12,2.41,11.88,3.07,17.19H193.5z"/>
		<path class="st9" d="M458.7,158.59c0.78-5.33,1.87-11.09,3.4-17.19c0.75-2.99,1.55-5.86,2.39-8.6c0.33-1.08,1.87-1.07,2.18,0.01
			c0.79,2.73,1.55,5.6,2.25,8.59c1.43,6.12,2.41,11.88,3.07,17.19H458.7z"/>
		<path class="st9" d="M480.5,153.5c0.78-5.33,1.87-11.09,3.4-17.19c0.75-2.99,1.55-5.86,2.39-8.6c0.33-1.08,1.87-1.07,2.18,0.01
			c0.79,2.73,1.55,5.6,2.25,8.59c1.43,6.12,2.41,11.88,3.07,17.19H480.5z"/>
		<path class="st9" d="M472.7,148.09c0.78-5.33,1.87-11.09,3.4-17.19c0.75-2.99,1.55-5.86,2.39-8.6c0.33-1.08,1.87-1.07,2.18,0.01
			c0.79,2.73,1.55,5.6,2.25,8.59c1.43,6.12,2.41,11.88,3.07,17.19H472.7z"/>
		<path class="st9" d="M7.7,160.59c0.78-5.33,1.87-11.09,3.4-17.19c0.75-2.99,1.55-5.86,2.39-8.6c0.33-1.08,1.87-1.07,2.18,0.01
			c0.79,2.73,1.55,5.6,2.25,8.59c1.43,6.12,2.41,11.88,3.07,17.19H7.7z"/>
		<path class="st9" d="M46.7,163c0.78-5.33,1.87-11.09,3.4-17.19c0.75-2.99,1.55-5.86,2.39-8.6c0.33-1.08,1.87-1.07,2.18,0.01
			c0.79,2.73,1.55,5.6,2.25,8.59c1.43,6.12,2.41,11.88,3.07,17.19H46.7z"/>
		<path class="st9" d="M15.5,165.09c0.78-5.33,1.87-11.09,3.4-17.19c0.75-2.99,1.55-5.86,2.39-8.6c0.33-1.08,1.87-1.07,2.18,0.01
			c0.79,2.73,1.55,5.6,2.25,8.59c1.43,6.12,2.41,11.88,3.07,17.19H15.5z"/>
		<path class="st10" d="M138.12,155.28c-2.86-1.77-6.28-1.8-9.06-0.42c-1.09,0.55-2.41,0.16-3.07-0.87
			c-0.68-1.03-1.6-1.93-2.75-2.58c-2.97-1.69-6.56-1.27-9.05,0.78c-0.67,0.55-1.63,0.47-2.23-0.14c-0.78-0.79-1.79-1.41-3-1.76
			c-2.22-0.63-4.68-0.04-6.36,1.55c-0.66,0.63-1.15,1.32-1.5,2.06c-0.34,0.72-1.1,1.16-1.89,1.11c-0.23-0.01-0.47-0.02-0.71-0.02
			c-6.94,0-12.56,5.65-12.5,12.6c0.05,6.18,4.82,11.52,10.95,12.3c2.01,0.26,3.92,0,5.67-0.61c2.59,2.62,6.33,4.1,10.4,3.62
			c5.56-0.66,10.08-5.09,10.86-10.63c0.34-2.43-0.03-4.74-0.92-6.78c0.38-0.2,0.75-0.42,1.1-0.67c0.47,2.62,2.06,5.03,4.56,6.45
			c4.58,2.6,10.43,0.9,12.87-3.82C143.6,163.37,142.04,157.7,138.12,155.28z"/>
		<path class="st10" d="M60.78,154.84c-2.88-1.83-6.35-1.88-9.16-0.48c-1.1,0.55-2.39,0.18-3.06-0.85c-0.68-1.04-1.6-1.94-2.76-2.6
			c-2.93-1.67-6.46-1.28-8.94,0.69c-0.7,0.56-1.71,0.58-2.34-0.05c-0.65-0.66-1.46-1.2-2.41-1.56c-2.8-1.06-6.07-0.08-7.82,2.35
			c-2.38,3.31-1.32,7.85,2.12,9.81c2.69,1.53,5.99,1,8.08-1.08c0.67,1.54,1.81,2.89,3.39,3.79c2.85,1.62,6.26,1.3,8.74-0.53
			c0.47,2.62,2.06,5.03,4.56,6.45c4.58,2.6,10.43,0.9,12.87-3.82C66.22,162.74,64.78,157.39,60.78,154.84z"/>
		<path class="st10" d="M408.78,162.77c-2.88-1.83-6.35-1.88-9.16-0.48c-1.1,0.55-2.39,0.18-3.06-0.85c-0.68-1.04-1.6-1.94-2.76-2.6
			c-2.93-1.67-6.46-1.28-8.94,0.69c-0.7,0.56-1.71,0.58-2.34-0.05c-0.65-0.66-1.46-1.2-2.41-1.56c-2.8-1.06-6.07-0.08-7.82,2.35
			c-2.38,3.31-1.32,7.85,2.12,9.81c2.69,1.53,5.99,1,8.08-1.08c0.67,1.54,1.81,2.89,3.39,3.79c2.85,1.62,6.26,1.3,8.74-0.53
			c0.47,2.62,2.06,5.03,4.56,6.45c4.58,2.6,10.43,0.9,12.87-3.82C414.22,170.67,412.78,165.32,408.78,162.77z"/>
		<path class="st10" d="M452.6,148.05c2.71-2.09,6.15-2.44,9.08-1.3c1.15,0.45,2.4-0.03,2.97-1.12c0.58-1.1,1.42-2.08,2.51-2.83
			c2.77-1.92,6.32-1.85,8.97-0.11c0.75,0.49,1.76,0.43,2.33-0.26c0.59-0.72,1.35-1.33,2.26-1.77c2.7-1.31,6.04-0.62,8,1.64
			c2.67,3.08,2.02,7.7-1.24,9.96c-2.54,1.77-5.87,1.53-8.14-0.36c-0.53,1.6-1.55,3.04-3.03,4.07c-2.69,1.87-6.12,1.86-8.75,0.25
			c-0.23,2.66-1.6,5.19-3.96,6.83c-4.33,3-10.31,1.83-13.16-2.65C447.88,156.41,448.83,150.95,452.6,148.05z"/>
		<path class="st10" d="M270.42,151.11c3.38-0.52,6.57,0.83,8.58,3.24c0.79,0.94,2.12,1.13,3.14,0.45c1.04-0.68,2.25-1.13,3.57-1.27
			c3.35-0.35,6.43,1.42,7.91,4.23c0.42,0.79,1.33,1.22,2.17,0.89c0.86-0.34,1.82-0.51,2.84-0.46c2.99,0.15,5.59,2.36,6.21,5.29
			c0.85,3.99-1.94,7.72-5.88,8.13c-3.08,0.32-5.88-1.49-6.96-4.24c-1.23,1.14-2.82,1.92-4.62,2.11c-3.26,0.34-6.26-1.32-7.79-3.99
			c-1.49,2.21-3.91,3.78-6.77,4.08c-5.24,0.55-9.91-3.36-10.26-8.67C262.26,156.16,265.73,151.84,270.42,151.11z"/>
		<path class="st9" d="M393.3,169.43l-10.42-4.57c-16.79-7.37-35.53-9.06-53.37-4.82l-10.07,2.39c-15.32,3.64-31.35,2.92-46.28-2.08
			l-45.23-15.15c-19.6-6.57-40.93-5.7-59.93,2.42l-21.14,9.04c-16.42,7.02-34.74,8.29-51.97,3.59l-13.05-3.56
			c-6.46-1.76-13.26-1.93-19.8-0.49l-10.46,2.31c-8.81,1.94-18.02,0.95-26.22-2.82L0,144v91h500v-97.5l-18.6,11.09
			c-6.4,3.82-13.93,5.26-21.29,4.09l-9.88-1.58c-10.24-1.64-20.65,1.58-28.18,8.7l-5.98,5.66C409.97,171.24,401,172.8,393.3,169.43z
			"/>
		<path class="st10" d="M393.3,177.93l-10.42-4.57c-16.79-7.37-35.53-9.06-53.37-4.82l-10.07,2.39
			c-15.32,3.64-31.35,2.92-46.28-2.08l-45.23-15.15c-19.6-6.57-40.93-5.7-59.93,2.42l-21.14,9.04c-16.42,7.02-34.74,8.29-51.97,3.59
			l-13.05-3.56c-6.46-1.76-13.26-1.93-19.8-0.49L51.58,167c-8.81,1.94-18.02,0.95-26.22-2.82L0,152.5V397h500V146l-18.6,11.09
			c-6.4,3.82-13.93,5.26-21.29,4.09l-9.88-1.58c-10.24-1.64-20.65,1.58-28.18,8.7l-5.98,5.66C409.97,179.74,401,181.3,393.3,177.93z
			"/>
		<path class="st9" d="M215.33,157h-0.66c-0.37,0-0.67-0.3-0.67-0.67v-0.66c0-0.37,0.3-0.67,0.67-0.67h0.66
			c0.37,0,0.67,0.3,0.67,0.67v0.66C216,156.7,215.7,157,215.33,157z"/>
		<path class="st9" d="M47.33,176h-0.66c-0.37,0-0.67-0.3-0.67-0.67v-0.66c0-0.37,0.3-0.67,0.67-0.67h0.66
			c0.37,0,0.67,0.3,0.67,0.67v0.66C48,175.7,47.7,176,47.33,176z"/>
		<path class="st9" d="M41.33,156h-0.66c-0.37,0-0.67-0.3-0.67-0.67v-0.66c0-0.37,0.3-0.67,0.67-0.67h0.66
			c0.37,0,0.67,0.3,0.67,0.67v0.66C42,155.7,41.7,156,41.33,156z"/>
		<path class="st9" d="M27.33,174h-0.66c-0.37,0-0.67-0.3-0.67-0.67v-0.66c0-0.37,0.3-0.67,0.67-0.67h0.66
			c0.37,0,0.67,0.3,0.67,0.67v0.66C28,173.7,27.7,174,27.33,174z"/>
		<path class="st11" d="M170.33,167h-0.66c-0.37,0-0.67-0.3-0.67-0.67v-0.66c0-0.37,0.3-0.67,0.67-0.67h0.66
			c0.37,0,0.67,0.3,0.67,0.67v0.66C171,166.7,170.7,167,170.33,167z"/>
		<path class="st9" d="M166.33,163h-0.66c-0.37,0-0.67-0.3-0.67-0.67v-0.66c0-0.37,0.3-0.67,0.67-0.67h0.66
			c0.37,0,0.67,0.3,0.67,0.67v0.66C167,162.7,166.7,163,166.33,163z"/>
		<path class="st11" d="M42.33,180h-0.66c-0.37,0-0.67-0.3-0.67-0.67v-0.66c0-0.37,0.3-0.67,0.67-0.67h0.66
			c0.37,0,0.67,0.3,0.67,0.67v0.66C43,179.7,42.7,180,42.33,180z"/>
		<path class="st4" d="M432.13,123.72l-0.71-9.82c-0.04-0.5-0.45-0.89-0.96-0.9h0c-0.5-0.01-0.93,0.38-0.98,0.88l-0.93,9.8l0,0
			l-8.14,5.55c-0.42,0.28-0.55,0.84-0.3,1.28l0,0c0.25,0.44,0.79,0.61,1.25,0.4l8.94-4.13l0,0.01l8.86,4.3
			c0.45,0.22,1,0.06,1.26-0.38v0c0.26-0.43,0.14-0.99-0.27-1.28L432.13,123.72L432.13,123.72z"/>
		<path class="st4" d="M39.2,124.11l3.23-9.3c0.17-0.48-0.06-1-0.52-1.2l0,0c-0.46-0.2-1-0.02-1.24,0.42l-4.73,8.64l0,0l-9.67,1.88
			c-0.49,0.1-0.83,0.56-0.78,1.06l0,0c0.05,0.5,0.48,0.88,0.99,0.86l9.84-0.25l-0.01,0l6.44,7.45c0.33,0.38,0.9,0.45,1.3,0.15l0,0
			c0.41-0.3,0.52-0.86,0.26-1.29L39.2,124.11L39.2,124.11z"/>
		<path class="st4" d="M450.02,134.13l8.38,1.26c0.43,0.06,0.84-0.21,0.94-0.63v0c0.1-0.42-0.14-0.85-0.55-0.98l-8.05-2.63l0,0
			l-3.12-7.88c-0.16-0.4-0.6-0.62-1.02-0.49h0c-0.42,0.13-0.66,0.55-0.57,0.97l1.77,8.28l0,0l-5.28,6.62
			c-0.27,0.34-0.24,0.83,0.08,1.13l0,0c0.32,0.3,0.81,0.3,1.13,0.01L450.02,134.13L450.02,134.13z"/>
		<path class="st9" d="M471.33,149h-0.66c-0.37,0-0.67-0.3-0.67-0.67v-0.66c0-0.37,0.3-0.67,0.67-0.67h0.66
			c0.37,0,0.67,0.3,0.67,0.67v0.66C472,148.7,471.7,149,471.33,149z"/>
	</g>
</g>
<g id="_x37_">
</g>
<g id="_x38_">
</g>
<g id="_x39__00000049217028608276070180000013554017633487154818_">
</g>
<g id="_x31_0_00000147915158777594467630000018299806147496965556_">
</g>
<g id="_x31_1_00000031209085476423013220000010579698211204677507_">
</g>
<g id="_x31_2">
</g>
<g id="Full_Illustration">
</g>
<g id="Cropping_Guide">
</g>
</svg>
