<?xml version="1.0" encoding="utf-8"?>
<!-- Generator: Adobe Illustrator 26.0.2, SVG Export Plug-In . SVG Version: 6.00 Build 0)  -->
<svg version="1.1" xmlns="http://www.w3.org/2000/svg" xmlns:xlink="http://www.w3.org/1999/xlink" x="0px" y="0px"
	 viewBox="0 0 320 1911" style="enable-background:new 0 0 320 1911;" xml:space="preserve">
<style type="text/css">
	.st0{fill:#190128;}
	.st1{fill:#98FF8F;}
	.st2{fill:#5B205C;}
	.st3{fill:#E3CF7F;}
	.st4{fill:#36114A;}
	.st5{opacity:0.5;fill:#FFFFFF;}
	.st6{fill:#1F032F;}
	.st7{fill:#260638;}
	.st8{opacity:0.25;fill:#FFF5EF;}
	.st9{fill:#FFF5EF;}
	.st10{fill:#521C57;}
	.st11{fill:#56577A;}
	.st12{opacity:0.5;fill:#9EEBCC;}
	.st13{opacity:0.75;fill:#FFF5EF;}
	.st14{opacity:0.75;fill:#C0E37F;}
	.st15{fill:#56888F;}
	.st16{fill:#C0E37F;}
	.st17{fill:#54A89C;}
	.st18{fill:#51C9A9;}
	.st19{opacity:0.5;fill:#FFF5EF;}
	.st20{fill:#9EEBCC;}
	.st21{fill:#8DD4BB;}
	.st22{fill:#B9D8C3;}
	.st23{opacity:0.75;fill:#FFFF8F;}
	.st24{fill:#CBDFCA;}
	.st25{opacity:0.15;fill:#FFF5EF;}
	.st26{opacity:0.25;fill:#C2A9C2;}
	.st27{fill:#C2A9C2;}
	.st28{fill:#81B8B3;}
	.st29{fill:#718FA1;}
	.st30{fill:#EAE3C7;}
	.st31{fill:#FAD8AC;}
	.st32{fill:#FFE6D5;}
	.st33{opacity:0.35;fill:#FFFFFF;}
	.st34{opacity:0.15;fill:#FFFFFF;}
	.st35{fill:#FFD1A1;}
	.st36{fill:#FFC483;}
	.st37{fill:#FFC98E;}
	.st38{fill:#FFD8BB;}
	.st39{opacity:0.5;}
	.st40{fill:#FFB776;}
	.st41{fill:#FFC183;}
	.st42{opacity:0.75;}
	.st43{fill:#EDA876;}
	.st44{fill:#E89D6B;}
	.st45{opacity:0.5;fill:#E89D6B;}
	.st46{fill:#FFFFFF;}
	.st47{fill:#E58373;}
	.st48{fill:#DD9268;}
	.st49{fill:#D68968;}
	.st50{fill:#FFCBA4;}
	.st51{fill:#C67466;}
	.st52{fill:#CAEACA;}
	.st53{fill:#E0F2DF;}
	.st54{fill:#BA6D61;}
	.st55{fill:#AC655F;}
	.st56{fill:#A45D5F;}
	.st57{fill:#FFB187;}
	.st58{fill:#8D4B61;}
	.st59{fill:#E08977;}
	.st60{fill:#9C555F;}
	.st61{fill:#56435D;}
	.st62{fill:#614B63;}
	.st63{fill:#7F3B59;}
	.st64{fill:#4D3E54;}
	.st65{fill:#32253F;}
	.st66{fill:#2B1B37;}
	.st67{fill:#5B2950;}
	.st68{fill:#4A1E45;}
	.st69{fill:#662E55;}
	.st70{fill:#382A44;}
	.st71{opacity:0.05;fill:#FFFFFF;}
	.st72{fill:#250C33;}
	.st73{fill:#300F39;}
	.st74{fill:#FF00CF;}
</style>
<g id="_x31_9__x28_Rest_of_Sky_x29_">
</g>
<g id="_x31_8__x28_Cloud_Layer_7_x29_">
</g>
<g id="_x31_7__x28_Cloud_Layer_6_x29_">
</g>
<g id="_x31_6__x28_Cloud_Layer_5_x29_">
</g>
<g id="_x31_5">
</g>
<g id="_x31_4">
</g>
<g id="_x31_3__x28_Cloud_Layer_4__x2B__Aircraft_x29_">
</g>
<g id="_x31_2_00000053541090334089295900000016410686384436047024_">
</g>
<g id="_x31_1__x28_Cloud_Layer_3__x2B__Higher_Birds_x29_">
</g>
<g id="_x31_0__x28__x2B__Nearby_Birds_x29_">
</g>
<g id="_x39___x28_Cloud_Layer_2_x29_">
</g>
<g id="_x38___x28__x2B__Nearby_Birds_x29_">
</g>
<g id="_x37___x28_Cloud_Layer_1_x29_">
</g>
<g id="_x36__00000068661700993368236970000009778035845983078308_">
</g>
<g id="_x35__00000078044523084173153740000012161118921027427980_">
</g>
<g id="_x34__00000014591708090884853300000012924613216120282812_">
</g>
<g id="_x33__00000150784116898789853780000012635840894519326891_">
</g>
<g id="_x32__00000155142127021454457340000001118262530934973368_">
	<g>
		<g>
			<path class="st58" d="M47.9,1754.9c1.4-9.55,3.35-19.85,6.08-30.76c1.34-5.36,2.78-10.49,4.28-15.39
				c0.59-1.93,3.35-1.92,3.91,0.02c1.42,4.89,2.78,10.02,4.03,15.38c2.56,10.95,4.31,21.25,5.5,30.76H47.9z"/>
			<path class="st60" d="M63.82,1754.88c0.24-8.54-0.12-18.35-1.67-29.14c-0.92-6.4-2.15-12.31-3.52-17.69
				c0.95-1.22,3.07-0.99,3.56,0.69c1.42,4.89,2.78,10.02,4.03,15.38c2.56,10.95,4.31,21.25,5.5,30.76H63.82z"/>
		</g>
		<path class="st60" d="M57.33,1733h-0.66c-0.37,0-0.67-0.3-0.67-0.67v-0.66c0-0.37,0.3-0.67,0.67-0.67h0.66
			c0.37,0,0.67,0.3,0.67,0.67v0.66C58,1732.7,57.7,1733,57.33,1733z"/>
		<g>
			<g>
				<path class="st58" d="M0,1733c1.58-10.83,3.8-22.51,6.9-34.88c1.52-6.08,3.15-11.9,4.85-17.46c0.67-2.19,3.79-2.18,4.43,0.02
					c1.61,5.54,3.15,11.36,4.57,17.44c2.9,12.41,4.88,24.1,6.23,34.88H0z"/>
				<path class="st60" d="M18.04,1732.97c0.27-9.68-0.13-20.81-1.9-33.05c-1.05-7.26-2.44-13.96-3.99-20.06
					c1.07-1.38,3.48-1.12,4.04,0.78c1.61,5.54,3.15,11.36,4.57,17.44c2.9,12.41,4.88,24.1,6.23,34.88H18.04z"/>
			</g>
		</g>
		<g>
			<path class="st65" d="M177.23,1829.98l-6.98-23.73c-3.77-12.81-15.02-21.98-28.32-23.09l-15.94-1.33
				c-6.08-0.51-11.32-4.51-13.41-10.25l-8.83-24.29c-2.25-6.18-8.13-10.3-14.7-10.3H77.22c-3.39,0-6.68,1.1-9.39,3.13l-2.13,1.6
				c-5.71,4.28-13.59,4.16-19.16-0.3l-8.72-6.98c-1.2-0.96-2.54-1.74-3.96-2.31L0,1718.6V1911h184v-34
				C184,1861.08,181.72,1845.25,177.23,1829.98z"/>
		</g>
		<g>
			<path class="st66" d="M28.95,1751.75l22.66,12.59c5.35,2.97,11.7,3.56,17.51,1.63l18.22-7.14c3.08-1.21,6.36-1.83,9.67-1.83
				h10.26l-3.53-9.7c-2.25-6.18-8.12-10.3-14.7-10.3H77.22c-3.39,0-6.68,1.1-9.39,3.13l-2.13,1.6c-5.71,4.28-13.59,4.16-19.16-0.3
				l-8.72-6.98c-1.2-0.96-2.54-1.74-3.96-2.31L0,1718.6v30.4h18.34C22.05,1749,25.7,1749.95,28.95,1751.75z"/>
		</g>
		<g>
			<path class="st67" d="M29.85,1744.9l19.67,13.11c6.53,4.36,14.83,5.12,22.05,2.02l12.04-5.16c2.89-1.24,6.01-1.88,9.15-1.88
				h13.05l-2.07-5.7c-2.25-6.18-8.12-10.3-14.7-10.3H77.22c-3.39,0-6.68,1.1-9.39,3.13l-2.13,1.6c-5.71,4.28-13.59,4.16-19.16-0.3
				l-8.72-6.98c-1.2-0.96-2.54-1.74-3.96-2.31L0,1718.6v22.4h16.96C21.55,1741,26.04,1742.36,29.85,1744.9z"/>
		</g>
		<path class="st68" d="M75,1749H74c-0.55,0-1-0.45-1-1V1747c0-0.55,0.45-1,1-1H75c0.55,0,1,0.45,1,1v0.99
			C76,1748.55,75.55,1749,75,1749z"/>
		<path class="st68" d="M15,1737H14c-0.55,0-1-0.45-1-1V1735c0-0.55,0.45-1,1-1H15c0.55,0,1,0.45,1,1v0.99
			C16,1736.55,15.55,1737,15,1737z"/>
		<path class="st68" d="M66,1756H65c-0.55,0-1-0.45-1-1V1754c0-0.55,0.45-1,1-1H66c0.55,0,1,0.45,1,1v0.99
			C67,1755.55,66.55,1756,66,1756z"/>
		<g>
			<path class="st69" d="M96.75,1753h9.07l-2.07-5.7c-2.25-6.18-8.13-10.3-14.7-10.3H80l11.89,8.92
				C94.25,1747.69,95.95,1750.18,96.75,1753z"/>
		</g>
		<path class="st67" d="M85.5,1757h-1c-0.28,0-0.5-0.22-0.5-0.5v-7c0-0.28,0.22-0.5,0.5-0.5h1c0.28,0,0.5,0.22,0.5,0.5v7
			C86,1756.78,85.78,1757,85.5,1757z"/>
		<path class="st67" d="M81.5,1759h-1c-0.28,0-0.5-0.22-0.5-0.5v-7c0-0.28,0.22-0.5,0.5-0.5h1c0.28,0,0.5,0.22,0.5,0.5v7
			C82,1758.78,81.78,1759,81.5,1759z"/>
		<path class="st66" d="M94,1785H93c-0.55,0-1-0.45-1-1V1783c0-0.55,0.45-1,1-1H94c0.55,0,1,0.45,1,1v0.99
			C95,1784.55,94.55,1785,94,1785z"/>
		<path class="st70" d="M86,1776H85c-0.55,0-1-0.45-1-1V1774c0-0.55,0.45-1,1-1H86c0.55,0,1,0.45,1,1v0.99
			C87,1775.55,86.55,1776,86,1776z"/>
		<path class="st60" d="M11.33,1709h-0.66c-0.37,0-0.67-0.3-0.67-0.67v-0.66c0-0.37,0.3-0.67,0.67-0.67h0.66
			c0.37,0,0.67,0.3,0.67,0.67v0.66C12,1708.7,11.7,1709,11.33,1709z"/>
		<path class="st65" d="M105.82,1753h-9.07c0.1,0.34,0.19,0.69,0.26,1.04l0.59,2.96h9.67L105.82,1753z"/>
		<g>
			<path class="st70" d="M177.23,1829.98l-6.98-23.73c-0.04-0.15-0.1-0.29-0.15-0.44l0-0.05c-3.68-12.51-14.68-21.48-27.67-22.56
				l-16.45-1.37c-6.08-0.51-11.32-4.51-13.41-10.25l-5.3-14.59H97.6l4.56,22.78c1.11,5.54,5.56,9.79,11.14,10.65l29.36,4.52
				c1.57,0.24,3.08,0.66,4.5,1.25c4.36,1.78,7.74,5.48,9.08,10c0.01,0.02,0.01,0.04,0.02,0.05l6.98,23.73
				c4.49,15.27,6.77,31.11,6.77,47.02v34h14v-34C184,1861.08,181.72,1845.25,177.23,1829.98z"/>
		</g>
	</g>
</g>
<g id="_x31__00000176748215646741422430000014996548749285466274_">
</g>
<g id="Full">
</g>
<g id="Guide">
</g>
</svg>
