<?xml version="1.0" encoding="utf-8"?>
<!-- Generator: Adobe Illustrator 26.0.2, SVG Export Plug-In . SVG Version: 6.00 Build 0)  -->
<svg version="1.1" xmlns="http://www.w3.org/2000/svg" xmlns:xlink="http://www.w3.org/1999/xlink" x="0px" y="0px"
	 viewBox="0 0 500 375" style="enable-background:new 0 0 500 375;" xml:space="preserve">
<style type="text/css">
	.st0{fill:#FFEAD7;}
	.st1{opacity:0.5;fill:#FFDFC2;}
	.st2{fill:#FFFFFF;}
	.st3{opacity:0.5;fill:#FFDCB8;}
	.st4{fill:#FFF5EF;}
	.st5{fill:#FFDCB8;}
	.st6{fill:#FFCE99;}
	.st7{fill:#FFDFC2;}
	.st8{fill:#FFDBBD;}
	.st9{fill:#FFC483;}
	.st10{fill:#FFB776;}
	.st11{fill:#FFCBA4;}
	.st12{fill:#E89D6B;}
	.st13{fill:#DD9268;}
	.st14{fill:#E58373;}
	.st15{fill:#E0F2DF;}
	.st16{fill:#CAEACA;}
	.st17{fill:none;}
	.st18{fill:#C67466;}
	.st19{fill:#AC655F;}
	.st20{fill:#FFB187;}
	.st21{fill:#8D4B61;}
	.st22{fill:#9C555F;}
	.st23{fill:#AAE2AA;}
	.st24{fill:#79CCAA;}
	.st25{fill:#662E55;}
	.st26{fill:#5B2950;}
	.st27{fill:#32253F;}
	.st28{fill:#2B1B37;}
	.st29{fill:#382A44;}
	.st30{opacity:0.05;fill:#FFFFFF;}
	.st31{fill:#4A1E45;}
	.st32{fill:#56435D;}
	.st33{fill:#7F3B59;}
	.st34{fill:#B2836F;}
	.st35{fill:#4D3E54;}
	.st36{fill:#614B63;}
	.st37{opacity:0.7;fill:#49BA9C;}
	.st38{fill:#3B123E;}
	.st39{fill:#A4DDC8;}
	.st40{fill:#250C33;}
	.st41{fill:#300F39;}
	.st42{fill:#190128;}
	.st43{fill:#35F200;}
	.st44{fill:#0058F4;}
</style>
<g id="_x31_">
</g>
<g id="_x32_">
</g>
<g id="_x33_">
</g>
<g id="_x34__1_">
</g>
<g id="_x35__00000068650285933184752780000010330952612633446584_">
	<g>
		<path class="st6" d="M500,112.3c-15.31,2.61-30.61,5.21-45.92,7.82c-6.29,1.07-14.03,1.15-20.55,0.2l-67.33-9.73
			c-6.38-0.92-13.93-0.87-20.15,0.14l-43.55,7.06c-7.57,1.23-16.95,1.02-23.79-0.53l-52.57-11.88c-8.19-1.85-19.79-1.75-27.56,0.25
			l-53.67,13.79c-7.99,2.05-19.98,2.1-28.16,0.11l-37.79-9.19c-6.64-1.62-15.99-1.92-23.71-0.77L0,117.8L0,397h500V112.3z"/>
		<path class="st7" d="M342.59,165h-5.17c-0.78,0-1.41-0.63-1.41-1.41v-24.23c0-0.89,0.21-1.77,0.61-2.57l2.6-5.19
			c0.33-0.66,1.27-0.66,1.59,0l2.6,5.19c0.4,0.8,0.61,1.68,0.61,2.57v24.23C344,164.37,343.37,165,342.59,165z"/>
		<path class="st7" d="M182.59,152h-5.17c-0.78,0-1.41-0.63-1.41-1.41v-27.23c0-0.89,0.21-1.77,0.61-2.57l2.6-5.19
			c0.33-0.66,1.27-0.66,1.59,0l2.6,5.19c0.4,0.8,0.61,1.68,0.61,2.57v27.23C184,151.37,183.37,152,182.59,152z"/>
		<path class="st7" d="M407,181h-9v-35h7.94c0.58,0,1.06,0.47,1.06,1.06V181z"/>
		<path class="st4" d="M399,181h-21.5v-35H398c0.55,0,1,0.45,1,1V181z"/>
		<path class="st7" d="M265,155.5h-9V122h7c1.1,0,2,0.9,2,2V155.5z"/>
		<path class="st4" d="M258,155.5h-17v-31.47c0-1.12,0.91-2.03,2.03-2.03h12.94c1.12,0,2.03,0.91,2.03,2.03V155.5z"/>
		<path class="st8" d="M254.36,132h-13.71c-0.35,0-0.64-0.29-0.64-0.64v-1.71c0-0.35,0.29-0.64,0.64-0.64h13.71
			c0.35,0,0.64,0.29,0.64,0.64v1.71C255,131.71,254.71,132,254.36,132z"/>
		<path class="st8" d="M254.36,137.5h-13.71c-0.35,0-0.64-0.29-0.64-0.64v-1.71c0-0.35,0.29-0.64,0.64-0.64h13.71
			c0.35,0,0.64,0.29,0.64,0.64v1.71C255,137.21,254.71,137.5,254.36,137.5z"/>
		<path class="st8" d="M254.36,143h-13.71c-0.35,0-0.64-0.29-0.64-0.64v-1.71c0-0.35,0.29-0.64,0.64-0.64h13.71
			c0.35,0,0.64,0.29,0.64,0.64v1.71C255,142.71,254.71,143,254.36,143z"/>
		<path class="st7" d="M224.5,167.5H208V136c0-1.1,0.9-2,2-2h12.5c1.1,0,2,0.9,2,2V167.5z"/>
		<rect x="142" y="134.5" class="st7" width="12.5" height="34"/>
		<g>
			<path class="st7" d="M172,172h-8.5v-42h7.5c0.55,0,1,0.45,1,1V172z"/>
			<path class="st4" d="M165,172h-16v-41.01c0-0.55,0.44-0.99,0.99-0.99h14.02c0.55,0,0.99,0.44,0.99,0.99V172z"/>
			<path class="st8" d="M162,136.5h-10c-0.28,0-0.5-0.22-0.5-0.5v-2c0-0.28,0.22-0.5,0.5-0.5h10c0.28,0,0.5,0.22,0.5,0.5v2
				C162.5,136.28,162.28,136.5,162,136.5z"/>
			<path class="st8" d="M162,142h-10c-0.28,0-0.5-0.22-0.5-0.5v-2c0-0.28,0.22-0.5,0.5-0.5h10c0.28,0,0.5,0.22,0.5,0.5v2
				C162.5,141.78,162.28,142,162,142z"/>
			<path class="st8" d="M162,147.5h-10c-0.28,0-0.5-0.22-0.5-0.5v-2c0-0.28,0.22-0.5,0.5-0.5h10c0.28,0,0.5,0.22,0.5,0.5v2
				C162.5,147.28,162.28,147.5,162,147.5z"/>
		</g>
		<path class="st4" d="M143,168.5h-17.5v-33c0-0.55,0.45-1,1-1H142c0.55,0,1,0.45,1,1V168.5z"/>
		<g>
			<g>
				<g>
					<path class="st8" d="M130.5,141H129c-0.28,0-0.5-0.22-0.5-0.5v-2c0-0.28,0.22-0.5,0.5-0.5h1.5c0.28,0,0.5,0.22,0.5,0.5v2
						C131,140.78,130.78,141,130.5,141z"/>
				</g>
				<g>
					<path class="st8" d="M139.5,141H138c-0.28,0-0.5-0.22-0.5-0.5v-2c0-0.28,0.22-0.5,0.5-0.5h1.5c0.28,0,0.5,0.22,0.5,0.5v2
						C140,140.78,139.78,141,139.5,141z"/>
				</g>
				<g>
					<path class="st8" d="M135,141h-1.5c-0.28,0-0.5-0.22-0.5-0.5v-2c0-0.28,0.22-0.5,0.5-0.5h1.5c0.28,0,0.5,0.22,0.5,0.5v2
						C135.5,140.78,135.28,141,135,141z"/>
				</g>
				<g>
					<path class="st8" d="M130.5,146.5H129c-0.28,0-0.5-0.22-0.5-0.5v-2c0-0.28,0.22-0.5,0.5-0.5h1.5c0.28,0,0.5,0.22,0.5,0.5v2
						C131,146.28,130.78,146.5,130.5,146.5z"/>
				</g>
				<g>
					<path class="st8" d="M139.5,146.5H138c-0.28,0-0.5-0.22-0.5-0.5v-2c0-0.28,0.22-0.5,0.5-0.5h1.5c0.28,0,0.5,0.22,0.5,0.5v2
						C140,146.28,139.78,146.5,139.5,146.5z"/>
				</g>
				<g>
					<path class="st8" d="M135,146.5h-1.5c-0.28,0-0.5-0.22-0.5-0.5v-2c0-0.28,0.22-0.5,0.5-0.5h1.5c0.28,0,0.5,0.22,0.5,0.5v2
						C135.5,146.28,135.28,146.5,135,146.5z"/>
				</g>
				<g>
					<path class="st8" d="M130.5,152H129c-0.28,0-0.5-0.22-0.5-0.5v-2c0-0.28,0.22-0.5,0.5-0.5h1.5c0.28,0,0.5,0.22,0.5,0.5v2
						C131,151.78,130.78,152,130.5,152z"/>
				</g>
				<g>
					<path class="st8" d="M139.5,152H138c-0.28,0-0.5-0.22-0.5-0.5v-2c0-0.28,0.22-0.5,0.5-0.5h1.5c0.28,0,0.5,0.22,0.5,0.5v2
						C140,151.78,139.78,152,139.5,152z"/>
				</g>
				<g>
					<path class="st8" d="M135,152h-1.5c-0.28,0-0.5-0.22-0.5-0.5v-2c0-0.28,0.22-0.5,0.5-0.5h1.5c0.28,0,0.5,0.22,0.5,0.5v2
						C135.5,151.78,135.28,152,135,152z"/>
				</g>
			</g>
		</g>
		<g>
			<path class="st7" d="M320.5,176.5H308v-34h11.5c0.55,0,1,0.45,1,1V176.5z"/>
			<path class="st4" d="M309,176.5h-17.5v-33c0-0.55,0.45-1,1-1H308c0.55,0,1,0.45,1,1V176.5z"/>
			<g>
				<path class="st8" d="M296.5,150H295c-0.28,0-0.5-0.22-0.5-0.5v-2c0-0.28,0.22-0.5,0.5-0.5h1.5c0.28,0,0.5,0.22,0.5,0.5v2
					C297,149.78,296.78,150,296.5,150z"/>
				<path class="st8" d="M305.5,150H304c-0.28,0-0.5-0.22-0.5-0.5v-2c0-0.28,0.22-0.5,0.5-0.5h1.5c0.28,0,0.5,0.22,0.5,0.5v2
					C306,149.78,305.78,150,305.5,150z"/>
				<path class="st8" d="M301,150h-1.5c-0.28,0-0.5-0.22-0.5-0.5v-2c0-0.28,0.22-0.5,0.5-0.5h1.5c0.28,0,0.5,0.22,0.5,0.5v2
					C301.5,149.78,301.28,150,301,150z"/>
				<path class="st8" d="M296.5,155.5H295c-0.28,0-0.5-0.22-0.5-0.5v-2c0-0.28,0.22-0.5,0.5-0.5h1.5c0.28,0,0.5,0.22,0.5,0.5v2
					C297,155.28,296.78,155.5,296.5,155.5z"/>
				<path class="st8" d="M305.5,155.5H304c-0.28,0-0.5-0.22-0.5-0.5v-2c0-0.28,0.22-0.5,0.5-0.5h1.5c0.28,0,0.5,0.22,0.5,0.5v2
					C306,155.28,305.78,155.5,305.5,155.5z"/>
				<path class="st8" d="M301,155.5h-1.5c-0.28,0-0.5-0.22-0.5-0.5v-2c0-0.28,0.22-0.5,0.5-0.5h1.5c0.28,0,0.5,0.22,0.5,0.5v2
					C301.5,155.28,301.28,155.5,301,155.5z"/>
			</g>
		</g>
		<g>
			<g>
				<path class="st9" d="M385,150.01h0.95c0.66,0,1.05-0.74,0.68-1.28l-6.26-9.17c-0.23-0.34-0.62-0.55-1.03-0.55h-8.18
					c-0.41,0-0.8,0.2-1.03,0.55l-6.26,9.17c-0.37,0.54,0.02,1.28,0.68,1.28H375l5-7L385,150.01z"/>
				<polygon class="st8" points="385,176 375,176 375,150 380,142.5 385,150 385,156 				"/>
				<rect x="365" y="150" transform="matrix(-1 4.474675e-11 -4.474675e-11 -1 740.0002 326)" class="st4" width="10" height="26"/>
			</g>
			<path class="st8" d="M370.57,157.5h-1.14c-0.37,0-0.68-0.3-0.68-0.68v-3.07c0-0.69,0.56-1.25,1.25-1.25l0,0
				c0.69,0,1.25,0.56,1.25,1.25v3.07C371.25,157.2,370.95,157.5,370.57,157.5z"/>
		</g>
		<g>
			<g>
				<path class="st9" d="M95.27,147h0.95c0.66,0,1.05-0.74,0.68-1.28l-6.26-9.17c-0.23-0.34-0.62-0.55-1.03-0.55h-8.18
					c-0.41,0-0.8,0.2-1.03,0.55l-6.26,9.17c-0.37,0.54,0.02,1.28,0.68,1.28h10.45l5-7L95.27,147z"/>
				<polygon class="st8" points="95.27,172 85.27,172 85.27,146.99 90.27,139.49 95.27,146.99 95.27,152.99 				"/>
				
					<rect x="75.27" y="146.99" transform="matrix(-1 4.474675e-11 -4.474675e-11 -1 160.5377 318.9928)" class="st4" width="10" height="25.01"/>
			</g>
			<path class="st8" d="M80.84,154.49H79.7c-0.37,0-0.68-0.3-0.68-0.68v-3.07c0-0.69,0.56-1.25,1.25-1.25l0,0
				c0.69,0,1.25,0.56,1.25,1.25v3.07C81.52,154.19,81.22,154.49,80.84,154.49z"/>
		</g>
		<g>
			<g>
				<path class="st9" d="M94.73,143.5h-0.95c-0.66,0-1.05-0.74-0.68-1.28l6.26-9.17c0.23-0.34,0.62-0.55,1.03-0.55h8.18
					c0.41,0,0.8,0.2,1.03,0.55l6.26,9.17c0.37,0.54-0.02,1.28-0.68,1.28h-10.45l-5-7L94.73,143.5z"/>
				<polygon class="st4" points="94.73,172 104.73,172 104.73,143.5 99.73,136 94.73,143.5 94.73,149.5 				"/>
				<rect x="104.73" y="143.5" class="st7" width="10" height="28.5"/>
			</g>
			<path class="st8" d="M99.17,151h1.14c0.37,0,0.68-0.3,0.68-0.68v-3.07c0-0.69-0.56-1.25-1.25-1.25l0,0
				c-0.69,0-1.25,0.56-1.25,1.25v3.07C98.5,150.69,98.8,151,99.17,151z"/>
		</g>
		<g>
			
				<rect x="311.28" y="139" transform="matrix(-1 4.456512e-11 -4.456512e-11 -1 624.5605 281.5)" class="st7" width="2" height="3.5"/>
			
				<rect x="302.78" y="139" transform="matrix(-1 4.456512e-11 -4.456512e-11 -1 607.5605 281.5)" class="st7" width="2" height="3.5"/>
			<path class="st2" d="M316.43,138.45l2.11-8.02c0.12-0.47-0.23-0.93-0.72-0.93h-15.97c-0.34,0-0.63,0.23-0.72,0.55l-2.11,8.02
				c-0.12,0.47,0.23,0.93,0.72,0.93h15.97C316.05,139,316.34,138.77,316.43,138.45z"/>
		</g>
		<path class="st9" d="M168,130h-12v-1.35c0-0.63,0.51-1.15,1.15-1.15h9.71c0.63,0,1.15,0.51,1.15,1.15V130z"/>
		<path class="st9" d="M402,146h-12v-1.35c0-0.63,0.51-1.15,1.15-1.15h9.71c0.63,0,1.15,0.51,1.15,1.15V146z"/>
		<path class="st7" d="M278,133h-6c-0.55,0-1-0.45-1-1v-8c0-0.55,0.45-1,1-1h6c0.55,0,1,0.45,1,1v8C279,132.55,278.55,133,278,133z"
			/>
		<path class="st0" d="M279,120h-4c-0.55,0-1-0.45-1-1v-7c0-0.55,0.45-1,1-1h4c0.55,0,1,0.45,1,1v7C280,119.55,279.55,120,279,120z"
			/>
		<path class="st0" d="M371,136h-4c-0.55,0-1-0.45-1-1v-7c0-0.55,0.45-1,1-1h4c0.55,0,1,0.45,1,1v7C372,135.55,371.55,136,371,136z"
			/>
		<path class="st0" d="M361,133h-4c-0.55,0-1-0.45-1-1v-7c0-0.55,0.45-1,1-1h4c0.55,0,1,0.45,1,1v7C362,132.55,361.55,133,361,133z"
			/>
		<path class="st7" d="M340,128h-4c-0.55,0-1-0.45-1-1v-7c0-0.55,0.45-1,1-1h4c0.55,0,1,0.45,1,1v7C341,127.55,340.55,128,340,128z"
			/>
		<path class="st0" d="M331,135h-6c-0.55,0-1-0.45-1-1v-8c0-0.55,0.45-1,1-1h6c0.55,0,1,0.45,1,1v8C332,134.55,331.55,135,331,135z"
			/>
		<path class="st4" d="M123,132h-8c-0.55,0-1-0.45-1-1v-4c0-0.55,0.45-1,1-1h8c0.55,0,1,0.45,1,1v4C124,131.55,123.55,132,123,132z"
			/>
		<path class="st4" d="M363,142h-8c-0.55,0-1-0.45-1-1v-4c0-0.55,0.45-1,1-1h8c0.55,0,1,0.45,1,1v4C364,141.55,363.55,142,363,142z"
			/>
		<path class="st0" d="M136,128h-8c-0.55,0-1-0.45-1-1v-12c0-0.55,0.45-1,1-1h8c0.55,0,1,0.45,1,1v12C137,127.55,136.55,128,136,128
			z"/>
		<path class="st0" d="M69,152h-6c-0.55,0-1-0.45-1-1v-8c0-0.55,0.45-1,1-1h6c0.55,0,1,0.45,1,1v8C70,151.55,69.55,152,69,152z"/>
		<path class="st0" d="M215,130h-8c-0.55,0-1-0.45-1-1v-6c0-0.55,0.45-1,1-1h8c0.55,0,1,0.45,1,1v6C216,129.55,215.55,130,215,130z"
			/>
		<path class="st4" d="M293,116h-8c-0.55,0-1,0.45-1,1v2h6.17c0.46,0,0.83,0.37,0.83,0.83v1.34c0,0.46-0.37,0.83-0.83,0.83H284v3
			h6.17c0.46,0,0.83,0.37,0.83,0.83v1.34c0,0.46-0.37,0.83-0.83,0.83H284v3h6.17c0.46,0,0.83,0.37,0.83,0.83v1.34
			c0,0.46-0.37,0.83-0.83,0.83H284v2c0,0.55,0.45,1,1,1h8c0.55,0,1-0.45,1-1v-19C294,116.45,293.55,116,293,116z"/>
		<path class="st7" d="M301,127H300c-0.55,0-1-0.45-1-1V125c0-0.55,0.45-1,1-1H301c0.55,0,1,0.45,1,1V126
			C302,126.55,301.55,127,301,127z"/>
		<path class="st7" d="M143,130H142c-0.55,0-1-0.45-1-1V128c0-0.55,0.45-1,1-1H143c0.55,0,1,0.45,1,1V129
			C144,129.55,143.55,130,143,130z"/>
		<path class="st7" d="M190,119H189c-0.55,0-1-0.45-1-1V117c0-0.55,0.45-1,1-1H190c0.55,0,1,0.45,1,1V118
			C191,118.55,190.55,119,190,119z"/>
		<path class="st7" d="M195,119H194c-0.55,0-1-0.45-1-1V117c0-0.55,0.45-1,1-1H195c0.55,0,1,0.45,1,1V118
			C196,118.55,195.55,119,195,119z"/>
		<path class="st7" d="M350,133H349c-0.55,0-1-0.45-1-1V131c0-0.55,0.45-1,1-1H350c0.55,0,1,0.45,1,1V132
			C351,132.55,350.55,133,350,133z"/>
		<path class="st7" d="M408,142H407c-0.55,0-1-0.45-1-1V140c0-0.55,0.45-1,1-1H408c0.55,0,1,0.45,1,1V141
			C409,141.55,408.55,142,408,142z"/>
		<path class="st7" d="M388,139H387c-0.55,0-1-0.45-1-1V137c0-0.55,0.45-1,1-1H388c0.55,0,1,0.45,1,1V138
			C389,138.55,388.55,139,388,139z"/>
		<path class="st7" d="M388,134H387c-0.55,0-1-0.45-1-1V132c0-0.55,0.45-1,1-1H388c0.55,0,1,0.45,1,1V133
			C389,133.55,388.55,134,388,134z"/>
		<path class="st7" d="M393,139H392c-0.55,0-1-0.45-1-1V137c0-0.55,0.45-1,1-1H393c0.55,0,1,0.45,1,1V138
			C394,138.55,393.55,139,393,139z"/>
		<path class="st7" d="M393,134H392c-0.55,0-1-0.45-1-1V132c0-0.55,0.45-1,1-1H393c0.55,0,1,0.45,1,1V133
			C394,133.55,393.55,134,393,134z"/>
		<path class="st7" d="M390,154H389c-0.55,0-1-0.45-1-1V152c0-0.55,0.45-1,1-1H390c0.55,0,1,0.45,1,1V153
			C391,153.55,390.55,154,390,154z"/>
		<path class="st7" d="M395,154H394c-0.55,0-1-0.45-1-1V152c0-0.55,0.45-1,1-1H395c0.55,0,1,0.45,1,1V153
			C396,153.55,395.55,154,395,154z"/>
		<path class="st7" d="M73,139H72c-0.55,0-1-0.45-1-1V137c0-0.55,0.45-1,1-1H73c0.55,0,1,0.45,1,1V138C74,138.55,73.55,139,73,139z"
			/>
		<path class="st7" d="M121,140H120c-0.55,0-1-0.45-1-1V138c0-0.55,0.45-1,1-1H121c0.55,0,1,0.45,1,1V139
			C122,139.55,121.55,140,121,140z"/>
	</g>
</g>
<g id="_x36_">
</g>
<g id="_x37_">
</g>
<g id="_x38_">
</g>
<g id="_x39__00000049217028608276070180000013554017633487154818_">
</g>
<g id="_x31_0_00000147915158777594467630000018299806147496965556_">
</g>
<g id="_x31_1_00000031209085476423013220000010579698211204677507_">
</g>
<g id="_x31_2">
</g>
<g id="Full_Illustration">
</g>
<g id="Cropping_Guide">
</g>
</svg>
