<?xml version="1.0" encoding="utf-8"?>
<!-- Generator: Adobe Illustrator 26.0.2, SVG Export Plug-In . SVG Version: 6.00 Build 0)  -->
<svg version="1.1" xmlns="http://www.w3.org/2000/svg" xmlns:xlink="http://www.w3.org/1999/xlink" x="0px" y="0px"
	 viewBox="0 0 320 1911" style="enable-background:new 0 0 320 1911;" xml:space="preserve">
<style type="text/css">
	.st0{fill:#190128;}
	.st1{fill:#98FF8F;}
	.st2{fill:#5B205C;}
	.st3{fill:#E3CF7F;}
	.st4{fill:#36114A;}
	.st5{opacity:0.5;fill:#FFFFFF;}
	.st6{fill:#1F032F;}
	.st7{fill:#260638;}
	.st8{opacity:0.25;fill:#FFF5EF;}
	.st9{fill:#FFF5EF;}
	.st10{fill:#521C57;}
	.st11{fill:#56577A;}
	.st12{opacity:0.5;fill:#9EEBCC;}
	.st13{opacity:0.75;fill:#FFF5EF;}
	.st14{opacity:0.75;fill:#C0E37F;}
	.st15{fill:#56888F;}
	.st16{fill:#C0E37F;}
	.st17{fill:#54A89C;}
	.st18{fill:#51C9A9;}
	.st19{opacity:0.5;fill:#FFF5EF;}
	.st20{fill:#9EEBCC;}
	.st21{fill:#8DD4BB;}
	.st22{fill:#B9D8C3;}
	.st23{opacity:0.75;fill:#FFFF8F;}
	.st24{fill:#CBDFCA;}
	.st25{opacity:0.15;fill:#FFF5EF;}
	.st26{opacity:0.25;fill:#C2A9C2;}
	.st27{fill:#C2A9C2;}
	.st28{fill:#81B8B3;}
	.st29{fill:#718FA1;}
	.st30{fill:#EAE3C7;}
	.st31{fill:#FAD8AC;}
	.st32{fill:#FFE6D5;}
	.st33{opacity:0.35;fill:#FFFFFF;}
	.st34{opacity:0.15;fill:#FFFFFF;}
	.st35{fill:#FFD1A1;}
	.st36{fill:#FFC483;}
	.st37{fill:#FFC98E;}
	.st38{fill:#FFD8BB;}
	.st39{opacity:0.5;}
	.st40{fill:#FFB776;}
	.st41{fill:#FFC183;}
	.st42{opacity:0.75;}
	.st43{fill:#EDA876;}
	.st44{fill:#E89D6B;}
	.st45{opacity:0.5;fill:#E89D6B;}
	.st46{fill:#FFFFFF;}
	.st47{fill:#E58373;}
	.st48{fill:#DD9268;}
	.st49{fill:#D68968;}
	.st50{fill:#FFCBA4;}
	.st51{fill:#C67466;}
	.st52{fill:#CAEACA;}
	.st53{fill:#E0F2DF;}
	.st54{fill:#BA6D61;}
	.st55{fill:#AC655F;}
	.st56{fill:#A45D5F;}
	.st57{fill:#FFB187;}
	.st58{fill:#8D4B61;}
	.st59{fill:#E08977;}
	.st60{fill:#9C555F;}
	.st61{fill:#56435D;}
	.st62{fill:#614B63;}
	.st63{fill:#7F3B59;}
	.st64{fill:#4D3E54;}
	.st65{fill:#32253F;}
	.st66{fill:#2B1B37;}
	.st67{fill:#5B2950;}
	.st68{fill:#4A1E45;}
	.st69{fill:#662E55;}
	.st70{fill:#382A44;}
	.st71{opacity:0.05;fill:#FFFFFF;}
	.st72{fill:#250C33;}
	.st73{fill:#300F39;}
	.st74{fill:#FF00CF;}
</style>
<g id="_x31_9__x28_Rest_of_Sky_x29_">
</g>
<g id="_x31_8__x28_Cloud_Layer_7_x29_">
</g>
<g id="_x31_7__x28_Cloud_Layer_6_x29_">
</g>
<g id="_x31_6__x28_Cloud_Layer_5_x29_">
</g>
<g id="_x31_5">
</g>
<g id="_x31_4">
</g>
<g id="_x31_3__x28_Cloud_Layer_4__x2B__Aircraft_x29_">
</g>
<g id="_x31_2_00000053541090334089295900000016410686384436047024_">
	<g>
		<g>
			<path class="st34" d="M320,1303.04l-17.5-4.57c-6.31-1.65-12.94,1.06-16.3,6.65l-2.24,3.73c-3.62,6.03-11,8.65-17.61,6.24
				l-4.52-1.64c-5.96-2.17-12.64-0.26-16.56,4.73l-11.59,14.75c-4.46,5.68-12.4,7.27-18.71,3.74c-5.97-3.34-13.46-2.04-18.03,3.05
				l-21.08,23.52c-5.64,6.29-8.76,14.44-8.76,22.89V1444H320V1303.04z"/>
			<path class="st34" d="M123.24,1360.97l-15.51-17.31c-4.29-4.78-11.25-6.3-17.02-3.48c-5.25,2.57-11.63,1.14-15.28-3.5l-7.32-9.32
				c-4.84-6.16-13.08-8.51-20.44-5.83l0,0c-5.61,2.04-11.89-0.18-14.96-5.31c-3.98-6.63-11.84-9.84-19.32-7.89L0,1311.83V1444h132
				v-60.14C132,1375.41,128.88,1367.26,123.24,1360.97z"/>
		</g>
		<g>
			<path class="st35" d="M75.36,1370.16c0.01-5.72,4.53-10.63,10.22-11.12c4.1-0.35,7.82,1.52,10.04,4.58
				c0.87,1.2,2.45,1.53,3.74,0.8c1.3-0.74,2.79-1.18,4.39-1.24c4.05-0.15,7.6,2.23,9.16,5.71c0.44,0.98,1.5,1.57,2.53,1.24
				c1.06-0.34,2.23-0.47,3.45-0.33c3.58,0.42,6.52,3.29,7.03,6.86c0.7,4.85-2.95,9.11-7.72,9.29c-3.72,0.14-6.94-2.26-8.02-5.65
				c-1.57,1.27-3.54,2.08-5.72,2.16c-3.94,0.14-7.41-2.1-9.03-5.43c-1.96,2.54-5,4.22-8.45,4.35
				C80.64,1381.63,75.34,1376.56,75.36,1370.16z"/>
			<path class="st35" d="M166,1367.19c0.01-5.72,4.53-10.63,10.22-11.12c4.1-0.35,7.82,1.52,10.04,4.58c0.87,1.2,2.45,1.53,3.74,0.8
				c1.3-0.74,2.79-1.18,4.39-1.24c4.05-0.15,7.6,2.22,9.16,5.71c0.44,0.98,1.5,1.57,2.53,1.24c1.06-0.34,2.23-0.47,3.45-0.33
				c3.58,0.42,6.52,3.29,7.03,6.86c0.7,4.85-2.95,9.11-7.72,9.29c-3.72,0.14-6.94-2.26-8.02-5.65c-1.57,1.27-3.54,2.08-5.72,2.16
				c-3.94,0.14-7.41-2.1-9.03-5.43c-1.96,2.54-5,4.22-8.45,4.35C171.28,1378.66,165.98,1373.59,166,1367.19z"/>
			<path class="st35" d="M301.38,1332.53c-1.87-5.4-7.72-8.59-13.27-7.21c-3.99,0.99-6.9,3.97-8.01,7.59
				c-0.44,1.41-1.83,2.24-3.28,1.96c-1.47-0.27-3.02-0.21-4.55,0.25c-3.88,1.17-6.47,4.57-6.82,8.37c-0.1,1.07-0.91,1.98-1.99,2
				c-1.12,0.02-2.26,0.28-3.37,0.81c-3.25,1.56-5.1,5.22-4.43,8.77c0.91,4.82,5.75,7.67,10.31,6.29c3.57-1.08,5.84-4.39,5.76-7.94
				c1.9,0.7,4.02,0.82,6.11,0.19c3.77-1.14,6.33-4.38,6.79-8.06c2.68,1.77,6.09,2.38,9.41,1.38
				C300.1,1345.09,303.47,1338.58,301.38,1332.53z"/>
			<g>
				<polygon class="st32" points="271.22,1325.25 272.35,1325.25 273.47,1359 270.1,1359 				"/>
				<path class="st9" d="M272.82,1325.27l-0.4-5.53c-0.02-0.28-0.25-0.5-0.54-0.51h0c-0.28,0-0.52,0.21-0.55,0.49l-0.52,5.51h0
					l-4.58,3.12c-0.23,0.16-0.31,0.47-0.17,0.72l0,0c0.14,0.25,0.45,0.35,0.7,0.23l5.03-2.32l0,0l4.98,2.42
					c0.26,0.12,0.56,0.03,0.71-0.21h0c0.14-0.24,0.08-0.56-0.15-0.72L272.82,1325.27L272.82,1325.27z"/>
			</g>
			<g>
				<polygon class="st32" points="284.7,1306 286.2,1306 287.7,1351 283.2,1351 				"/>
				<path class="st9" d="M285.77,1308.34l6.28,0.94c0.32,0.05,0.63-0.16,0.7-0.47v0c0.07-0.32-0.11-0.64-0.41-0.74l-6.04-1.97l0,0
					l-2.34-5.91c-0.12-0.3-0.45-0.46-0.76-0.37l0,0c-0.31,0.09-0.5,0.41-0.43,0.73l1.33,6.21l0,0l-3.96,4.97
					c-0.2,0.25-0.18,0.62,0.06,0.84l0,0c0.24,0.22,0.6,0.23,0.85,0.01L285.77,1308.34L285.77,1308.34z"/>
			</g>
			<g>
				<polygon class="st32" points="98.07,1352 96.57,1352 95.07,1397 99.57,1397 				"/>
				<path class="st9" d="M97,1354.34l-6.28,0.94c-0.32,0.05-0.63-0.16-0.7-0.47l0,0c-0.07-0.32,0.11-0.64,0.41-0.74l6.04-1.97l0,0
					l2.34-5.91c0.12-0.3,0.45-0.46,0.76-0.37h0c0.31,0.09,0.5,0.41,0.43,0.73l-1.33,6.21l0,0l3.96,4.97
					c0.2,0.25,0.18,0.62-0.06,0.84h0c-0.24,0.22-0.6,0.23-0.85,0.01L97,1354.34L97,1354.34z"/>
			</g>
			<path class="st36" d="M48.74,1352c0.62-4.26,1.5-8.86,2.72-13.74c0.6-2.39,1.24-4.69,1.91-6.87c0.26-0.86,1.49-0.86,1.75,0.01
				c0.63,2.18,1.24,4.47,1.8,6.87c1.14,4.89,1.92,9.49,2.46,13.74H48.74z"/>
			<path class="st36" d="M55.37,1360c0.62-4.26,1.5-8.86,2.72-13.74c0.6-2.39,1.24-4.69,1.91-6.87c0.26-0.86,1.49-0.86,1.75,0.01
				c0.63,2.18,1.24,4.47,1.8,6.87c1.14,4.89,1.92,9.49,2.46,13.74H55.37z"/>
			<path class="st36" d="M154,1360.26c0.62-4.26,1.5-8.86,2.72-13.74c0.6-2.39,1.24-4.69,1.91-6.87c0.26-0.86,1.49-0.86,1.75,0.01
				c0.63,2.18,1.24,4.47,1.8,6.87c1.14,4.89,1.92,9.49,2.46,13.74H154z"/>
			<path class="st36" d="M146,1365.26c0.62-4.26,1.5-8.86,2.72-13.74c0.6-2.39,1.24-4.69,1.91-6.87c0.26-0.86,1.49-0.86,1.75,0.01
				c0.63,2.18,1.24,4.47,1.8,6.87c1.14,4.89,1.92,9.49,2.46,13.74H146z"/>
			<path class="st36" d="M162,1367c0.62-4.26,1.5-8.86,2.72-13.74c0.6-2.39,1.24-4.69,1.91-6.87c0.26-0.86,1.49-0.86,1.75,0.01
				c0.63,2.18,1.24,4.47,1.8,6.87c1.14,4.89,1.92,9.49,2.46,13.74H162z"/>
			<path class="st36" d="M302,1335c0.62-4.26,1.5-8.86,2.72-13.74c0.6-2.39,1.24-4.69,1.91-6.87c0.26-0.86,1.49-0.86,1.75,0.01
				c0.63,2.18,1.24,4.47,1.8,6.87c1.14,4.89,1.92,9.49,2.46,13.74H302z"/>
			<path class="st36" d="M295.37,1343c0.62-4.26,1.5-8.86,2.72-13.74c0.6-2.39,1.24-4.69,1.91-6.87c0.26-0.86,1.49-0.86,1.75,0.01
				c0.63,2.18,1.24,4.47,1.8,6.87c1.14,4.89,1.92,9.49,2.46,13.74H295.37z"/>
			<path class="st37" d="M0,1353.5V1911h320v-583.78c-12.05,0.84-23.88,4.34-34.58,10.41l-50.86,28.84
				c-17.9,10.15-39.91,9.78-57.45-0.97c-13.28-8.14-30.01-8.11-43.27,0.07l-14.56,8.99c-10.96,6.77-25.15,4.98-34.09-4.3l-4.99-5.18
				c-13.51-14.03-33.13-19.23-52.36-16.1L0,1353.5z"/>
			<path class="st36" d="M0,1363.5V1911h320v-573.78c-12.05,0.84-23.88,4.34-34.58,10.41l-50.86,28.84
				c-17.9,10.15-39.91,9.78-57.45-0.97c-13.28-8.14-30.01-8.11-43.27,0.07l-14.56,8.99c-10.96,6.77-25.15,4.98-34.09-4.3l-4.99-5.18
				c-13.51-14.03-33.13-19.23-52.36-16.1L0,1363.5z"/>
			<path class="st36" d="M225,1382c0.62-4.26,1.5-8.86,2.72-13.74c0.6-2.39,1.24-4.69,1.91-6.87c0.26-0.86,1.49-0.86,1.75,0.01
				c0.63,2.18,1.24,4.47,1.8,6.87c1.14,4.89,1.92,9.49,2.46,13.74H225z"/>
			<path class="st36" d="M12,1363.26c0.62-4.26,1.5-8.86,2.72-13.74c0.6-2.39,1.24-4.69,1.91-6.87c0.26-0.86,1.49-0.86,1.75,0.01
				c0.63,2.18,1.24,4.47,1.8,6.87c1.14,4.89,1.92,9.49,2.46,13.74H12z"/>
		</g>
		<path class="st38" d="M23.33,1389h-0.66c-0.37,0-0.67-0.3-0.67-0.67v-0.66c0-0.37,0.3-0.67,0.67-0.67h0.66
			c0.37,0,0.67,0.3,0.67,0.67v0.66C24,1388.7,23.7,1389,23.33,1389z"/>
		<path class="st38" d="M53.33,1417h-0.66c-0.37,0-0.67-0.3-0.67-0.67v-0.66c0-0.37,0.3-0.67,0.67-0.67h0.66
			c0.37,0,0.67,0.3,0.67,0.67v0.66C54,1416.7,53.7,1417,53.33,1417z"/>
		<path class="st38" d="M297.33,1399h-0.66c-0.37,0-0.67-0.3-0.67-0.67v-0.66c0-0.37,0.3-0.67,0.67-0.67h0.66
			c0.37,0,0.67,0.3,0.67,0.67v0.66C298,1398.7,297.7,1399,297.33,1399z"/>
		<path class="st34" d="M28.75,1396h-0.5c-0.69,0-1.25-0.56-1.25-1.25v-0.5c0-0.69,0.56-1.25,1.25-1.25h0.5
			c0.69,0,1.25,0.56,1.25,1.25v0.5C30,1395.44,29.44,1396,28.75,1396z"/>
		<path class="st34" d="M292.75,1404h-0.5c-0.69,0-1.25-0.56-1.25-1.25v-0.5c0-0.69,0.56-1.25,1.25-1.25h0.5
			c0.69,0,1.25,0.56,1.25,1.25v0.5C294,1403.44,293.44,1404,292.75,1404z"/>
	</g>
</g>
<g id="_x31_1__x28_Cloud_Layer_3__x2B__Higher_Birds_x29_">
</g>
<g id="_x31_0__x28__x2B__Nearby_Birds_x29_">
</g>
<g id="_x39___x28_Cloud_Layer_2_x29_">
</g>
<g id="_x38___x28__x2B__Nearby_Birds_x29_">
</g>
<g id="_x37___x28_Cloud_Layer_1_x29_">
</g>
<g id="_x36__00000068661700993368236970000009778035845983078308_">
</g>
<g id="_x35__00000078044523084173153740000012161118921027427980_">
</g>
<g id="_x34__00000014591708090884853300000012924613216120282812_">
</g>
<g id="_x33__00000150784116898789853780000012635840894519326891_">
</g>
<g id="_x32__00000155142127021454457340000001118262530934973368_">
</g>
<g id="_x31__00000176748215646741422430000014996548749285466274_">
</g>
<g id="Full">
</g>
<g id="Guide">
</g>
</svg>
