<?xml version="1.0" encoding="utf-8"?>
<!-- Generator: Adobe Illustrator 26.0.2, SVG Export Plug-In . SVG Version: 6.00 Build 0)  -->
<svg version="1.1" xmlns="http://www.w3.org/2000/svg" xmlns:xlink="http://www.w3.org/1999/xlink" x="0px" y="0px"
	 viewBox="0 0 320 1911" style="enable-background:new 0 0 320 1911;" xml:space="preserve">
<style type="text/css">
	.st0{fill:#190128;}
	.st1{fill:#98FF8F;}
	.st2{fill:#5B205C;}
	.st3{fill:#E3CF7F;}
	.st4{fill:#36114A;}
	.st5{opacity:0.5;fill:#FFFFFF;}
	.st6{fill:#1F032F;}
	.st7{fill:#260638;}
	.st8{opacity:0.25;fill:#FFF5EF;}
	.st9{fill:#FFF5EF;}
	.st10{fill:#521C57;}
	.st11{fill:#56577A;}
	.st12{opacity:0.5;fill:#9EEBCC;}
	.st13{opacity:0.75;fill:#FFF5EF;}
	.st14{opacity:0.75;fill:#C0E37F;}
	.st15{fill:#56888F;}
	.st16{fill:#C0E37F;}
	.st17{fill:#54A89C;}
	.st18{fill:#51C9A9;}
	.st19{opacity:0.5;fill:#FFF5EF;}
	.st20{fill:#9EEBCC;}
	.st21{fill:#8DD4BB;}
	.st22{fill:#B9D8C3;}
	.st23{opacity:0.75;fill:#FFFF8F;}
	.st24{fill:#CBDFCA;}
	.st25{opacity:0.15;fill:#FFF5EF;}
	.st26{opacity:0.25;fill:#C2A9C2;}
	.st27{fill:#C2A9C2;}
	.st28{fill:#81B8B3;}
	.st29{fill:#718FA1;}
	.st30{fill:#EAE3C7;}
	.st31{fill:#FAD8AC;}
	.st32{fill:#FFE6D5;}
	.st33{opacity:0.35;fill:#FFFFFF;}
	.st34{opacity:0.15;fill:#FFFFFF;}
	.st35{fill:#FFD1A1;}
	.st36{fill:#FFC483;}
	.st37{fill:#FFC98E;}
	.st38{fill:#FFD8BB;}
	.st39{opacity:0.5;}
	.st40{fill:#FFB776;}
	.st41{fill:#FFC183;}
	.st42{opacity:0.75;}
	.st43{fill:#EDA876;}
	.st44{fill:#E89D6B;}
	.st45{opacity:0.5;fill:#E89D6B;}
	.st46{fill:#FFFFFF;}
	.st47{fill:#E58373;}
	.st48{fill:#DD9268;}
	.st49{fill:#D68968;}
	.st50{fill:#FFCBA4;}
	.st51{fill:#C67466;}
	.st52{fill:#CAEACA;}
	.st53{fill:#E0F2DF;}
	.st54{fill:#BA6D61;}
	.st55{fill:#AC655F;}
	.st56{fill:#A45D5F;}
	.st57{fill:#FFB187;}
	.st58{fill:#8D4B61;}
	.st59{fill:#E08977;}
	.st60{fill:#9C555F;}
	.st61{fill:#56435D;}
	.st62{fill:#614B63;}
	.st63{fill:#7F3B59;}
	.st64{fill:#4D3E54;}
	.st65{fill:#32253F;}
	.st66{fill:#2B1B37;}
	.st67{fill:#5B2950;}
	.st68{fill:#4A1E45;}
	.st69{fill:#662E55;}
	.st70{fill:#382A44;}
	.st71{opacity:0.05;fill:#FFFFFF;}
	.st72{fill:#250C33;}
	.st73{fill:#300F39;}
	.st74{fill:#FF00CF;}
</style>
<g id="_x31_9__x28_Rest_of_Sky_x29_">
</g>
<g id="_x31_8__x28_Cloud_Layer_7_x29_">
</g>
<g id="_x31_7__x28_Cloud_Layer_6_x29_">
</g>
<g id="_x31_6__x28_Cloud_Layer_5_x29_">
</g>
<g id="_x31_5">
</g>
<g id="_x31_4">
</g>
<g id="_x31_3__x28_Cloud_Layer_4__x2B__Aircraft_x29_">
</g>
<g id="_x31_2_00000053541090334089295900000016410686384436047024_">
</g>
<g id="_x31_1__x28_Cloud_Layer_3__x2B__Higher_Birds_x29_">
</g>
<g id="_x31_0__x28__x2B__Nearby_Birds_x29_">
</g>
<g id="_x39___x28_Cloud_Layer_2_x29_">
</g>
<g id="_x38___x28__x2B__Nearby_Birds_x29_">
</g>
<g id="_x37___x28_Cloud_Layer_1_x29_">
</g>
<g id="_x36__00000068661700993368236970000009778035845983078308_">
</g>
<g id="_x35__00000078044523084173153740000012161118921027427980_">
</g>
<g id="_x34__00000014591708090884853300000012924613216120282812_">
	<g>
		<rect x="288" y="1705" class="st56" width="32" height="32"/>
		<path class="st56" d="M251.82,1687.53c-4.7-0.22-8.86,2.09-11.26,5.68c-0.94,1.41-2.73,1.85-4.23,1.08
			c-1.52-0.78-3.24-1.22-5.07-1.22c-4.63,0.01-8.58,2.88-10.2,6.93c-0.46,1.14-1.65,1.86-2.83,1.53c-1.23-0.34-2.56-0.44-3.95-0.22
			c-4.07,0.64-7.3,4.05-7.73,8.15c-0.09,0.83,0.07,23.54,0.07,23.54h57.37v-33.23C263.72,1693.24,258.35,1687.83,251.82,1687.53z"/>
		<path class="st56" d="M318.26,1686.39c-0.84-3.59-1.75-7.03-2.7-10.3c-0.38-1.3-2.22-1.31-2.62-0.01c-1,3.28-1.97,6.72-2.87,10.31
			c-1.83,7.31-3.14,14.21-4.08,20.61h14v-12.28C319.49,1692.01,318.93,1689.24,318.26,1686.39z"/>
		<g>
			<path class="st56" d="M312,1715c-1.4-9.55-3.35-19.85-6.08-30.76c-1.34-5.36-2.78-10.49-4.28-15.39
				c-0.59-1.93-3.35-1.92-3.91,0.02c-1.42,4.89-2.78,10.02-4.03,15.38c-2.56,10.95-4.31,21.25-5.5,30.76H312z"/>
		</g>
		<g>
			<g>
				<path class="st57" d="M283.59,1691.33l-7.41,11.11c-0.37,0.56-1,0.89-1.66,0.89H256V1761h19.59h16v-57.67L283.59,1691.33z"/>
				<rect x="256" y="1703.33" class="st9" width="17.59" height="57.67"/>
				<path class="st58" d="M254.5,1703.33h20.02c0.67,0,1.29-0.33,1.66-0.89l6.61-9.92c0.38-0.57,1.21-0.57,1.59,0l7.21,10.81h1.75
					c0.53,0,0.84-0.59,0.54-1.03l-9.87-14.36c-0.26-0.38-0.7-0.61-1.17-0.61H264c-0.37,0-0.71,0.19-0.91,0.5l-9.11,14.57
					C253.73,1702.81,254.02,1703.33,254.5,1703.33z"/>
			</g>
			<rect x="256" y="1703.33" class="st57" width="19.89" height="3.67"/>
			<path class="st59" d="M282.71,1707h1.37c0.45,0,0.81-0.36,0.81-0.81v-2.69c0-0.83-0.67-1.5-1.5-1.5h0c-0.83,0-1.5,0.67-1.5,1.5
				v2.69C281.89,1706.64,282.26,1707,282.71,1707z"/>
		</g>
		<path class="st56" d="M135.99,1717.7c-2.09-0.65-4.16-0.81-6.14-0.56c-1.9,0.24-3.57-1.14-4.02-3.01
			c-1.58-6.62-7.02-11.94-14.16-13.01c-2.81-0.42-5.57-0.13-8.09,0.73c-2.49,0.85-5.16-0.24-6.29-2.62
			c-2.89-6.08-8.78-10.59-16.07-11.31c-10.14-1.01-19.65,6.11-21.55,16.12c-2.13,11.2,5.49,21.81,16.65,23.48
			c6.1,0.91,11.96-1.04,16.23-4.84c1.75,6.36,7.09,11.42,14.03,12.46c3.84,0.57,7.55-0.18,10.72-1.9
			c0.77,6.28,5.62,11.54,12.19,12.52c8.41,1.26,16.2-5,16.57-13.73C146.32,1725.6,142.12,1719.62,135.99,1717.7z"/>
		<path class="st56" d="M16,1713c1.53-10.43,3.66-21.69,6.65-33.61c1.47-5.86,3.04-11.46,4.68-16.82c0.65-2.11,3.66-2.1,4.27,0.02
			c1.55,5.34,3.03,10.94,4.4,16.8c2.79,11.96,4.71,23.22,6.01,33.61H16z"/>
		<rect y="1701" class="st56" width="44" height="128"/>
		<g>
			<path class="st57" d="M61.59,1679l-7.41,11.11c-0.37,0.56-1,0.89-1.66,0.89H38.59v93h31v-93L61.59,1679z"/>
			<rect x="38.59" y="1691" class="st9" width="13" height="93"/>
			<path class="st58" d="M36.68,1691h15.84c0.67,0,1.29-0.33,1.66-0.89l6.61-9.92c0.38-0.57,1.21-0.57,1.59,0l7.21,10.81h1.75
				c0.53,0,0.84-0.59,0.54-1.03l-9.87-14.36c-0.26-0.38-0.7-0.61-1.17-0.61H46.19c-0.37,0-0.71,0.19-0.91,0.5l-9.11,14.57
				C35.92,1690.48,36.21,1691,36.68,1691z"/>
			<path class="st59" d="M61.28,1699H59.9c-0.45,0-0.81-0.36-0.81-0.81v-2.69c0-0.83,0.67-1.5,1.5-1.5l0,0c0.83,0,1.5,0.67,1.5,1.5
				v2.69C62.09,1698.64,61.73,1699,61.28,1699z"/>
			<rect x="38.59" y="1691" class="st57" width="15" height="3"/>
		</g>
		<path class="st60" d="M299.63,1712.06l-0.17,0.21c-2.8,3.57-6.36,6.45-10.35,8.62c-0.46,0.25-0.92,0.51-1.37,0.77
			c-2.89,1.69-6.05,2.88-9.36,3.51l-1.16,0.22c-3.68,0.7-7.49,0.78-11.15,0c-4.56-0.98-9.3-1.06-13.95-0.22l-5.98,1.09
			c-10.68,1.94-17.76,12.17-15.82,22.85l1.25,79.89H320v-128.87C312.11,1701.36,304.78,1705.51,299.63,1712.06z"/>
		<path class="st56" d="M151.06,1767c1.29-8.8,3.09-18.3,5.61-28.36c1.24-4.94,2.56-9.67,3.95-14.19c0.54-1.78,3.08-1.77,3.6,0.02
			c1.31,4.51,2.56,9.23,3.71,14.18c2.36,10.09,3.97,19.6,5.07,28.36H151.06z"/>
		<path class="st56" d="M24,1701c-1.3-10.39-3.21-21.65-6.01-33.61c-1.37-5.86-2.85-11.46-4.4-16.8c-0.62-2.12-3.63-2.13-4.27-0.02
			c-1.64,5.35-3.21,10.96-4.68,16.82c-1.86,7.42-3.39,14.59-4.65,21.46V1701H24z"/>
		<g>
			<path class="st9" d="M200.3,1718l7.41,11.11c0.37,0.56,1,0.89,1.66,0.89h32.52v57.67H208.3h-16V1730L200.3,1718z"/>
			<polygon class="st57" points="192.3,1734 202.3,1720 200.3,1717 192.3,1730 			"/>
			
				<rect x="210.3" y="1730" transform="matrix(-1 1.871380e-11 -1.871380e-11 -1 452.1945 3517.6667)" class="st57" width="31.59" height="57.67"/>
			<path class="st58" d="M243.39,1730h-34.02c-0.67,0-1.29-0.33-1.66-0.89l-6.61-9.92c-0.38-0.57-1.21-0.57-1.59,0L192.3,1730h-1.75
				c-0.53,0-0.84-0.59-0.54-1.03l9.87-14.36c0.26-0.38,0.7-0.61,1.17-0.61h32.85c0.37,0,0.71,0.19,0.91,0.5l9.11,14.57
				C244.16,1729.48,243.87,1730,243.39,1730z"/>
			<path class="st57" d="M201.02,1738h1.37c0.45,0,0.81-0.36,0.81-0.81v-2.69c0-0.83-0.67-1.5-1.5-1.5l0,0c-0.83,0-1.5,0.67-1.5,1.5
				v2.69C200.21,1737.64,200.58,1738,201.02,1738z"/>
		</g>
		<g>
			<path class="st57" d="M113.51,1711l-7.41,11.11c-0.37,0.56-1,0.89-1.66,0.89H62.51v44h43h16v-44L113.51,1711z"/>
			<rect x="62.51" y="1723" class="st9" width="41" height="52"/>
			<path class="st58" d="M60.61,1723h43.84c0.67,0,1.29-0.33,1.66-0.89l6.61-9.92c0.38-0.57,1.21-0.57,1.59,0l7.21,10.81h1.75
				c0.53,0,0.84-0.59,0.54-1.03l-9.87-14.36c-0.26-0.38-0.7-0.61-1.17-0.61H70.11c-0.37,0-0.71,0.19-0.91,0.5l-9.11,14.57
				C59.84,1722.48,60.13,1723,60.61,1723z"/>
			<path class="st59" d="M113.2,1731h-1.37c-0.45,0-0.81-0.36-0.81-0.81v-2.69c0-0.83,0.67-1.5,1.5-1.5h0c0.83,0,1.5,0.67,1.5,1.5
				v2.69C114.01,1730.64,113.65,1731,113.2,1731z"/>
			<rect x="62.51" y="1723" class="st57" width="43" height="3"/>
		</g>
		<path class="st56" d="M138.03,1792h127.5c1.54-2.95,2.44-6.33,2.48-9.96c0.11-10.44-7.44-19.65-17.69-21.64
			c-2.36-0.46-4.69-0.52-6.93-0.24c-3.4,0.43-6.66-1.22-8.38-4.18c-3.16-5.45-8.6-9.53-15.11-10.66c-7.91-1.37-15.46,1.65-20.3,7.22
			c-1.86,2.14-4.98,2.63-7.31,1.01c-2.43-1.69-5.3-2.83-8.44-3.22c-7.86-0.97-15.17,3.06-18.79,9.59c-1.01,1.82-3.34,2.73-5.26,1.95
			c-1.93-0.79-4.08-1.21-6.36-1.16c-5.62,0.12-10.79,3.35-13.5,8.27c-1.49,2.7-1.98,5.41-1.91,8.01V1792z"/>
		<g>
			<g>
				<rect x="113.35" y="1743" class="st9" width="20.19" height="32"/>
				
					<rect x="133.54" y="1743" transform="matrix(-1 -4.481982e-11 4.481982e-11 -1 292.0706 3518)" class="st57" width="25" height="32"/>
			</g>
			<path class="st59" d="M150.72,1755h-1.37c-0.45,0-0.81-0.36-0.81-0.81v-2.69c0-0.83,0.67-1.5,1.5-1.5l0,0
				c0.83,0,1.5,0.67,1.5,1.5v2.69C151.54,1754.64,151.17,1755,150.72,1755z"/>
			<path class="st59" d="M142.72,1755h-1.37c-0.45,0-0.81-0.36-0.81-0.81v-2.69c0-0.83,0.67-1.5,1.5-1.5l0,0
				c0.83,0,1.5,0.67,1.5,1.5v2.69C143.54,1754.64,143.17,1755,142.72,1755z"/>
			<path class="st60" d="M159.86,1741.79l-21.48-15.46c-1.11-0.8-2.6-0.81-3.72-0.03l-22.37,15.49c-0.54,0.37-0.27,1.21,0.38,1.21
				h46.8C160.12,1743,160.38,1742.17,159.86,1741.79z"/>
			<rect x="112" y="1743" transform="matrix(-1 -4.195545e-11 4.195545e-11 -1 270 3489)" class="st57" width="46" height="3"/>
			<path class="st58" d="M112.29,1741.79l22.37-15.49c0.16-0.11,0.33-0.2,0.5-0.28c0.05-0.02,0.1-0.04,0.16-0.06
				c0.13-0.05,0.25-0.09,0.39-0.13c0.06-0.01,0.11-0.03,0.17-0.04c0.14-0.03,0.27-0.04,0.41-0.05c0.05,0,0.09-0.01,0.14-0.01
				c0.18,0,0.37,0,0.55,0.03c0,0,0,0,0,0l-1.94,9.69c-0.57,2.87,1.62,5.54,4.55,5.54h19.17l1.1,0.79c0.52,0.38,0.26,1.21-0.39,1.21
				h-25.94h-1.5h-19.37C112.01,1743,111.75,1742.16,112.29,1741.79z"/>
		</g>
		<path class="st58" d="M270.12,1787.94c-27.42-23.45-58.06-29.11-87.29-16.13l-4.89,2.17c-5.62,2.49-12.1,1.84-17.18-1.63
			c-24.78-16.94-51.64-19.98-77.4-8.54L0,1801v110h320v-84L270.12,1787.94z"/>
		<path class="st58" d="M320,1911v-74.56l-51.88-40.5c-27.42-23.45-58.06-29.11-87.29-16.13l-4.89,2.17
			c-5.62,2.49-12.1,1.84-17.18-1.63c-24.78-16.94-51.64-19.98-77.4-8.54L0,1808.11V1911H320z"/>
		<path class="st56" d="M89.21,1692.02l6.22-3.76c0.37-0.22,0.28-0.78-0.13-0.88l0,0c-1.75-0.43-3.59-0.15-5.13,0.78h0l0,0
			c-0.93-1.54-2.43-2.65-4.18-3.08h0c-0.42-0.1-0.75,0.35-0.53,0.72L89.21,1692.02z"/>
		<path class="st60" d="M185.41,1773h-0.83c-0.32,0-0.59-0.26-0.59-0.59v-4.83c0-0.32,0.26-0.59,0.59-0.59h0.83
			c0.32,0,0.59,0.26,0.59,0.59v4.83C186,1772.74,185.74,1773,185.41,1773z"/>
		<path class="st56" d="M113.41,1703h-0.83c-0.32,0-0.59-0.26-0.59-0.59v-4.83c0-0.32,0.26-0.59,0.59-0.59h0.83
			c0.32,0,0.59,0.26,0.59,0.59v4.83C114,1702.74,113.74,1703,113.41,1703z"/>
		<path class="st60" d="M125.33,1775h-0.66c-0.37,0-0.67-0.3-0.67-0.67v-0.66c0-0.37,0.3-0.67,0.67-0.67h0.66
			c0.37,0,0.67,0.3,0.67,0.67v0.66C126,1774.7,125.7,1775,125.33,1775z"/>
		<path class="st60" d="M179.33,1793h-0.66c-0.37,0-0.67-0.3-0.67-0.67v-0.66c0-0.37,0.3-0.67,0.67-0.67h0.66
			c0.37,0,0.67,0.3,0.67,0.67v0.66C180,1792.7,179.7,1793,179.33,1793z"/>
		<path class="st55" d="M87.33,1701h-0.66c-0.37,0-0.67-0.3-0.67-0.67v-0.66c0-0.37,0.3-0.67,0.67-0.67h0.66
			c0.37,0,0.67,0.3,0.67,0.67v0.66C88,1700.7,87.7,1701,87.33,1701z"/>
		<path class="st55" d="M79.33,1697h-0.66c-0.37,0-0.67-0.3-0.67-0.67v-0.66c0-0.37,0.3-0.67,0.67-0.67h0.66
			c0.37,0,0.67,0.3,0.67,0.67v0.66C80,1696.7,79.7,1697,79.33,1697z"/>
		<path class="st60" d="M175.33,1799h-0.66c-0.37,0-0.67-0.3-0.67-0.67v-0.66c0-0.37,0.3-0.67,0.67-0.67h0.66
			c0.37,0,0.67,0.3,0.67,0.67v0.66C176,1798.7,175.7,1799,175.33,1799z"/>
		<path class="st58" d="M48,1673.64v-2.87c0-0.68-0.83-1.03-1.31-0.54l-4.46,4.46c-0.48,0.48-0.14,1.31,0.54,1.31h2.87
			C46.94,1676,48,1674.94,48,1673.64z"/>
		<path class="st60" d="M81.35,1771.82c25.77-11.44,52.62-8.4,77.4,8.54c5.07,3.47,11.56,4.13,17.18,1.63l4.89-2.17
			c29.24-12.98,59.87-7.32,87.29,16.13l51.88,40.5V1827l-49.88-39.06c-27.42-23.45-58.06-29.11-87.29-16.13l-4.89,2.17
			c-5.62,2.49-12.1,1.84-17.18-1.63c-24.78-16.94-51.64-19.98-77.4-8.54L0,1801v7.11L81.35,1771.82z"/>
	</g>
</g>
<g id="_x33__00000150784116898789853780000012635840894519326891_">
</g>
<g id="_x32__00000155142127021454457340000001118262530934973368_">
</g>
<g id="_x31__00000176748215646741422430000014996548749285466274_">
</g>
<g id="Full">
</g>
<g id="Guide">
</g>
</svg>
