<?xml version="1.0" encoding="utf-8"?>
<!-- Generator: Adobe Illustrator 26.0.2, SVG Export Plug-In . SVG Version: 6.00 Build 0)  -->
<svg version="1.1" xmlns="http://www.w3.org/2000/svg" xmlns:xlink="http://www.w3.org/1999/xlink" x="0px" y="0px"
	 viewBox="0 0 320 1911" style="enable-background:new 0 0 320 1911;" xml:space="preserve">
<style type="text/css">
	.st0{fill:#190128;}
	.st1{fill:#98FF8F;}
	.st2{fill:#5B205C;}
	.st3{fill:#E3CF7F;}
	.st4{fill:#36114A;}
	.st5{opacity:0.5;fill:#FFFFFF;}
	.st6{fill:#1F032F;}
	.st7{fill:#260638;}
	.st8{opacity:0.25;fill:#FFF5EF;}
	.st9{fill:#FFF5EF;}
	.st10{fill:#521C57;}
	.st11{fill:#56577A;}
	.st12{opacity:0.5;fill:#9EEBCC;}
	.st13{opacity:0.75;fill:#FFF5EF;}
	.st14{opacity:0.75;fill:#C0E37F;}
	.st15{fill:#56888F;}
	.st16{fill:#C0E37F;}
	.st17{fill:#54A89C;}
	.st18{fill:#51C9A9;}
	.st19{opacity:0.5;fill:#FFF5EF;}
	.st20{fill:#9EEBCC;}
	.st21{fill:#8DD4BB;}
	.st22{fill:#B9D8C3;}
	.st23{opacity:0.75;fill:#FFFF8F;}
	.st24{fill:#CBDFCA;}
	.st25{opacity:0.15;fill:#FFF5EF;}
	.st26{opacity:0.25;fill:#C2A9C2;}
	.st27{fill:#C2A9C2;}
	.st28{fill:#81B8B3;}
	.st29{fill:#718FA1;}
	.st30{fill:#EAE3C7;}
	.st31{fill:#FAD8AC;}
	.st32{fill:#FFE6D5;}
	.st33{opacity:0.35;fill:#FFFFFF;}
	.st34{opacity:0.15;fill:#FFFFFF;}
	.st35{fill:#FFD1A1;}
	.st36{fill:#FFC483;}
	.st37{fill:#FFC98E;}
	.st38{fill:#FFD8BB;}
	.st39{opacity:0.5;}
	.st40{fill:#FFB776;}
	.st41{fill:#FFC183;}
	.st42{opacity:0.75;}
	.st43{fill:#EDA876;}
	.st44{fill:#E89D6B;}
	.st45{opacity:0.5;fill:#E89D6B;}
	.st46{fill:#FFFFFF;}
	.st47{fill:#E58373;}
	.st48{fill:#DD9268;}
	.st49{fill:#D68968;}
	.st50{fill:#FFCBA4;}
	.st51{fill:#C67466;}
	.st52{fill:#CAEACA;}
	.st53{fill:#E0F2DF;}
	.st54{fill:#BA6D61;}
	.st55{fill:#AC655F;}
	.st56{fill:#A45D5F;}
	.st57{fill:#FFB187;}
	.st58{fill:#8D4B61;}
	.st59{fill:#E08977;}
	.st60{fill:#9C555F;}
	.st61{fill:#56435D;}
	.st62{fill:#614B63;}
	.st63{fill:#7F3B59;}
	.st64{fill:#4D3E54;}
	.st65{fill:#32253F;}
	.st66{fill:#2B1B37;}
	.st67{fill:#5B2950;}
	.st68{fill:#4A1E45;}
	.st69{fill:#662E55;}
	.st70{fill:#382A44;}
	.st71{opacity:0.05;fill:#FFFFFF;}
	.st72{fill:#250C33;}
	.st73{fill:#300F39;}
	.st74{fill:#FF00CF;}
</style>
<g id="_x31_9__x28_Rest_of_Sky_x29_">
</g>
<g id="_x31_8__x28_Cloud_Layer_7_x29_">
</g>
<g id="_x31_7__x28_Cloud_Layer_6_x29_">
</g>
<g id="_x31_6__x28_Cloud_Layer_5_x29_">
</g>
<g id="_x31_5">
</g>
<g id="_x31_4">
</g>
<g id="_x31_3__x28_Cloud_Layer_4__x2B__Aircraft_x29_">
</g>
<g id="_x31_2_00000053541090334089295900000016410686384436047024_">
</g>
<g id="_x31_1__x28_Cloud_Layer_3__x2B__Higher_Birds_x29_">
</g>
<g id="_x31_0__x28__x2B__Nearby_Birds_x29_">
</g>
<g id="_x39___x28_Cloud_Layer_2_x29_">
</g>
<g id="_x38___x28__x2B__Nearby_Birds_x29_">
</g>
<g id="_x37___x28_Cloud_Layer_1_x29_">
</g>
<g id="_x36__00000068661700993368236970000009778035845983078308_">
</g>
<g id="_x35__00000078044523084173153740000012161118921027427980_">
</g>
<g id="_x34__00000014591708090884853300000012924613216120282812_">
</g>
<g id="_x33__00000150784116898789853780000012635840894519326891_">
</g>
<g id="_x32__00000155142127021454457340000001118262530934973368_">
</g>
<g id="_x31__00000176748215646741422430000014996548749285466274_">
	<g>
		<g>
			<path class="st71" d="M0,1813h76.55l-4.57-7.97c-5.86-10.23-19.05-15.53-31.5-12.65c-6.85,1.58-14.19-0.58-18.69-5.5l-5.1-5.58
				c-4.47-4.9-10.27-8.58-16.7-10.8V1813z"/>
			<path class="st71" d="M320,1763.78l-1.99-0.14c-13.14-0.93-26.06,4.01-34.4,13.14l-5.09,5.58c-4.5,4.92-11.84,7.08-18.69,5.5
				c-12.45-2.87-25.64,2.43-31.5,12.65L217,1821h103V1763.78z"/>
		</g>
		<g>
			<g>
				<path class="st0" d="M312.93,1793c-1.7-11.61-4.07-24.13-7.4-37.4c-1.63-6.52-3.38-12.76-5.2-18.72
					c-0.72-2.35-4.07-2.34-4.75,0.02c-1.73,5.94-3.38,12.18-4.9,18.69c-3.11,13.31-5.24,25.84-6.68,37.4H312.93z"/>
				<path class="st72" d="M293.6,1793c-0.29-10.38,0.14-22.32,2.03-35.43c1.12-7.78,2.61-14.97,4.27-21.5
					c-1.15-1.48-3.73-1.2-4.33,0.84c-1.73,5.94-3.38,12.18-4.9,18.69c-3.11,13.31-5.24,25.84-6.68,37.4H293.6z"/>
			</g>
			<g>
				<path class="st0" d="M294.93,1816.87c-1.7-11.61-4.07-24.13-7.4-37.4c-1.63-6.52-3.38-12.76-5.2-18.72
					c-0.72-2.35-4.07-2.34-4.75,0.02c-1.73,5.94-3.38,12.18-4.9,18.69c-3.11,13.31-5.24,25.84-6.68,37.4H294.93z"/>
				<path class="st72" d="M275.6,1816.87c-0.29-10.38,0.14-22.32,2.03-35.43c1.12-7.78,2.61-14.97,4.27-21.5
					c-1.15-1.48-3.73-1.2-4.33,0.84c-1.73,5.94-3.38,12.18-4.9,18.69c-3.11,13.31-5.24,25.84-6.68,37.4H275.6z"/>
			</g>
			<g>
				<rect x="34.18" y="1773.37" class="st72" width="6" height="35.63"/>
				<path class="st73" d="M40.18,1806.37h-3v-18.19c0-1.55,1.26-2.81,2.81-2.81h0.19V1806.37z"/>
				<path class="st72" d="M46.52,1766.82l6.92,2.11c1.1,0.33,2.01-0.89,1.38-1.85l-9.97-15.18c-0.61-0.92,0.22-2.11,1.3-1.87
					l6.37,1.46c1.03,0.24,1.86-0.86,1.35-1.78l-9.25-16.9c-0.53-0.96,0.38-2.08,1.43-1.76l3.05,0.93c1.08,0.33,1.99-0.85,1.4-1.81
					l-12.28-20.2c-0.48-0.79-1.62-0.79-2.1,0l-12.28,20.2c-0.58,0.96,0.33,2.14,1.4,1.81l3.05-0.93c1.05-0.32,1.96,0.8,1.43,1.76
					l-9.25,16.9c-0.51,0.93,0.32,2.02,1.35,1.78l6.37-1.46c1.08-0.25,1.9,0.95,1.3,1.87l-9.97,15.18c-0.63,0.96,0.28,2.18,1.38,1.85
					l6.92-2.11c1.11-0.34,2.02,0.91,1.37,1.86l-10.99,16.07c-0.66,0.97,0.28,2.22,1.39,1.86L36.8,1781c0.25-0.08,0.51-0.08,0.76,0
					l17.19,5.61c1.11,0.36,2.05-0.89,1.39-1.86l-10.99-16.07C44.5,1767.73,45.42,1766.48,46.52,1766.82z"/>
				<path class="st73" d="M56.15,1784.76l-10.99-16.07c-0.65-0.96,0.26-2.2,1.37-1.86l6.92,2.11c1.1,0.33,2.01-0.89,1.38-1.85
					l-9.97-15.18c-0.61-0.92,0.22-2.11,1.3-1.87l6.37,1.46c1.03,0.24,1.86-0.86,1.35-1.78l-9.25-16.9
					c-0.53-0.96,0.38-2.08,1.43-1.76l3.05,0.93c1.08,0.33,1.99-0.85,1.4-1.81l-12.28-20.2c-0.33-0.54-0.96-0.7-1.48-0.5l7.14,15.71
					c0.53,1.16-0.38,2.46-1.65,2.37h0c-1.17-0.08-2.07,1.04-1.72,2.16l4.1,13.39c0.37,1.2-0.67,2.37-1.91,2.14l-0.67-0.13
					c-1.21-0.23-2.25,0.89-1.93,2.08l3.64,13.7c0.28,1.06-0.52,2.11-1.62,2.11h-1.7c-1.08,0-1.88,1.01-1.63,2.06l4.21,17.73
					l11.75,3.83C55.87,1786.98,56.81,1785.72,56.15,1784.76z"/>
			</g>
			<path class="st72" d="M75.79,1796.28l-9.89-8.04c-0.58-0.47-0.3-1.42,0.44-1.49h0c3.14-0.33,6.28,0.61,8.72,2.6h0l0,0
				c1.99-2.45,4.86-4.01,8-4.34h0c0.75-0.08,1.22,0.79,0.74,1.37L75.79,1796.28z"/>
			<g>
				<path class="st72" d="M109.58,1819h-1.16c-0.51,0-0.92-0.41-0.92-0.92v-16.16c0-0.51,0.41-0.92,0.92-0.92h1.16
					c0.51,0,0.92,0.41,0.92,0.92v16.16C110.5,1818.59,110.09,1819,109.58,1819z"/>
				<path class="st72" d="M115.08,1818.92h-1.16c-0.51,0-0.92-0.41-0.92-0.92v-11.08c0-0.51,0.41-0.92,0.92-0.92h1.16
					c0.51,0,0.92,0.41,0.92,0.92V1818C116,1818.51,115.59,1818.92,115.08,1818.92z"/>
			</g>
			<path class="st72" d="M222.29,1812.44l10.23-6.19c0.6-0.37,0.46-1.28-0.22-1.45l0,0c-2.87-0.71-5.91-0.25-8.44,1.29h0l0,0
				c-1.53-2.53-4-4.36-6.88-5.07h0c-0.68-0.17-1.23,0.57-0.87,1.18L222.29,1812.44z"/>
			<g>
				<path class="st0" d="M320,1911v-131.09l-32.48,11.81c-2.24,0.82-4.73,0.67-6.86-0.39l-14.16-7.08
					c-3.76-1.88-8.33-0.8-10.85,2.56l-16.47,21.96c-1.95,2.6-5.18,3.9-8.39,3.36l-12.14-2.02c-3.91-0.65-7.77,1.42-9.38,5.05
					l-13.24,23.57c-1.93,3.43-3.52,7.02-4.76,10.72l-19.61,10.27c-4.89,2.56-10.61,2.99-15.82,1.18l-1.08-0.41
					c-1.53-10.11-4.45-19.98-8.71-29.33l-7.49-16.42c-1.52-3.43-5.08-5.5-8.81-5.12l-28.25,2.83c-3.35,0.33-6.59-1.29-8.32-4.18
					l-6.14-10.23c-1.83-3.05-5.33-4.68-8.83-4.11L0,1806.44V1911H320z"/>
			</g>
			<g>
				<path class="st72" d="M74.34,1804.51l11.53,17.3c1.31,1.96,3.6,3.03,5.94,2.77l29.89-2.95c3.83-0.38,7.52,1.53,9.43,4.87
					l0.41,0.72c3.15,5.57,5.84,11.38,8.01,17.37c2.61,7.2,8.11,12.97,15.19,15.9c-1.53-10.11-4.43-19.98-8.7-29.33l-7.49-16.42
					c-1.52-3.43-5.08-5.5-8.81-5.12l-28.25,2.83c-3.35,0.33-6.59-1.29-8.32-4.18l-6.14-10.23c-1.83-3.05-5.33-4.68-8.83-4.11
					L0,1806.44v8.96l67.86-13.57C70.37,1801.33,72.92,1802.39,74.34,1804.51z"/>
			</g>
			<path class="st72" d="M296,1732.46v-4.31c0-1.03,1.24-1.54,1.96-0.81l6.7,6.7c0.73,0.73,0.21,1.96-0.81,1.96h-4.31
				C297.58,1736,296,1734.42,296,1732.46z"/>
			<path class="st72" d="M280.65,1791.33l-14.16-7.08c-3.76-1.88-8.33-0.8-10.85,2.56l-16.47,21.96c-1.95,2.6-5.18,3.9-8.39,3.36
				l-12.14-2.02c-3.91-0.65-7.77,1.42-9.38,5.05l-14.41,25.64c-1.59,2.83-2.9,5.79-3.94,8.83c9.47-4.96,17.13-12.77,21.92-22.32
				l2.33-4.66c1.12-2.24,3.4-3.65,5.9-3.65h20.02c2.13,0,4.13-1.03,5.37-2.76l15.19-21.27c1.68-2.36,4.71-3.34,7.46-2.43l16.78,5.59
				c1.66,0.55,3.47,0.42,5.04-0.36l29.05-14.53v-3.34l-32.48,11.81C285.27,1792.54,282.79,1792.39,280.65,1791.33z"/>
		</g>
	</g>
</g>
<g id="Full">
</g>
<g id="Guide">
</g>
</svg>
