<?xml version="1.0" encoding="utf-8"?>
<!-- Generator: Adobe Illustrator 26.0.2, SVG Export Plug-In . SVG Version: 6.00 Build 0)  -->
<svg version="1.1" xmlns="http://www.w3.org/2000/svg" xmlns:xlink="http://www.w3.org/1999/xlink" x="0px" y="0px"
	 viewBox="0 0 320 1911" style="enable-background:new 0 0 320 1911;" xml:space="preserve">
<style type="text/css">
	.st0{fill:#190128;}
	.st1{fill:#98FF8F;}
	.st2{fill:#5B205C;}
	.st3{fill:#E3CF7F;}
	.st4{fill:#36114A;}
	.st5{opacity:0.5;fill:#FFFFFF;}
	.st6{fill:#1F032F;}
	.st7{fill:#260638;}
	.st8{opacity:0.25;fill:#FFF5EF;}
	.st9{fill:#FFF5EF;}
	.st10{fill:#521C57;}
	.st11{fill:#56577A;}
	.st12{opacity:0.5;fill:#9EEBCC;}
	.st13{opacity:0.75;fill:#FFF5EF;}
	.st14{opacity:0.75;fill:#C0E37F;}
	.st15{fill:#56888F;}
	.st16{fill:#C0E37F;}
	.st17{fill:#54A89C;}
	.st18{fill:#51C9A9;}
	.st19{opacity:0.5;fill:#FFF5EF;}
	.st20{fill:#9EEBCC;}
	.st21{fill:#8DD4BB;}
	.st22{fill:#B9D8C3;}
	.st23{opacity:0.75;fill:#FFFF8F;}
	.st24{fill:#CBDFCA;}
	.st25{opacity:0.15;fill:#FFF5EF;}
	.st26{opacity:0.25;fill:#C2A9C2;}
	.st27{fill:#C2A9C2;}
	.st28{fill:#81B8B3;}
	.st29{fill:#718FA1;}
	.st30{fill:#EAE3C7;}
	.st31{fill:#FAD8AC;}
	.st32{fill:#FFE6D5;}
	.st33{opacity:0.35;fill:#FFFFFF;}
	.st34{opacity:0.15;fill:#FFFFFF;}
	.st35{fill:#FFD1A1;}
	.st36{fill:#FFC483;}
	.st37{fill:#FFC98E;}
	.st38{fill:#FFD8BB;}
	.st39{opacity:0.5;}
	.st40{fill:#FFB776;}
	.st41{fill:#FFC183;}
	.st42{opacity:0.75;}
	.st43{fill:#EDA876;}
	.st44{fill:#E89D6B;}
	.st45{opacity:0.5;fill:#E89D6B;}
	.st46{fill:#FFFFFF;}
	.st47{fill:#E58373;}
	.st48{fill:#DD9268;}
	.st49{fill:#D68968;}
	.st50{fill:#FFCBA4;}
	.st51{fill:#C67466;}
	.st52{fill:#CAEACA;}
	.st53{fill:#E0F2DF;}
	.st54{fill:#BA6D61;}
	.st55{fill:#AC655F;}
	.st56{fill:#A45D5F;}
	.st57{fill:#FFB187;}
	.st58{fill:#8D4B61;}
	.st59{fill:#E08977;}
	.st60{fill:#9C555F;}
	.st61{fill:#56435D;}
	.st62{fill:#614B63;}
	.st63{fill:#7F3B59;}
	.st64{fill:#4D3E54;}
	.st65{fill:#32253F;}
	.st66{fill:#2B1B37;}
	.st67{fill:#5B2950;}
	.st68{fill:#4A1E45;}
	.st69{fill:#662E55;}
	.st70{fill:#382A44;}
	.st71{opacity:0.05;fill:#FFFFFF;}
	.st72{fill:#250C33;}
	.st73{fill:#300F39;}
	.st74{fill:#FF00CF;}
</style>
<g id="_x31_9__x28_Rest_of_Sky_x29_">
</g>
<g id="_x31_8__x28_Cloud_Layer_7_x29_">
</g>
<g id="_x31_7__x28_Cloud_Layer_6_x29_">
</g>
<g id="_x31_6__x28_Cloud_Layer_5_x29_">
</g>
<g id="_x31_5">
</g>
<g id="_x31_4">
</g>
<g id="_x31_3__x28_Cloud_Layer_4__x2B__Aircraft_x29_">
	<g>
		<g>
			<path class="st29" d="M0.32,520.69h115c0.55,0,1-0.45,1-1l0,0c0-0.55-0.45-1-1-1h-115V520.69z"/>
			<g>
				<path class="st9" d="M137.73,518.96l-0.02-0.02c-2.2-1.47-4.79-2.25-7.44-2.25h-9.94v4h16.88
					C138.14,520.69,138.5,519.48,137.73,518.96z"/>
				<path class="st28" d="M130.32,516.69l-8.69-3.47c-0.63-0.25-1.31,0.21-1.31,0.89v2.59H130.32z"/>
				<path class="st28" d="M119.32,520.69h1v-4h-1c-0.55,0-1,0.45-1,1v2C118.32,520.24,118.77,520.69,119.32,520.69z"/>
			</g>
		</g>
		<g>
			<path class="st9" d="M161.6,887.27l0.02-0.02c2.2-1.47,4.79-2.25,7.44-2.25H179v4h-16.88C161.19,889,160.82,887.79,161.6,887.27z
				"/>
			<path class="st20" d="M169,885l8.69-3.47c0.63-0.25,1.31,0.21,1.31,0.89V885H169z"/>
			<path class="st20" d="M180,889h-1v-4h1c0.55,0,1,0.45,1,1v2C181,888.55,180.55,889,180,889z"/>
			<path class="st20" d="M183,888c0,0.55,0.45,1,1,1h136v-2H184C183.45,887,183,887.45,183,888z"/>
		</g>
		<g>
			<path class="st9" d="M235,1245.97l9.1-5.52c3.03-1.84,6.82-1.91,9.91-0.19h0c2.53,1.41,5.55,1.63,8.26,0.61l8.44-3.17
				c7.18-2.69,15.16-2.17,21.93,1.43l12.86,6.84H235z"/>
			<path class="st19" d="M86,1250.04l-15.55-9.44c-5.18-3.15-11.65-3.27-16.95-0.33c-4.32,2.4-9.48,2.79-14.11,1.05l-14.43-5.41
				c-8.05-3.02-16.7-3.66-24.96-2.01v16.14H86z"/>
		</g>
		<g>
			<path class="st32" d="M133.63,1302.97l-6.03,3.88c-3.54,2.27-7.99,2.6-11.82,0.86l-2.89-1.31c-3.48-1.58-7.5-1.47-10.89,0.32
				l-19.77,10.41h86l-21.04-14.03C143.1,1300.35,137.78,1300.3,133.63,1302.97z"/>
			<path class="st33" d="M225,1300l-5-3c-5.94-3.57-13.3-3.85-19.49-0.75L193,1300H225z"/>
		</g>
	</g>
</g>
<g id="_x31_2_00000053541090334089295900000016410686384436047024_">
</g>
<g id="_x31_1__x28_Cloud_Layer_3__x2B__Higher_Birds_x29_">
</g>
<g id="_x31_0__x28__x2B__Nearby_Birds_x29_">
</g>
<g id="_x39___x28_Cloud_Layer_2_x29_">
</g>
<g id="_x38___x28__x2B__Nearby_Birds_x29_">
</g>
<g id="_x37___x28_Cloud_Layer_1_x29_">
</g>
<g id="_x36__00000068661700993368236970000009778035845983078308_">
</g>
<g id="_x35__00000078044523084173153740000012161118921027427980_">
</g>
<g id="_x34__00000014591708090884853300000012924613216120282812_">
</g>
<g id="_x33__00000150784116898789853780000012635840894519326891_">
</g>
<g id="_x32__00000155142127021454457340000001118262530934973368_">
</g>
<g id="_x31__00000176748215646741422430000014996548749285466274_">
</g>
<g id="Full">
</g>
<g id="Guide">
</g>
</svg>
