<svg enable-background="new 0 0 500 375" viewBox="0 0 500 375" xmlns="http://www.w3.org/2000/svg"><path d="m0 245.34h19.77c-1.19-9.51-2.94-19.81-5.5-30.76-1.25-5.36-2.61-10.49-4.03-15.38-.56-1.94-3.32-1.95-3.91-.02-1.5 4.9-2.94 10.03-4.28 15.39-.74 2.96-1.42 5.87-2.05 8.73v22.04z" fill="#8d4b61"/><path d="m11.87 245.34c.24-8.54-.12-18.35-1.67-29.14-.92-6.4-2.15-12.31-3.52-17.69.95-1.22 3.07-.99 3.56.69 1.42 4.89 2.78 10.02 4.03 15.38 2.56 10.95 4.31 21.25 5.5 30.76z" fill="#9c555f"/><path d="m34.2 240.59c1.4-9.55 3.35-19.85 6.08-30.76 1.34-5.36 2.78-10.49 4.28-15.39.59-1.93 3.35-1.92 3.91.02 1.42 4.89 2.78 10.02 4.03 15.38 2.56 10.95 4.31 21.25 5.5 30.76h-23.8z" fill="#8d4b61"/><path d="m50.11 240.57c.24-8.54-.12-18.35-1.67-29.14-.92-6.4-2.15-12.31-3.52-17.69.95-1.22 3.07-.99 3.56.69 1.42 4.89 2.78 10.02 4.03 15.38 2.56 10.95 4.31 21.25 5.5 30.76z" fill="#9c555f"/><path d="m163.24 397-6.2-95.63c-.67-6-3.69-11.49-8.4-15.26l-6.37-5.1c-4.05-3.24-6.88-7.77-8-12.84l-4.96-22.32c-.72-3.24-3.92-5.3-7.17-4.6l-50.14 10.75-40-12-32 12v145z" fill="#32253f"/><path d="m108 280h-1c-.55 0-1-.45-1-1v-1c0-.55.45-1 1-1h1c.55 0 1 .45 1 1v1c0 .55-.45 1-1 1z" fill="#2b1b37"/><path d="m40 269h-1c-.55 0-1-.45-1-1v-1c0-.55.45-1 1-1h1c.55 0 1 .45 1 1v1c0 .55-.45 1-1 1z" fill="#2b1b37"/><path d="m91 319h-1c-.55 0-1-.45-1-1v-1c0-.55.45-1 1-1h1c.55 0 1 .45 1 1v1c0 .55-.45 1-1 1z" fill="#382a44"/><path d="m99 321.5h-1c-.55 0-1-.45-1-1v-.99c0-.55.45-1 1-1h1c.55 0 1 .45 1 1v.99c0 .55-.45 1-1 1z" fill="#2b1b37"/><path d="m20.31 257.35 2.75-1.37c7.69-3.84 16.53-4.69 24.81-2.37l26.61 7.45c6.85 1.92 14.12 1.63 20.79-.83l21.33-7.86c4.19-1.54 8.72-1.92 13.11-1.1l.83.16-1.23-5.56c-.72-3.24-3.92-5.3-7.17-4.6l-50.14 10.73-40-12-32 12v9h4.83c5.37 0 10.67-1.25 15.48-3.65z" fill="#2b1b37"/><path d="m163.24 397-6.2-95.63c-.67-6-3.69-11.49-8.4-15.26l-6.37-5.1c-4.05-3.24-6.88-7.77-8-12.84l-4.96-22.32c-.72-3.24-3.92-5.3-7.17-4.6l-2.31.49-2.68 26.77c-.71 7.06 2.54 13.93 8.45 17.87l2.21 1.48c7.2 4.8 10.29 13.82 7.56 22.03l-12.37 87.11z" fill="#382a44"/><path d="m118.66 347.09c.97-13.52-2.41-27.06-9.96-38.31-.05-.08-.11-.16-.16-.24-6.61-9.76-20.16-14.06-32.36-10.26-6.71 2.09-14.19.48-19.05-4.09l-5.5-5.18c-9-8.48-22.26-12.44-35.29-10.53l-16.34 2.38v116.14h115.09z" fill="#fff" opacity=".05"/><path d="m122.15 241.26-1.54.33-.77.17-.99 9.92c3.54-.94 7.26-1.09 10.87-.41l.83.16-1.23-5.56c-.36-1.62-1.34-2.94-2.64-3.78-.97-.62-2.12-.97-3.32-.96-.4 0-.81.04-1.21.13z" fill="#32253f"/><path d="m0 256h3.06c5.85 0 11.59-1.59 16.6-4.6 7.85-4.71 17.34-5.86 26.09-3.17l18.22 5.61c12.96 3.99 26.9 3.42 39.49-1.62l15.18-6.07c3.44-1.38 7.28-1.38 10.72-.01l-.35-2.59c-.61-4.51-4.01-8.14-8.47-9.03-8.26-1.65-16.78-1.45-24.95.59l-4.8 1.2c-9.64 2.41-19.78 1.83-29.08-1.66l-2.9-1.09c-9.63-3.61-20.16-4.1-30.09-1.39l-28.72 7.83z" fill="#5b2950"/><path d="m119.36 245.9c3.25-1.11 6.79-1.04 10 .24l-.35-2.59c-.6-4.47-3.94-8.12-8.36-9.01-8.29-1.68-16.85-1.48-25.06.57l-4.09 1.02 22.66 3.2c3.21.45 5.5 3.34 5.2 6.57z" fill="#662e55"/><path d="m34.78 233 5.24-7.01c.31-.41-.04-.99-.55-.92-2.15.31-4.08 1.46-5.38 3.19-1.73-1.3-3.91-1.86-6.06-1.55-.51.07-.68.73-.27 1.04z" fill="#5b2950"/><path d="m110.5 237h-1c-.28 0-.5-.22-.5-.5v-6c0-.28.22-.5.5-.5h1c.28 0 .5.22.5.5v6c0 .28-.22.5-.5.5z" fill="#662e55"/><path d="m8.5 241h-1c-.28 0-.5-.22-.5-.5v-6c0-.28.22-.5.5-.5h1c.28 0 .5.22.5.5v6c0 .28-.22.5-.5.5z" fill="#5b2950"/><path d="m12.5 239h-1c-.28 0-.5-.22-.5-.5v-6c0-.28.22-.5.5-.5h1c.28 0 .5.22.5.5v6c0 .28-.22.5-.5.5z" fill="#5b2950"/><path d="m34 240h-1c-.55 0-1-.45-1-1v-1c0-.55.45-1 1-1h1c.55 0 1 .45 1 1v1c0 .55-.45 1-1 1z" fill="#4a1e45"/><path d="m43 243h-1c-.55 0-1-.45-1-1v-1c0-.55.45-1 1-1h1c.55 0 1 .45 1 1v.99c0 .56-.45 1.01-1 1.01z" fill="#662e55"/><path d="m44.33 222h-.66c-.37 0-.67-.3-.67-.67v-.66c0-.37.3-.67.67-.67h.66c.37 0 .67.3.67.67v.66c0 .37-.3.67-.67.67z" fill="#9c555f"/><path d="m322.4 219h-.79c-.33 0-.6-.27-.6-.6v-29.17c0-.33.27-.6.6-.6h.79c.33 0 .6.27.6.6v29.17c0 .33-.27.6-.6.6z" fill="#ac655f"/><path d="m334.97 188.25h-1.5c-1.66 0-3-1.34-3-3v-2.25c0-1.66 1.34-3 3-3h1.5c1.66 0 3 1.34 3 3v2.25c0 1.66-1.34 3-3 3z" fill="#ffc483"/><path d="m332.72 186.75h3v3.75h-3z" fill="#ffc483"/><path d="m328.44 214.49h2.81v-4.48c0-1.1.38-2.17 1.06-3.03l.87-1.09c.2-.25.5-.39.82-.39h.19c.56 0 1.02.44 1.04.99l.51 10.26h2.81l.56-15.75h-7.88l-2.17 3.62c-.79 1.31-1.2 2.81-1.2 4.34z" fill="#56435d"/><path d="m339.12 188.62h-5.68c-1.81 0-3.45 1.07-4.19 2.72l-1.49 3.36 1.79 2.35 1.69-1.66v5.6h7.88z" fill="#7f3b59"/><path d="m327.77 194.71-1.2 2.25-4.14-2.49c-.65-.39-1.49-.04-1.68.69-.12.46.07.95.47 1.21l4.04 2.7c1.13.75 2.66.45 3.41-.68l.89-1.33z" fill="#ffc483"/><path d="m328.44 214.49c-1.24 0-2.25 1.01-2.25 2.25h2.25 2.81v-1.12-1.12h-2.81z" fill="#b2836f"/><path d="m336.5 186.75h6c1.66 0 3 1.34 3 3 0 1.66-1.34 3-3 3h-6z" fill="#9c555f"/><circle cx="336.5" cy="189.75" fill="#ac655f" r="3"/><circle cx="336.5" cy="189.75" fill="#9c555f" r="1.5"/><path d="m322.78 197h-1.57c-.53 0-.97-.43-.97-.97v-1.07c0-.53.43-.97.97-.97h1.57c.53 0 .97.43.97.97v1.07c0 .54-.43.97-.97.97z" fill="#ffc483"/><path d="m338.76 180.79-1.03-1.03c-.8-.8-1.89-1.25-3.03-1.25h-1.98-.79c1.14 0 2.23.45 3.03 1.25l1.03 1.03c.46.46.71 1.08.71 1.72v1.8c0 1.04-.66 1.93-1.58 2.27.27.1.56.16.86.16h1.05c1.35 0 2.44-1.09 2.44-2.44v-1.8c0-.64-.26-1.26-.71-1.71z" fill="#56435d"/><path d="m338.76 180.79-1.03-1.03c-.8-.8-1.89-1.25-3.03-1.25h-1.81-.17-1.11-.53c-1.24 0-2.25 1.01-2.25 2.25v1.5h1.64c.83 0 1.5.67 1.5 1.5v.01c0 1.65 1.34 2.99 2.99 2.99h2.07c1.35 0 2.44-1.09 2.44-2.44v-1.8c0-.66-.25-1.28-.71-1.73z" fill="#56435d"/><path d="m343.26 192.75h-6.78c-.68 0-1.24.55-1.24 1.24v8.02c0 .68.55 1.24 1.24 1.24h6.78c.68 0 1.24-.55 1.24-1.24v-8.02c0-.68-.55-1.24-1.24-1.24z" fill="#ac655f"/><path d="m337.26 192.75h-1.52c-.68 0-1.24.55-1.24 1.24v8.02c0 .68.55 1.24 1.24 1.24h1.52c.68 0 1.24-.55 1.24-1.24v-8.02c0-.68-.55-1.24-1.24-1.24z" fill="#c67466"/><path d="m335.25 201.5c-.97 0-1.75-.78-1.75-1.75v-1.9c0-.47.38-.85.85-.85h1.8c.47 0 .85.38.85.85v1.9c0 .97-.78 1.75-1.75 1.75z" fill="#ac655f"/><path d="m436 211.62c-1.4-9.55-3.35-19.85-6.08-30.76-1.34-5.36-2.78-10.49-4.28-15.39-.59-1.93-3.35-1.92-3.91.02-1.42 4.89-2.78 10.02-4.03 15.38-2.56 10.95-4.31 21.25-5.5 30.76h23.8z" fill="#ac655f"/><path d="m420.09 211.59c-.24-8.54.12-18.35 1.67-29.14.92-6.4 2.15-12.31 3.52-17.69-.95-1.22-3.07-.99-3.56.69-1.42 4.89-2.78 10.02-4.03 15.38-2.56 10.95-4.31 21.25-5.5 30.76z" fill="#c67466"/><path d="m393.7 224.02c1.23-8.42 2.96-17.52 5.37-27.14 1.19-4.73 2.45-9.26 3.78-13.58.52-1.7 2.95-1.7 3.45.02 1.25 4.31 2.45 8.84 3.56 13.57 2.26 9.66 3.8 18.75 4.85 27.14h-21.01z" fill="#c67466"/><path d="m451.18 193.42c-4.28-1.03-8.52.37-11.36 3.25-1.11 1.13-2.84 1.22-4.09.25-1.26-.99-2.77-1.69-4.45-2.01-4.27-.8-8.41 1.14-10.61 4.59-.62.97-1.84 1.43-2.88.91-1.07-.53-2.28-.85-3.6-.89-3.86-.12-7.43 2.44-8.55 6.14-1.52 5.03 1.67 10.13 6.7 11.07 3.92.74 7.72-1.29 9.39-4.7 1.46 1.6 3.42 2.77 5.71 3.2 4.15.78 8.18-1.04 10.43-4.31 1.67 3 4.62 5.27 8.26 5.96 6.67 1.26 13.09-3.27 14.1-10.05.9-6.06-3.09-11.98-9.05-13.41z" fill="#9c555f"/><path d="m392.73 199.97 6.98 1.89c.83.23 1.48-.73.97-1.42l-9.15-12.37c-.5-.67.1-1.6.91-1.43l6.39 1.3c.78.16 1.37-.69.96-1.37l-8.46-13.73c-.43-.7.22-1.57 1.01-1.36l3.48.94c.82.22 1.47-.69.99-1.39l-11.31-16.52c-.36-.53-1.14-.53-1.5 0l-11.31 16.52c-.48.7.17 1.61.99 1.39l3.48-.94c.8-.22 1.44.65 1.01 1.36l-8.46 13.73c-.42.68.17 1.53.96 1.37l6.39-1.3c.82-.17 1.41.76.91 1.43l-9.15 12.37c-.51.69.14 1.64.97 1.42l6.98-1.89c.84-.23 1.49.74.96 1.43l-10.11 13.13c-.54.7.13 1.67.97 1.43l12.04-3.49c2.7-.78 5.56-.78 8.26 0l12.04 3.49c.84.24 1.51-.73.97-1.43l-10.11-13.13c-.55-.68.1-1.65.94-1.43z" fill="#8d4b61"/><path d="m381.27 169.23c-1.23 0-2.06-1.24-1.61-2.37l5.08-12.7-.04-.05c-.27.01-.54.14-.71.39l-11.31 16.52c-.48.7.17 1.61.99 1.39l3.48-.94c.8-.22 1.44.65 1.01 1.36l-8.46 13.73c-.42.68.17 1.53.96 1.37l6.39-1.3c.82-.17 1.41.76.91 1.43l-9.15 12.37c-.51.69.14 1.64.97 1.42l6.98-1.89c.84-.23 1.49.74.96 1.43l-10.11 13.13c-.54.7.13 1.67.97 1.43l11.46-3.32 2.75-12.65c.23-1.08-.59-2.1-1.69-2.1h-2.3c-1.35 0-2.18-1.48-1.48-2.63l5.07-8.3c.71-1.15-.13-2.63-1.48-2.63h-.77c-1.32 0-2.15-1.41-1.52-2.57l5.47-9.94c.63-1.15-.2-2.57-1.52-2.57h-1.3z" fill="#9c555f"/><path d="m500 204.04c-.47-2.24-.96-4.5-1.5-6.79-1.25-5.36-2.61-10.49-4.03-15.38-.56-1.94-3.32-1.95-3.91-.02-1.5 4.9-2.94 10.03-4.28 15.39-2.73 10.91-4.69 21.21-6.08 30.76h19.8z" fill="#c67466"/><path d="m489.81 220c-1.4-9.55-3.35-19.85-6.08-30.76-1.34-5.36-2.78-10.49-4.28-15.39-.59-1.93-3.35-1.92-3.91.02-1.42 4.89-2.78 10.02-4.03 15.38-2.56 10.95-4.31 21.25-5.5 30.76h23.8z" fill="#ac655f"/><path d="m473.9 219.98c-.24-8.54.12-18.35 1.67-29.14.92-6.4 2.15-12.31 3.52-17.69-.95-1.22-3.07-.99-3.56.69-1.42 4.89-2.78 10.02-4.03 15.38-2.56 10.95-4.31 21.25-5.5 30.76z" fill="#c67466"/><path d="m500 198.29c-3.34.74-6.07 3.11-7.33 6.23-.43 1.07-1.55 1.74-2.66 1.43-1.15-.32-2.4-.42-3.7-.21-3.82.59-6.85 3.78-7.26 7.62-.56 5.22 3.52 9.64 8.63 9.64 3.99 0 7.34-2.7 8.36-6.36 1.16.87 2.5 1.5 3.96 1.83z" fill="#9c555f"/><path d="m367.31 228.12c-1.4-9.55-3.35-19.85-6.08-30.76-1.34-5.36-2.78-10.49-4.28-15.39-.59-1.93-3.35-1.92-3.91.02-1.42 4.89-2.78 10.02-4.03 15.38-2.56 10.95-4.31 21.25-5.5 30.76h23.8z" fill="#ac655f"/><path d="m351.4 228.09c-.24-8.54.12-18.35 1.67-29.14.92-6.4 2.15-12.31 3.52-17.69-.95-1.22-3.07-.99-3.56.69-1.42 4.89-2.78 10.02-4.03 15.38-2.56 10.95-4.31 21.25-5.5 30.76z" fill="#c67466"/><path d="m276 397v-100.84c0-5.23 2.08-10.24 5.77-13.94l4.18-4.18c6-6 7.49-15.16 3.69-22.75l-1-2c-2.91-5.82-2.76-12.7.4-18.39l9.11-16.4c3.31-5.95 10.61-8.39 16.83-5.63l25.02 11.13h100l32 20v153z" fill="#56435d"/><path d="m288 300.16c0-5.23 2.08-10.24 5.77-13.94l4.18-4.18c6-6 7.49-15.16 3.69-22.75l-1-2c-2.91-5.82-2.76-12.7.4-18.39l14.36-25.84c-6.46-2.87-14.04-.33-17.47 5.84l-8.89 16c-3.16 5.69-3.31 12.57-.4 18.39l1 2c3.79 7.59 2.31 16.75-3.69 22.75l-4.18 4.18c-3.7 3.7-5.77 8.71-5.77 13.94v31.84h12z" fill="#56435d"/><path d="m437.29 219.37c-11.31-5.28-24.22-6.02-36.07-2.07l-4.96 1.65c-8.34 2.78-17.07 4.2-25.86 4.2h-19.42c-12.58 0-24.99-2.91-36.27-8.49l-2.71 4.34-4.9 9.1 17.95 11.96c6.93 4.62 15.07 7.09 23.4 7.09h13.27c1.1 0 2.19-.06 3.28-.14v47h8v-45.29c0-1.83 1.17-3.42 2.9-4.03 1.6-.57 3.16-1.23 4.69-1.99l.03-.02c9.22-4.62 20.26-3.63 28.51 2.56l2.55 1.91h68v-8z" fill="#4d3e54"/><path d="m469.23 216.03c-9.38 1.53-19 .21-27.61-3.81-11.31-5.28-24.22-6.02-36.06-2.07l-4.96 1.65c-8.34 2.78-17.07 4.2-25.86 4.2h-19.42c-12.47 0-24.76-2.86-35.95-8.33v.01l-4.59-2.07c-5.44-2.46-12.06-.17-14.38 5.33-.11.27-.22.55-.31.84l-2.75 8.25c4.08-2.45 9.2-2.33 13.16.31l8.87 5.91c.37.25.59.66.59 1.1v2.97c0 .28.22.5.5.5h1c.28 0 .5-.22.5-.5v-1.28c0-.46.51-.73.89-.48l.52.35c.37.25.59.66.59 1.1v3.49c0 .28.22.5.5.5h1c.28 0 .5-.22.5-.5v-1.8c0-.46.51-.73.89-.48l2.54 1.69c6.93 4.62 15.07 7.09 23.4 7.09h13.27c6.55 0 13.01-1.52 18.87-4.45l.03-.02c9.23-4.61 20.27-3.62 28.53 2.57l2.51 1.9h68v-1.26l16 1.26v-29z" fill="#7f3b59"/><path d="m319.35 207.67-4.59-2.07c-5.44-2.46-12.06-.17-14.38 5.33-.11.27-.22.55-.31.84l-2.75 8.25c4.08-2.45 9.2-2.33 13.16.31l.65.44 3.32-5.09c1.97-3.02 4.9-5.29 8.33-6.42l-.02-.02c-1.14-.51-2.28-1.02-3.41-1.57z" fill="#8d4b61"/><path d="m300.65 257.28c-2.91-5.82-2.76-12.7.4-18.39l5.97-10.75-.66-.44c-3.95-2.63-9.06-2.76-13.14-.32l-4.17 7.51c-3.16 5.69-3.31 12.57-.4 18.39l1 2c3.79 7.59 2.31 16.75-3.69 22.75l-4.18 4.18c-3.7 3.7-5.77 8.71-5.77 13.94v100.85h12v-96.86c0-5.23 2.08-10.24 5.77-13.94l4.18-4.18c6-6 7.49-15.16 3.69-22.75z" fill="#614b63"/><path d="m452 217h6v28h-6z" fill="#4a1e45"/><path d="m455 243h-3v-21l1.26-.42c.86-.29 1.74.35 1.74 1.26z" fill="#5b2950"/><path d="m400 212-15.53 5.82c-9.91 3.71-16.47 13.19-16.47 23.77v86.41h-36v-92.35c0-13.06 10.59-23.65 23.65-23.65z" fill="#79ccaa"/><path d="m394 212-15.53 5.82c-9.91 3.71-16.47 13.19-16.47 23.77v86.41h6v-86.41c0-10.58 6.56-20.05 16.47-23.77l15.53-5.82z" fill="#49ba9c" opacity=".7"/><path d="m360.65 212h-5c-13.06 0-23.65 10.59-23.65 23.65v92.35h5v-92.35c0-13.06 10.59-23.65 23.65-23.65z" fill="#aae2aa"/><path d="m382.44 318.4c-1.09-3.5-3.78-6.36-7.22-7.64-.61-.23-1.22-.4-1.82-.52-2.45-.5-4.26-2.55-4.43-5.04-.03-.42-.08-.84-.16-1.27-.96-5.39-5.59-9.57-11.06-9.9-4.35-.27-8.24 1.79-10.55 5.05-1.33 1.88-3.74 2.57-5.88 1.74-1.64-.64-3.44-.92-5.34-.77-5.42.44-9.96 4.64-10.84 10-.21 1.29-.2 2.54-.02 3.74.1.63-.38 1.2-1.01 1.21-6.53.15-12.05 5.33-12.12 11.87-.07 6.69 5.33 12.14 12 12.14 3.78 0 7.15-1.76 9.34-4.5 2.22 4.28 6.92 7.06 12.21 6.4 1.26-.16 2.47-.53 3.58-1.06.61.1 1.23.16 1.86.16 3.78 0 7.15-1.76 9.34-4.5 2.22 4.28 6.92 7.06 12.21 6.4 4.81-.6 8.84-4.2 10.06-8.89.65-2.51.44-4.89-.31-7.01.83-2.3 1.01-4.89.16-7.61z" fill="#caeaca"/><path d="m360 397v-87.64c0-10.8 5.56-20.84 14.72-26.56l9.81-6.13c4.89-3.05 8.84-7.4 11.41-12.55l12.06-24.12 92 4v153z" fill="#32253f"/><path d="m484.46 271.54c-12.4-2.17-25 2.34-33.57 12.01l-5.23 5.9c-4.62 5.21-11.73 7.04-18.12 4.66-11.6-4.33-24.5.57-30.78 11.7l-7.87 13.92c-3.84 5.38-5.9 11.82-5.9 18.42v58.85h117v-69-53.74z" fill="#fff" opacity=".05"/><path d="m492.9 250.51c-5.71-2.85-12.39-3-18.22-.41l-13.4 5.95c-8.07 3.59-17.52 1.83-23.77-4.41l-.75-.75c-5.48-5.48-13.51-7.56-20.96-5.43l-4.81 1.38v5.97c7.85-2.19 16.28.02 22.06 5.79l.79.79c6.61 6.61 16.62 8.47 25.17 4.67l14.18-6.3c6.17-2.74 13.25-2.58 19.29.44l7.4 3.7v-7.9z" fill="#2b1b37"/><path d="m390.72 282.8 9.81-6.13c4.89-3.05 8.84-7.4 11.41-12.55l11.72-23.44-15.66-.68-12.06 24.12c-2.58 5.15-6.53 9.5-11.41 12.55l-9.81 6.13c-9.16 5.72-14.72 15.76-14.72 26.56v87.64h16v-87.64c0-10.8 5.56-20.84 14.72-26.56z" fill="#382a44"/><path d="m395.94 264.11c-.41.81-.86 1.6-1.33 2.37l9.56-9c3.74-3.52 8.69-5.48 13.83-5.48l5.66-11.32-7.74-.34-8.74 1.3z" fill="#32253f"/><path d="m445.84 235.96-9.96-2.21c-5.17-1.15-10.55-.99-15.64.47l-12.91 3.69c-4.34 1.24-7.33 5.21-7.33 9.72v4.37 4l2.66-2.66c1.92-1.92 4.31-3.33 6.93-4.08l6.33-1.81c7.45-2.13 15.48-.05 20.96 5.43l.75.75c6.25 6.25 15.69 8 23.77 4.41l13.4-5.95c5.83-2.59 12.51-2.44 18.22.41l6.98 3.5v-32l-19 8.45c-11.04 4.9-23.36 6.14-35.16 3.51z" fill="#5b2950"/><path d="m478.68 235.2 5.15-7.78c.3-.46-.15-.97-.72-.81-2.38.67-4.44 2.13-5.71 4.06-2.09-.98-4.61-1.15-6.99-.48-.57.16-.69.83-.19 1.06z" fill="#662e55"/><path d="m423.68 210.11 6.87-6.32c.41-.37.09-.98-.5-.96-2.47.08-4.82 1-6.52 2.57-1.8-1.45-4.2-2.22-6.67-2.14-.59.02-.87.64-.44.99z" fill="#7f3b59"/><path d="m465.6 202.76 9.27 2.51c1.1.3 1.97-.96 1.29-1.88l-12.14-16.41c-.66-.89.13-2.12 1.21-1.9l8.48 1.72c1.04.21 1.82-.92 1.27-1.82l-11.23-18.21c-.57-.93.29-2.08 1.34-1.8l4.61 1.25c1.08.29 1.94-.92 1.31-1.85l-15.01-21.92c-.48-.7-1.51-.7-1.99 0l-15.01 21.91c-.63.93.23 2.14 1.31 1.85l4.61-1.25c1.06-.29 1.92.87 1.34 1.8l-11.23 18.21c-.55.9.23 2.03 1.27 1.82l8.48-1.72c1.08-.22 1.87 1.01 1.21 1.9l-12.14 16.41c-.68.92.18 2.18 1.29 1.88l9.27-2.51c1.12-.3 1.98.99 1.27 1.9l-13.42 17.41c-.71.92.17 2.22 1.29 1.9l15.98-4.63c3.58-1.04 7.38-1.04 10.96 0l15.98 4.63c1.12.32 2-.97 1.29-1.9l-13.42-17.41c-.72-.9.14-2.19 1.26-1.89z" fill="#3b123e"/><path d="m423.22 236h-.43c-.43 0-.78-.35-.78-.78v-4.43c0-.43.35-.78.78-.78h.43c.43 0 .78.35.78.78v4.43c0 .43-.35.78-.78.78z" fill="#662e55"/><path d="m427.22 234h-.43c-.43 0-.78-.35-.78-.78v-4.43c0-.43.35-.78.78-.78h.43c.43 0 .78.35.78.78v4.43c0 .43-.35.78-.78.78z" fill="#662e55"/><path d="m379 274h-1c-.55 0-1-.45-1-1v-1c0-.55.45-1 1-1h1c.55 0 1 .45 1 1v1c0 .55-.45 1-1 1z" fill="#a4ddc8"/><path d="m350 289h-1c-.55 0-1-.45-1-1v-1c0-.55.45-1 1-1h1c.55 0 1 .45 1 1v1c0 .55-.45 1-1 1z" fill="#caeaca"/><path d="m319 248h-1c-.55 0-1-.45-1-1v-1c0-.55.45-1 1-1h1c.55 0 1 .45 1 1v1c0 .55-.45 1-1 1z" fill="#614b63"/><path d="m385 260h-1c-.55 0-1-.45-1-1v-1c0-.55.45-1 1-1h1c.55 0 1 .45 1 1v1c0 .55-.45 1-1 1z" fill="#614b63"/><path d="m313 267h-1c-.55 0-1-.45-1-1v-1c0-.55.45-1 1-1h1c.55 0 1 .45 1 1v1c0 .55-.45 1-1 1z" fill="#614b63"/><path d="m449 275h-1c-.55 0-1-.45-1-1v-1c0-.55.45-1 1-1h1c.55 0 1 .45 1 1v1c0 .55-.45 1-1 1z" fill="#382a44"/><path d="m493 270h-1c-.55 0-1-.45-1-1v-1c0-.55.45-1 1-1h1c.55 0 1 .45 1 1v1c0 .55-.45 1-1 1z" fill="#382a44"/><path d="m394.5 295h-.99c-.55 0-1-.45-1-1v-1c0-.55.45-1 1-1h.99c.55 0 1 .45 1 1v1c0 .55-.45 1-1 1z" fill="#2b1b37"/><path d="m487 267h-1c-.55 0-1-.45-1-1v-1c0-.55.45-1 1-1h1c.55 0 1 .45 1 1v1c0 .55-.45 1-1 1z" fill="#2b1b37"/><path d="m325 221h-1c-.55 0-1-.45-1-1v-1c0-.55.45-1 1-1h1c.55 0 1 .45 1 1v1c0 .55-.45 1-1 1z" fill="#8d4b61"/><path d="m422 223h-1c-.55 0-1-.45-1-1v-1c0-.55.45-1 1-1h1c.55 0 1 .45 1 1v1c0 .55-.45 1-1 1z" fill="#8d4b61"/><path d="m453 251h-1c-.55 0-1-.45-1-1v-1c0-.55.45-1 1-1h1c.55 0 1 .45 1 1v1c0 .55-.45 1-1 1z" fill="#4a1e45"/><path d="m442 247h-1c-.55 0-1-.45-1-1v-1c0-.55.45-1 1-1h1c.55 0 1 .45 1 1v1c0 .55-.45 1-1 1z" fill="#662e55"/><path d="m488 222h-1c-.55 0-1-.45-1-1v-1c0-.55.45-1 1-1h1c.55 0 1 .45 1 1v1c0 .55-.45 1-1 1z" fill="#8d4b61"/><path d="m415 226h-1c-.55 0-1-.45-1-1v-1c0-.55.45-1 1-1h1c.55 0 1 .45 1 1v1c0 .55-.45 1-1 1z" fill="#9c555f"/><path d="m325 254h-1c-.55 0-1-.45-1-1v-1c0-.55.45-1 1-1h1c.55 0 1 .45 1 1v1c0 .55-.45 1-1 1z" fill="#4d3e54"/><path d="m344.5 280c-.83 0-1.5-.67-1.5-1.5 0-.83.67-1.5 1.5-1.5.83 0 1.5.67 1.5 1.5 0 .83-.67 1.5-1.5 1.5z" fill="#caeaca"/><path d="m354 284c-1.1 0-2-.9-2-2 0-1.1.9-2 2-2 1.1 0 2 .9 2 2 0 1.1-.9 2-2 2z" fill="#caeaca"/><path d="m373 267c-1.1 0-2-.9-2-2 0-1.1.9-2 2-2 1.1 0 2 .9 2 2 0 1.1-.9 2-2 2z" fill="#caeaca"/><path d="m452 237 8 8h6l-8.01-7.65z" fill="#5b2950"/><g fill="#662e55"><path d="m472.6 247.42c-.04-.01-.07 0-.1 0z"/><path d="m445.84 235.97-9.96-2.21c-5.17-1.15-10.55-.99-15.64.47l-12.91 3.69c-4.34 1.24-7.33 5.21-7.33 9.72v4.38 4c3.67-3.67 8.22-6.35 13.22-7.78l2.71-.77c1.57-.45 3.16-.7 4.74-.78v-.01c3.26-6.27 9.81-10.14 16.88-9.95l16.18.42c-2.64-.22-5.28-.6-7.89-1.18z"/><path d="m495.13 235.94 4.87-2.16v-9.78l-19 8.45c-7.26 3.23-15.07 4.85-22.92 4.85l17.98 1.74c6.51.63 13.09-.44 19.07-3.1z"/></g><path d="m450.39 161.98c-1.63 0-2.74-1.64-2.13-3.15l6.74-16.85-.05-.06c-.36.02-.71.19-.94.52l-15.01 21.91c-.63.93.23 2.14 1.31 1.85l4.61-1.25c1.06-.29 1.92.87 1.34 1.8l-11.23 18.21c-.55.9.23 2.03 1.27 1.82l8.48-1.72c1.08-.22 1.87 1.01 1.21 1.9l-12.14 16.41c-.68.92.18 2.18 1.29 1.88l9.27-2.51c1.12-.3 1.98.99 1.27 1.9l-13.42 17.41c-.71.92.17 2.22 1.29 1.9l15.2-4.4 3.65-16.78c.31-1.43-.78-2.79-2.25-2.79h-3.05c-1.79 0-2.9-1.96-1.96-3.5l6.73-11.01c.94-1.53-.17-3.5-1.96-3.5h-1.02c-1.75 0-2.86-1.87-2.01-3.4l7.25-13.19c.84-1.53-.27-3.4-2.01-3.4z" fill="#4a1e45"/><path d="m426.33 190h-.66c-.37 0-.67-.3-.67-.67v-.66c0-.37.3-.67.67-.67h.66c.37 0 .67.3.67.67v.66c0 .37-.3.67-.67.67z" fill="#c67466"/></svg>