<?xml version="1.0" encoding="utf-8"?>
<!-- Generator: Adobe Illustrator 26.0.2, SVG Export Plug-In . SVG Version: 6.00 Build 0)  -->
<svg version="1.1" xmlns="http://www.w3.org/2000/svg" xmlns:xlink="http://www.w3.org/1999/xlink" x="0px" y="0px"
	 viewBox="0 0 320 1911" style="enable-background:new 0 0 320 1911;" xml:space="preserve">
<style type="text/css">
	.st0{fill:#190128;}
	.st1{fill:#98FF8F;}
	.st2{fill:#5B205C;}
	.st3{fill:#E3CF7F;}
	.st4{fill:#36114A;}
	.st5{opacity:0.5;fill:#FFFFFF;}
	.st6{fill:#1F032F;}
	.st7{fill:#260638;}
	.st8{opacity:0.25;fill:#FFF5EF;}
	.st9{fill:#FFF5EF;}
	.st10{fill:#521C57;}
	.st11{fill:#56577A;}
	.st12{opacity:0.5;fill:#9EEBCC;}
	.st13{opacity:0.75;fill:#FFF5EF;}
	.st14{opacity:0.75;fill:#C0E37F;}
	.st15{fill:#56888F;}
	.st16{fill:#C0E37F;}
	.st17{fill:#54A89C;}
	.st18{fill:#51C9A9;}
	.st19{opacity:0.5;fill:#FFF5EF;}
	.st20{fill:#9EEBCC;}
	.st21{fill:#8DD4BB;}
	.st22{fill:#B9D8C3;}
	.st23{opacity:0.75;fill:#FFFF8F;}
	.st24{fill:#CBDFCA;}
	.st25{opacity:0.15;fill:#FFF5EF;}
	.st26{opacity:0.25;fill:#C2A9C2;}
	.st27{fill:#C2A9C2;}
	.st28{fill:#81B8B3;}
	.st29{fill:#718FA1;}
	.st30{fill:#EAE3C7;}
	.st31{fill:#FAD8AC;}
	.st32{fill:#FFE6D5;}
	.st33{opacity:0.35;fill:#FFFFFF;}
	.st34{opacity:0.15;fill:#FFFFFF;}
	.st35{fill:#FFD1A1;}
	.st36{fill:#FFC483;}
	.st37{fill:#FFC98E;}
	.st38{fill:#FFD8BB;}
	.st39{opacity:0.5;}
	.st40{fill:#FFB776;}
	.st41{fill:#FFC183;}
	.st42{opacity:0.75;}
	.st43{fill:#EDA876;}
	.st44{fill:#E89D6B;}
	.st45{opacity:0.5;fill:#E89D6B;}
	.st46{fill:#FFFFFF;}
	.st47{fill:#E58373;}
	.st48{fill:#DD9268;}
	.st49{fill:#D68968;}
	.st50{fill:#FFCBA4;}
	.st51{fill:#C67466;}
	.st52{fill:#CAEACA;}
	.st53{fill:#E0F2DF;}
	.st54{fill:#BA6D61;}
	.st55{fill:#AC655F;}
	.st56{fill:#A45D5F;}
	.st57{fill:#FFB187;}
	.st58{fill:#8D4B61;}
	.st59{fill:#E08977;}
	.st60{fill:#9C555F;}
	.st61{fill:#56435D;}
	.st62{fill:#614B63;}
	.st63{fill:#7F3B59;}
	.st64{fill:#4D3E54;}
	.st65{fill:#32253F;}
	.st66{fill:#2B1B37;}
	.st67{fill:#5B2950;}
	.st68{fill:#4A1E45;}
	.st69{fill:#662E55;}
	.st70{fill:#382A44;}
	.st71{opacity:0.05;fill:#FFFFFF;}
	.st72{fill:#250C33;}
	.st73{fill:#300F39;}
	.st74{fill:#FF00CF;}
</style>
<g id="_x31_9__x28_Rest_of_Sky_x29_">
</g>
<g id="_x31_8__x28_Cloud_Layer_7_x29_">
</g>
<g id="_x31_7__x28_Cloud_Layer_6_x29_">
</g>
<g id="_x31_6__x28_Cloud_Layer_5_x29_">
</g>
<g id="_x31_5">
</g>
<g id="_x31_4">
</g>
<g id="_x31_3__x28_Cloud_Layer_4__x2B__Aircraft_x29_">
</g>
<g id="_x31_2_00000053541090334089295900000016410686384436047024_">
</g>
<g id="_x31_1__x28_Cloud_Layer_3__x2B__Higher_Birds_x29_">
</g>
<g id="_x31_0__x28__x2B__Nearby_Birds_x29_">
</g>
<g id="_x39___x28_Cloud_Layer_2_x29_">
</g>
<g id="_x38___x28__x2B__Nearby_Birds_x29_">
</g>
<g id="_x37___x28_Cloud_Layer_1_x29_">
</g>
<g id="_x36__00000068661700993368236970000009778035845983078308_">
	<g>
		<g>
			<g>
				<path class="st48" d="M304.65,1581.13c-0.74,1.45-2.4,2.07-3.92,1.5c-1.54-0.58-3.23-0.8-4.97-0.6c-4.47,0.53-7.94,3.77-9,7.88
					c-0.28,1.1-1.38,1.82-2.5,1.65c-1.21-0.19-2.5-0.13-3.79,0.23c-3.81,1.07-6.51,4.68-6.47,8.63c0,0,0,0,0,0.01
					c0.01,1.7-1.41,3.04-3.11,2.99c-0.37-0.01-0.75,0-1.13,0.02c-4.52,0.31-8.24,2.99-10.13,6.7c-0.73,1.44-2.4,2.04-3.91,1.47
					c-1.54-0.58-3.23-0.8-4.97-0.6c-4.47,0.53-7.94,3.77-9,7.88c-0.28,1.1-1.38,1.82-2.5,1.65c-1.21-0.19-2.5-0.13-3.79,0.23
					c-3.81,1.07-6.51,4.68-6.47,8.63c0,0.19,0.02,0.37,0.04,0.56L229,1630v30h91v-84.75c-1.36-0.53-2.82-0.83-4.33-0.83
					C310.76,1574.41,306.66,1577.19,304.65,1581.13z"/>
			</g>
			<path class="st48" d="M58.78,1618c1.09-7.42,2.6-15.43,4.73-23.91c1.04-4.17,2.16-8.16,3.33-11.97c0.46-1.5,2.6-1.49,3.04,0.01
				c1.1,3.8,2.16,7.79,3.13,11.95c1.99,8.51,3.35,16.52,4.27,23.91H58.78z"/>
			<path class="st48" d="M296.06,1592.88c0.94-6.39,2.24-13.3,4.08-20.61c0.9-3.59,1.86-7.03,2.87-10.31
				c0.4-1.29,2.24-1.29,2.62,0.01c0.95,3.27,1.86,6.71,2.7,10.3c1.71,7.33,2.89,14.24,3.68,20.61H296.06z"/>
			<path class="st48" d="M0,1610.88c0.94-6.39,2.24-13.3,4.08-20.61c0.9-3.59,1.86-7.03,2.87-10.31c0.4-1.29,2.24-1.29,2.62,0.01
				c0.95,3.27,1.86,6.71,2.7,10.3c1.71,7.33,2.89,14.24,3.68,20.61H0z"/>
			<g>
				<g>
					<path class="st49" d="M229.27,1609.89h0.95c0.66,0,1.05-0.74,0.68-1.28l-6.26-9.17c-0.23-0.34-0.62-0.55-1.03-0.55h-14.18
						c-0.41,0-0.8,0.2-1.03,0.55l-6.26,9.17c-0.37,0.54,0.02,1.28,0.68,1.28h16.45l5-7L229.27,1609.89z"/>
					<polygon class="st38" points="229.27,1632.88 219.27,1632.88 219.27,1609.88 224.27,1602.38 229.27,1609.88 					"/>
					
						<rect x="203.27" y="1609.88" transform="matrix(-1 2.819421e-11 -2.819421e-11 -1 422.5374 3242.7693)" class="st9" width="16" height="23"/>
				</g>
				<path class="st38" d="M211.32,1617.38h-1.14c-0.37,0-0.68-0.3-0.68-0.68v-3.07c0-0.69,0.56-1.25,1.25-1.25l0,0
					c0.69,0,1.25,0.56,1.25,1.25v3.07C212,1617.08,211.7,1617.38,211.32,1617.38z"/>
			</g>
			<path class="st48" d="M10,1610.88c1.11-7.6,2.67-15.8,4.84-24.48c1.07-4.27,2.21-8.35,3.41-12.25c0.47-1.54,2.66-1.53,3.11,0.01
				c1.13,3.89,2.21,7.97,3.21,12.24c2.04,8.71,3.43,16.92,4.38,24.48H10z"/>
			<g>
				<g>
					<path class="st49" d="M224.73,1619.89h-0.95c-0.66,0-1.05-0.74-0.68-1.28l6.26-9.17c0.23-0.34,0.62-0.55,1.03-0.55h8.18
						c0.41,0,0.8,0.2,1.03,0.55l6.26,9.17c0.37,0.54-0.02,1.28-0.68,1.28h-10.45l-5-7L224.73,1619.89z"/>
					<polygon class="st9" points="224.73,1642.88 234.73,1642.88 234.73,1619.88 229.73,1612.38 224.73,1619.88 					"/>
					<rect x="234.73" y="1619.88" class="st32" width="10" height="23"/>
				</g>
				<path class="st38" d="M229.18,1627.38h1.14c0.37,0,0.68-0.3,0.68-0.68v-3.07c0-0.69-0.56-1.25-1.25-1.25l0,0
					c-0.69,0-1.25,0.56-1.25,1.25v3.07C228.5,1627.08,228.8,1627.38,229.18,1627.38z"/>
			</g>
			<g>
				<g>
					<path class="st49" d="M158.23,1602h0.95c0.66,0,1.05-0.74,0.68-1.28l-6.26-9.17c-0.23-0.34-0.62-0.55-1.03-0.55h-8.18
						c-0.41,0-0.8,0.2-1.03,0.55l-6.26,9.17c-0.37,0.54,0.02,1.28,0.68,1.28h10.45l5-7L158.23,1602z"/>
					<polygon class="st38" points="158.23,1653 148.23,1653 148.23,1601.99 153.23,1594.49 158.23,1601.99 158.23,1607.99 					"/>
					
						<rect x="138.23" y="1601.99" transform="matrix(-1 4.492883e-11 -4.492883e-11 -1 286.4538 3254.9927)" class="st9" width="10" height="51.01"/>
				</g>
				<circle class="st50" cx="153.5" cy="1602.62" r="1.5"/>
			</g>
			<g>
				<g>
					<g>
						<polygon class="st38" points="143.43,1615.12 138.43,1609.12 133.43,1615.12 133.43,1667.12 143.43,1667.12 						"/>
						<path class="st49" d="M143.43,1616.12h0.95c0.66,0,1.05-0.74,0.68-1.28l-6.26-9.17c-0.23-0.34-0.62-0.55-1.03-0.55h-18.34
							c-0.41,0-0.8,0.2-1.03,0.55l-6.26,9.17c-0.37,0.54,0.02,1.28,0.68,1.28h20.61l5-7L143.43,1616.12z"/>
						
							<rect x="113.27" y="1616.11" transform="matrix(-1 2.237309e-11 -2.237309e-11 -1 246.7003 3283.2234)" class="st9" width="20.16" height="51.01"/>
					</g>
				</g>
				<circle class="st50" cx="138.5" cy="1617.62" r="1.5"/>
			</g>
			<path class="st49" d="M320,1911v-300.85l-22.39-4.15c-13.43-2.49-27.19,2.16-36.36,12.29l-9.12,10.07
				c-6.72,7.42-17.54,9.52-26.55,5.14l-17.22-8.37c-21.41-10.4-46.21-11.28-68.31-2.42l-17.79,7.13
				c-12.77,5.12-27.34,2.61-37.66-6.49l-25.1-22.13c-9.38-8.27-22.34-11.15-34.34-7.64L0,1600.96V1911H320z"/>
			<path class="st48" d="M189.38,1619.95l4.77-3.94c0.28-0.23,0.14-0.69-0.22-0.72l0,0c-1.52-0.15-3.04,0.32-4.22,1.3l0,0l0,0
				c-0.97-1.18-2.38-1.93-3.9-2.07h0c-0.36-0.03-0.59,0.39-0.35,0.67L189.38,1619.95z"/>
			<path class="st48" d="M193.33,1643h-0.66c-0.37,0-0.67-0.3-0.67-0.67v-0.66c0-0.37,0.3-0.67,0.67-0.67h0.66
				c0.37,0,0.67,0.3,0.67,0.67v0.66C194,1642.7,193.7,1643,193.33,1643z"/>
			<path class="st44" d="M197.33,1639h-0.66c-0.37,0-0.67-0.3-0.67-0.67v-0.66c0-0.37,0.3-0.67,0.67-0.67h0.66
				c0.37,0,0.67,0.3,0.67,0.67v0.66C198,1638.7,197.7,1639,197.33,1639z"/>
			<path class="st44" d="M135.33,1645h-0.66c-0.37,0-0.67-0.3-0.67-0.67v-0.66c0-0.37,0.3-0.67,0.67-0.67h0.66
				c0.37,0,0.67,0.3,0.67,0.67v0.66C136,1644.7,135.7,1645,135.33,1645z"/>
			<path class="st48" d="M25.15,1603.59c12-3.51,24.96-0.63,34.34,7.64l25.1,22.13c10.32,9.1,24.89,11.61,37.66,6.49l17.79-7.13
				c22.09-8.86,46.9-7.98,68.31,2.42l17.22,8.37c9.01,4.38,19.83,2.28,26.55-5.14l9.12-10.07c9.17-10.12,22.93-14.77,36.36-12.29
				l22.39,4.15v-10l-22.39-4.15c-13.43-2.49-27.19,2.16-36.36,12.29l-9.12,10.07c-6.72,7.42-17.54,9.52-26.55,5.14l-17.22-8.37
				c-21.41-10.4-46.21-11.28-68.31-2.42l-17.79,7.13c-12.77,5.12-27.34,2.61-37.66-6.49l-25.1-22.13
				c-9.38-8.27-22.34-11.15-34.34-7.64L0,1600.96v10L25.15,1603.59z"/>
		</g>
		<g>
			<path class="st51" d="M306.63,1658.54c-1.58-0.41-3.15-0.45-4.62-0.19c-1.39,0.24-2.8-0.56-3.18-1.92
				c-1.41-5.05-5.78-8.96-11.32-9.49c-2.11-0.2-4.14,0.11-5.99,0.83c-1.88,0.73-4.04,0.08-4.99-1.69c-2.43-4.5-7.08-7.68-12.64-7.94
				c-0.96-0.04-1.91,0.01-2.84,0.15c-2.79,0.42-5.5-0.82-7.04-3.18c-2.86-4.39-7.93-7.22-13.41-6.96
				c-5.56,0.26-10.21,3.44-12.64,7.94c-0.96,1.77-3.12,2.42-4.99,1.69c-1.84-0.72-3.88-1.03-5.99-0.83
				c-5.53,0.53-9.91,4.44-11.31,9.49c-0.38,1.36-1.78,2.16-3.18,1.92c-1.47-0.26-3.03-0.21-4.62,0.19
				c-3.37,0.86-6.08,3.34-7.37,6.46h57.65c0.46,3.98,2.47,7.54,5.47,10H314C312.71,1661.88,310,1659.4,306.63,1658.54z"/>
			<path class="st51" d="M146,1655c0.94-6.39,2.24-13.3,4.08-20.61c0.9-3.59,1.86-7.03,2.87-10.31c0.4-1.29,2.24-1.29,2.62,0.01
				c0.95,3.27,1.86,6.71,2.7,10.3c1.71,7.33,2.89,14.24,3.68,20.61H146z"/>
			<path class="st51" d="M157.94,1667.88c0.94-6.39,2.24-13.3,4.08-20.61c0.9-3.59,1.86-7.03,2.87-10.31
				c0.4-1.29,2.24-1.29,2.62,0.01c0.95,3.27,1.86,6.71,2.7,10.3c1.71,7.33,2.89,14.24,3.68,20.61H157.94z"/>
			<rect y="1655" class="st46" width="320" height="30"/>
			<g>
				<path class="st32" d="M178,1662.5c0-1.93-1.57-3.5-3.5-3.5s-3.5,1.57-3.5,3.5v22.5h7V1662.5z"/>
				<path class="st32" d="M190,1662.5c0-1.93-1.57-3.5-3.5-3.5s-3.5,1.57-3.5,3.5v22.5h7V1662.5z"/>
				<path class="st32" d="M202,1662.5c0-1.93-1.57-3.5-3.5-3.5s-3.5,1.57-3.5,3.5v22.5h7V1662.5z"/>
				<path class="st32" d="M215,1662.5c0-1.93-1.57-3.5-3.5-3.5s-3.5,1.57-3.5,3.5v22.5h7V1662.5z"/>
				<path class="st32" d="M139,1662.5c0-1.93-1.57-3.5-3.5-3.5s-3.5,1.57-3.5,3.5v22.5h7V1662.5z"/>
				<path class="st32" d="M153,1662.5c0-1.93-1.57-3.5-3.5-3.5s-3.5,1.57-3.5,3.5v22.5h7V1662.5z"/>
				<path class="st32" d="M165,1662.5c0-1.93-1.57-3.5-3.5-3.5s-3.5,1.57-3.5,3.5v22.5h7V1662.5z"/>
			</g>
			<rect y="1673" class="st52" width="320" height="238"/>
			<path class="st53" d="M320,1673H199.05c-2.01,0-3.99,0.47-5.78,1.36l-5.87,2.94c-4.51,2.26-9.92,1.68-13.86-1.47h0
				c-2.29-1.83-5.14-2.83-8.08-2.83H0v-4h320V1673z"/>
			<path class="st53" d="M195.33,1681h-0.66c-0.37,0-0.67-0.3-0.67-0.67v-0.66c0-0.37,0.3-0.67,0.67-0.67h0.66
				c0.37,0,0.67,0.3,0.67,0.67v0.66C196,1680.7,195.7,1681,195.33,1681z"/>
			<path class="st53" d="M191.33,1685h-0.66c-0.37,0-0.67-0.3-0.67-0.67v-0.66c0-0.37,0.3-0.67,0.67-0.67h0.66
				c0.37,0,0.67,0.3,0.67,0.67v0.66C192,1684.7,191.7,1685,191.33,1685z"/>
		</g>
	</g>
</g>
<g id="_x35__00000078044523084173153740000012161118921027427980_">
</g>
<g id="_x34__00000014591708090884853300000012924613216120282812_">
</g>
<g id="_x33__00000150784116898789853780000012635840894519326891_">
</g>
<g id="_x32__00000155142127021454457340000001118262530934973368_">
</g>
<g id="_x31__00000176748215646741422430000014996548749285466274_">
</g>
<g id="Full">
</g>
<g id="Guide">
</g>
</svg>
