<?xml version="1.0" encoding="utf-8"?>
<!-- Generator: Adobe Illustrator 26.0.2, SVG Export Plug-In . SVG Version: 6.00 Build 0)  -->
<svg version="1.1" xmlns="http://www.w3.org/2000/svg" xmlns:xlink="http://www.w3.org/1999/xlink" x="0px" y="0px"
	 viewBox="0 0 500 375" style="enable-background:new 0 0 500 375;" xml:space="preserve">
<style type="text/css">
	.st0{fill:#FFEAD7;}
	.st1{opacity:0.5;fill:#FFDFC2;}
	.st2{fill:#FFFFFF;}
	.st3{opacity:0.5;fill:#FFDCB8;}
	.st4{fill:#FFF5EF;}
	.st5{fill:#FFDCB8;}
	.st6{fill:#FFCE99;}
	.st7{fill:#FFDFC2;}
	.st8{fill:#FFDBBD;}
	.st9{fill:#FFC483;}
	.st10{fill:#FFB776;}
	.st11{fill:#FFCBA4;}
	.st12{fill:#E89D6B;}
	.st13{fill:#DD9268;}
	.st14{fill:#E58373;}
	.st15{fill:#E0F2DF;}
	.st16{fill:#CAEACA;}
	.st17{fill:none;}
	.st18{fill:#C67466;}
	.st19{fill:#AC655F;}
	.st20{fill:#FFB187;}
	.st21{fill:#8D4B61;}
	.st22{fill:#9C555F;}
	.st23{fill:#AAE2AA;}
	.st24{fill:#79CCAA;}
	.st25{fill:#662E55;}
	.st26{fill:#5B2950;}
	.st27{fill:#32253F;}
	.st28{fill:#2B1B37;}
	.st29{fill:#382A44;}
	.st30{opacity:0.05;fill:#FFFFFF;}
	.st31{fill:#4A1E45;}
	.st32{fill:#56435D;}
	.st33{fill:#7F3B59;}
	.st34{fill:#B2836F;}
	.st35{fill:#4D3E54;}
	.st36{fill:#614B63;}
	.st37{opacity:0.7;fill:#49BA9C;}
	.st38{fill:#3B123E;}
	.st39{fill:#A4DDC8;}
	.st40{fill:#250C33;}
	.st41{fill:#300F39;}
	.st42{fill:#190128;}
	.st43{fill:#35F200;}
	.st44{fill:#0058F4;}
</style>
<g id="_x31_">
</g>
<g id="_x32_">
</g>
<g id="_x33_">
</g>
<g id="_x34__1_">
</g>
<g id="_x35__00000068650285933184752780000010330952612633446584_">
</g>
<g id="_x36_">
</g>
<g id="_x37_">
	<g>
		<path class="st0" d="M500,102h-79c-0.55,0-1-0.45-1-1l0,0c0-0.55,0.45-1,1-1h79V102z"/>
		<path class="st4" d="M0,91h129c0.55,0,1-0.45,1-1l0,0c0-0.55-0.45-1-1-1H0L0,91z"/>
		<g>
			<path class="st2" d="M151.4,89.27l-0.02-0.02c-2.2-1.47-4.79-2.25-7.44-2.25H134v4h16.88C151.81,91,152.18,89.79,151.4,89.27z"/>
			<path class="st4" d="M144,87l-8.69-3.47c-0.63-0.25-1.31,0.21-1.31,0.89V87H144z"/>
			<path class="st4" d="M134,91h-1c-0.55,0-1-0.45-1-1v-2c0-0.55,0.45-1,1-1h1V91z"/>
		</g>
		<g>
			<path class="st2" d="M398.6,100.27l0.02-0.02c2.2-1.47,4.79-2.25,7.44-2.25H416v4h-16.88C398.19,102,397.82,100.79,398.6,100.27z
				"/>
			<path class="st4" d="M406,98l8.69-3.47c0.63-0.25,1.31,0.21,1.31,0.89V98H406z"/>
			<path class="st4" d="M417,102h-1v-4h1c0.55,0,1,0.45,1,1v2C418,101.55,417.55,102,417,102z"/>
		</g>
	</g>
</g>
<g id="_x38_">
</g>
<g id="_x39__00000049217028608276070180000013554017633487154818_">
</g>
<g id="_x31_0_00000147915158777594467630000018299806147496965556_">
</g>
<g id="_x31_1_00000031209085476423013220000010579698211204677507_">
</g>
<g id="_x31_2">
</g>
<g id="Full_Illustration">
</g>
<g id="Cropping_Guide">
</g>
</svg>
