<?xml version="1.0" encoding="utf-8"?>
<!-- Generator: Adobe Illustrator 26.0.2, SVG Export Plug-In . SVG Version: 6.00 Build 0)  -->
<svg version="1.1" xmlns="http://www.w3.org/2000/svg" xmlns:xlink="http://www.w3.org/1999/xlink" x="0px" y="0px"
	 viewBox="0 0 500 375" style="enable-background:new 0 0 500 375;" xml:space="preserve">
<style type="text/css">
	.st0{fill:#FFEAD7;}
	.st1{opacity:0.5;fill:#FFDFC2;}
	.st2{fill:#FFFFFF;}
	.st3{opacity:0.5;fill:#FFDCB8;}
	.st4{fill:#FFF5EF;}
	.st5{fill:#FFDCB8;}
	.st6{fill:#FFCE99;}
	.st7{fill:#FFDFC2;}
	.st8{fill:#FFDBBD;}
	.st9{fill:#FFC483;}
	.st10{fill:#FFB776;}
	.st11{fill:#FFCBA4;}
	.st12{fill:#E89D6B;}
	.st13{fill:#DD9268;}
	.st14{fill:#E58373;}
	.st15{fill:#E0F2DF;}
	.st16{fill:#CAEACA;}
	.st17{fill:none;}
	.st18{fill:#C67466;}
	.st19{fill:#AC655F;}
	.st20{fill:#FFB187;}
	.st21{fill:#8D4B61;}
	.st22{fill:#9C555F;}
	.st23{fill:#AAE2AA;}
	.st24{fill:#79CCAA;}
	.st25{fill:#662E55;}
	.st26{fill:#5B2950;}
	.st27{fill:#32253F;}
	.st28{fill:#2B1B37;}
	.st29{fill:#382A44;}
	.st30{opacity:0.05;fill:#FFFFFF;}
	.st31{fill:#4A1E45;}
	.st32{fill:#56435D;}
	.st33{fill:#7F3B59;}
	.st34{fill:#B2836F;}
	.st35{fill:#4D3E54;}
	.st36{fill:#614B63;}
	.st37{opacity:0.7;fill:#49BA9C;}
	.st38{fill:#3B123E;}
	.st39{fill:#A4DDC8;}
	.st40{fill:#250C33;}
	.st41{fill:#300F39;}
	.st42{fill:#190128;}
	.st43{fill:#35F200;}
	.st44{fill:#0058F4;}
</style>
<g id="_x31_">
	<g>
		<rect x="0" y="-47" class="st0" width="500" height="444"/>
		<path class="st1" d="M0-0.11l4.49,1.65c15.82,5.8,33.19,5.76,48.98-0.11l2.75-1.02c20.94-7.78,44.32-5.21,63.07,6.93l14.71,9.52
			c15.39,9.97,34.05,13.56,52.04,10.04l2.73-0.53c19.86-3.89,40.43,0.91,56.51,13.18l32.77,25.01
			c19.94,15.22,44.28,23.59,69.37,23.84L500,89.95V-47H0V-0.11z"/>
		<circle class="st2" cx="76" cy="29.5" r="13.5"/>
		<path class="st3" d="M500-47c-107.61,0-215.23,0-322.84,0l34.28,29.65C224.1-6.4,241.59-2.93,257.47-8.22l7.88-2.63
			c12.91-4.3,27.13-1.68,37.65,6.96l20.93,17.18c12.08,9.92,28.86,11.8,42.84,4.81l16.74-8.37c15.66-7.83,38.61-4.11,50.99,8.27l0,0
			c8.62,8.62,25.59,14.66,37.71,13.44L500,28.63V-47z"/>
	</g>
</g>
<g id="_x32_">
</g>
<g id="_x33_">
</g>
<g id="_x34__1_">
</g>
<g id="_x35__00000068650285933184752780000010330952612633446584_">
</g>
<g id="_x36_">
</g>
<g id="_x37_">
</g>
<g id="_x38_">
</g>
<g id="_x39__00000049217028608276070180000013554017633487154818_">
</g>
<g id="_x31_0_00000147915158777594467630000018299806147496965556_">
</g>
<g id="_x31_1_00000031209085476423013220000010579698211204677507_">
</g>
<g id="_x31_2">
</g>
<g id="Full_Illustration">
</g>
<g id="Cropping_Guide">
</g>
</svg>
