<?xml version="1.0" encoding="utf-8"?>
<!-- Generator: Adobe Illustrator 26.0.2, SVG Export Plug-In . SVG Version: 6.00 Build 0)  -->
<svg version="1.1" xmlns="http://www.w3.org/2000/svg" xmlns:xlink="http://www.w3.org/1999/xlink" x="0px" y="0px"
	 viewBox="0 0 320 1911" style="enable-background:new 0 0 320 1911;" xml:space="preserve">
<style type="text/css">
	.st0{fill:#190128;}
	.st1{fill:#98FF8F;}
	.st2{fill:#5B205C;}
	.st3{fill:#E3CF7F;}
	.st4{fill:#36114A;}
	.st5{opacity:0.5;fill:#FFFFFF;}
	.st6{fill:#1F032F;}
	.st7{fill:#260638;}
	.st8{opacity:0.25;fill:#FFF5EF;}
	.st9{fill:#FFF5EF;}
	.st10{fill:#521C57;}
	.st11{fill:#56577A;}
	.st12{opacity:0.5;fill:#9EEBCC;}
	.st13{opacity:0.75;fill:#FFF5EF;}
	.st14{opacity:0.75;fill:#C0E37F;}
	.st15{fill:#56888F;}
	.st16{fill:#C0E37F;}
	.st17{fill:#54A89C;}
	.st18{fill:#51C9A9;}
	.st19{opacity:0.5;fill:#FFF5EF;}
	.st20{fill:#9EEBCC;}
	.st21{fill:#8DD4BB;}
	.st22{fill:#B9D8C3;}
	.st23{opacity:0.75;fill:#FFFF8F;}
	.st24{fill:#CBDFCA;}
	.st25{opacity:0.15;fill:#FFF5EF;}
	.st26{opacity:0.25;fill:#C2A9C2;}
	.st27{fill:#C2A9C2;}
	.st28{fill:#81B8B3;}
	.st29{fill:#718FA1;}
	.st30{fill:#EAE3C7;}
	.st31{fill:#FAD8AC;}
	.st32{fill:#FFE6D5;}
	.st33{opacity:0.35;fill:#FFFFFF;}
	.st34{opacity:0.15;fill:#FFFFFF;}
	.st35{fill:#FFD1A1;}
	.st36{fill:#FFC483;}
	.st37{fill:#FFC98E;}
	.st38{fill:#FFD8BB;}
	.st39{opacity:0.5;}
	.st40{fill:#FFB776;}
	.st41{fill:#FFC183;}
	.st42{opacity:0.75;}
	.st43{fill:#EDA876;}
	.st44{fill:#E89D6B;}
	.st45{opacity:0.5;fill:#E89D6B;}
	.st46{fill:#FFFFFF;}
	.st47{fill:#E58373;}
	.st48{fill:#DD9268;}
	.st49{fill:#D68968;}
	.st50{fill:#FFCBA4;}
	.st51{fill:#C67466;}
	.st52{fill:#CAEACA;}
	.st53{fill:#E0F2DF;}
	.st54{fill:#BA6D61;}
	.st55{fill:#AC655F;}
	.st56{fill:#A45D5F;}
	.st57{fill:#FFB187;}
	.st58{fill:#8D4B61;}
	.st59{fill:#E08977;}
	.st60{fill:#9C555F;}
	.st61{fill:#56435D;}
	.st62{fill:#614B63;}
	.st63{fill:#7F3B59;}
	.st64{fill:#4D3E54;}
	.st65{fill:#32253F;}
	.st66{fill:#2B1B37;}
	.st67{fill:#5B2950;}
	.st68{fill:#4A1E45;}
	.st69{fill:#662E55;}
	.st70{fill:#382A44;}
	.st71{opacity:0.05;fill:#FFFFFF;}
	.st72{fill:#250C33;}
	.st73{fill:#300F39;}
	.st74{fill:#FF00CF;}
</style>
<g id="_x31_9__x28_Rest_of_Sky_x29_">
</g>
<g id="_x31_8__x28_Cloud_Layer_7_x29_">
</g>
<g id="_x31_7__x28_Cloud_Layer_6_x29_">
</g>
<g id="_x31_6__x28_Cloud_Layer_5_x29_">
</g>
<g id="_x31_5">
</g>
<g id="_x31_4">
</g>
<g id="_x31_3__x28_Cloud_Layer_4__x2B__Aircraft_x29_">
</g>
<g id="_x31_2_00000053541090334089295900000016410686384436047024_">
</g>
<g id="_x31_1__x28_Cloud_Layer_3__x2B__Higher_Birds_x29_">
	<g>
		<g>
			<path class="st25" d="M171.06,1392.95l-7.94,4.71c-4.66,2.77-10.52,3.16-15.57,1.04l-3.81-1.6c-4.59-1.93-9.89-1.78-14.35,0.38
				l-26.05,12.65h113.29l-27.72-17.06C183.53,1389.77,176.52,1389.71,171.06,1392.95z"/>
			<path class="st32" d="M301.71,1368.73l-8.44,3.17c-2.71,1.02-5.73,0.79-8.26-0.61c-3.1-1.72-6.88-1.65-9.91,0.19L266,1377h54
				v-8.43C314.11,1366.48,307.64,1366.51,301.71,1368.73z"/>
		</g>
		<g>
			<path class="st18" d="M62.46,1010.71c0.48,0,0.72,0.58,0.38,0.92l-2.22,2.22c-0.31,0.32-0.85,0.09-0.85-0.35v-0.79l-1.08-1.08
				c-0.34-0.34-0.1-0.92,0.38-0.92H62.46z"/>
			<path class="st18" d="M92.46,1028.59c0.48,0,0.72-0.58,0.38-0.92l-2.22-2.22c-0.31-0.32-0.85-0.09-0.85,0.35v0.79l-1.08,1.08
				c-0.34,0.34-0.1,0.92,0.38,0.92H92.46z"/>
			<path class="st18" d="M78.46,1034.71c0.48,0,0.72,0.58,0.38,0.92l-2.22,2.22c-0.31,0.31-0.85,0.09-0.85-0.35v-0.79l-1.08-1.08
				c-0.34-0.34-0.1-0.92,0.38-0.92H78.46z"/>
			<path class="st18" d="M51.98,1052c0.48,0,0.72,0.58,0.38,0.92l-2.22,2.22c-0.31,0.31-0.85,0.09-0.85-0.35V1054l-1.08-1.08
				c-0.34-0.34-0.1-0.92,0.38-0.92H51.98z"/>
			<path class="st18" d="M47.98,1009.29c0.48,0,0.72-0.58,0.38-0.92l-2.22-2.22c-0.31-0.32-0.85-0.09-0.85,0.35v0.79l-1.08,1.08
				c-0.34,0.34-0.1,0.92,0.38,0.92H47.98z"/>
			<path class="st18" d="M78.46,1020c0.48,0,0.72-0.58,0.38-0.92l-2.22-2.22c-0.31-0.32-0.85-0.09-0.85,0.35v0.79l-1.08,1.08
				c-0.34,0.34-0.1,0.92,0.38,0.92H78.46z"/>
			<path class="st18" d="M65.98,1046c0.48,0,0.72-0.58,0.38-0.92l-2.22-2.22c-0.31-0.31-0.85-0.09-0.85,0.35v0.79l-1.08,1.08
				c-0.34,0.34-0.1,0.92,0.38,0.92H65.98z"/>
		</g>
		<g class="st39">
			<path class="st11" d="M205.93,763.9v-1.56c0-0.35,0.42-0.52,0.67-0.28l1.89,1.89c0.07,0.07,0.17,0.11,0.28,0.11h0.23
				c0.6,0,1.18,0.24,1.61,0.67l0.35,0.35c0.12,0.12,0.03,0.32-0.13,0.32h-5.28c-0.35,0-0.52-0.42-0.28-0.67l0.55-0.55
				C205.89,764.1,205.93,764,205.93,763.9z"/>
			<path class="st11" d="M199.97,769.55h2.15c0.6,0,1.18,0.24,1.61,0.67l0.35,0.35c0.12,0.12,0.03,0.31-0.13,0.31h-0.5
				c-0.22,0-0.39,0.17-0.39,0.39v1.33c0,0.35-0.42,0.52-0.67,0.28l-1.89-1.89c-0.07-0.07-0.17-0.11-0.28-0.11h-1.56
				c-0.35,0-0.52-0.42-0.28-0.67l0.02-0.02C198.83,769.78,199.39,769.55,199.97,769.55z"/>
		</g>
		<g class="st39">
			<g>
				<path class="st2" d="M276.07,567c-0.48,0-0.72-0.58-0.38-0.92l2.22-2.22c0.31-0.32,0.85-0.09,0.85,0.35V565l1.08,1.08
					c0.34,0.34,0.1,0.92-0.38,0.92H276.07z"/>
				<path class="st2" d="M226.07,556.29c-0.48,0-0.72-0.58-0.38-0.92l2.22-2.22c0.31-0.32,0.85-0.09,0.85,0.35v0.79l1.08,1.08
					c0.34,0.34,0.1,0.92-0.38,0.92H226.07z"/>
				<path class="st2" d="M196.07,541c-0.48,0-0.72-0.58-0.38-0.92l2.22-2.22c0.31-0.32,0.85-0.09,0.85,0.35V539l1.08,1.08
					c0.34,0.34,0.1,0.92-0.38,0.92H196.07z"/>
				<path class="st2" d="M210.07,532.29c-0.48,0-0.72-0.58-0.38-0.92l2.22-2.22c0.31-0.32,0.85-0.09,0.85,0.35v0.79l1.08,1.08
					c0.34,0.34,0.1,0.92-0.38,0.92H210.07z"/>
				<path class="st2" d="M236.54,515c-0.48,0-0.72-0.58-0.38-0.92l2.22-2.22c0.31-0.31,0.85-0.09,0.85,0.35V513l1.08,1.08
					c0.34,0.34,0.1,0.92-0.38,0.92H236.54z"/>
				<path class="st2" d="M258.07,563c-0.48,0-0.72,0.58-0.38,0.92l2.22,2.22c0.31,0.32,0.85,0.09,0.85-0.35V565l1.08-1.08
					c0.34-0.34,0.1-0.92-0.38-0.92H258.07z"/>
				<path class="st2" d="M240.54,557.71c-0.48,0-0.72,0.58-0.38,0.92l2.22,2.22c0.31,0.32,0.85,0.09,0.85-0.35v-0.79l1.08-1.08
					c0.34-0.34,0.1-0.92-0.38-0.92H240.54z"/>
				<path class="st2" d="M210.07,547c-0.48,0-0.72,0.58-0.38,0.92l2.22,2.22c0.31,0.32,0.85,0.09,0.85-0.35V549l1.08-1.08
					c0.34-0.34,0.1-0.92-0.38-0.92H210.07z"/>
				<path class="st2" d="M222.54,521c-0.48,0-0.72,0.58-0.38,0.92l2.22,2.22c0.31,0.32,0.85,0.09,0.85-0.35V523l1.08-1.08
					c0.34-0.34,0.1-0.92-0.38-0.92H222.54z"/>
				<path class="st2" d="M250.54,507c-0.48,0-0.72,0.58-0.38,0.92l2.22,2.22c0.31,0.31,0.85,0.09,0.85-0.35V509l1.08-1.08
					c0.34-0.34,0.1-0.92-0.38-0.92H250.54z"/>
				<path class="st2" d="M268.54,501c-0.48,0-0.72,0.58-0.38,0.92l2.22,2.22c0.31,0.31,0.85,0.09,0.85-0.35V503l1.08-1.08
					c0.34-0.34,0.1-0.92-0.38-0.92H268.54z"/>
			</g>
		</g>
	</g>
</g>
<g id="_x31_0__x28__x2B__Nearby_Birds_x29_">
</g>
<g id="_x39___x28_Cloud_Layer_2_x29_">
</g>
<g id="_x38___x28__x2B__Nearby_Birds_x29_">
</g>
<g id="_x37___x28_Cloud_Layer_1_x29_">
</g>
<g id="_x36__00000068661700993368236970000009778035845983078308_">
</g>
<g id="_x35__00000078044523084173153740000012161118921027427980_">
</g>
<g id="_x34__00000014591708090884853300000012924613216120282812_">
</g>
<g id="_x33__00000150784116898789853780000012635840894519326891_">
</g>
<g id="_x32__00000155142127021454457340000001118262530934973368_">
</g>
<g id="_x31__00000176748215646741422430000014996548749285466274_">
</g>
<g id="Full">
</g>
<g id="Guide">
</g>
</svg>
