<?xml version="1.0" encoding="utf-8"?>
<!-- Generator: Adobe Illustrator 26.0.2, SVG Export Plug-In . SVG Version: 6.00 Build 0)  -->
<svg version="1.1" xmlns="http://www.w3.org/2000/svg" xmlns:xlink="http://www.w3.org/1999/xlink" x="0px" y="0px"
	 viewBox="0 0 320 1911" style="enable-background:new 0 0 320 1911;" xml:space="preserve">
<style type="text/css">
	.st0{fill:#190128;}
	.st1{fill:#98FF8F;}
	.st2{fill:#5B205C;}
	.st3{fill:#E3CF7F;}
	.st4{fill:#36114A;}
	.st5{opacity:0.5;fill:#FFFFFF;}
	.st6{fill:#1F032F;}
	.st7{fill:#260638;}
	.st8{opacity:0.25;fill:#FFF5EF;}
	.st9{fill:#FFF5EF;}
	.st10{fill:#521C57;}
	.st11{fill:#56577A;}
	.st12{opacity:0.5;fill:#9EEBCC;}
	.st13{opacity:0.75;fill:#FFF5EF;}
	.st14{opacity:0.75;fill:#C0E37F;}
	.st15{fill:#56888F;}
	.st16{fill:#C0E37F;}
	.st17{fill:#54A89C;}
	.st18{fill:#51C9A9;}
	.st19{opacity:0.5;fill:#FFF5EF;}
	.st20{fill:#9EEBCC;}
	.st21{fill:#8DD4BB;}
	.st22{fill:#B9D8C3;}
	.st23{opacity:0.75;fill:#FFFF8F;}
	.st24{fill:#CBDFCA;}
	.st25{opacity:0.15;fill:#FFF5EF;}
	.st26{opacity:0.25;fill:#C2A9C2;}
	.st27{fill:#C2A9C2;}
	.st28{fill:#81B8B3;}
	.st29{fill:#718FA1;}
	.st30{fill:#EAE3C7;}
	.st31{fill:#FAD8AC;}
	.st32{fill:#FFE6D5;}
	.st33{opacity:0.35;fill:#FFFFFF;}
	.st34{opacity:0.15;fill:#FFFFFF;}
	.st35{fill:#FFD1A1;}
	.st36{fill:#FFC483;}
	.st37{fill:#FFC98E;}
	.st38{fill:#FFD8BB;}
	.st39{opacity:0.5;}
	.st40{fill:#FFB776;}
	.st41{fill:#FFC183;}
	.st42{opacity:0.75;}
	.st43{fill:#EDA876;}
	.st44{fill:#E89D6B;}
	.st45{opacity:0.5;fill:#E89D6B;}
	.st46{fill:#FFFFFF;}
	.st47{fill:#E58373;}
	.st48{fill:#DD9268;}
	.st49{fill:#D68968;}
	.st50{fill:#FFCBA4;}
	.st51{fill:#C67466;}
	.st52{fill:#CAEACA;}
	.st53{fill:#E0F2DF;}
	.st54{fill:#BA6D61;}
	.st55{fill:#AC655F;}
	.st56{fill:#A45D5F;}
	.st57{fill:#FFB187;}
	.st58{fill:#8D4B61;}
	.st59{fill:#E08977;}
	.st60{fill:#9C555F;}
	.st61{fill:#56435D;}
	.st62{fill:#614B63;}
	.st63{fill:#7F3B59;}
	.st64{fill:#4D3E54;}
	.st65{fill:#32253F;}
	.st66{fill:#2B1B37;}
	.st67{fill:#5B2950;}
	.st68{fill:#4A1E45;}
	.st69{fill:#662E55;}
	.st70{fill:#382A44;}
	.st71{opacity:0.05;fill:#FFFFFF;}
	.st72{fill:#250C33;}
	.st73{fill:#300F39;}
	.st74{fill:#FF00CF;}
</style>
<g id="_x31_9__x28_Rest_of_Sky_x29_">
</g>
<g id="_x31_8__x28_Cloud_Layer_7_x29_">
</g>
<g id="_x31_7__x28_Cloud_Layer_6_x29_">
</g>
<g id="_x31_6__x28_Cloud_Layer_5_x29_">
</g>
<g id="_x31_5">
</g>
<g id="_x31_4">
</g>
<g id="_x31_3__x28_Cloud_Layer_4__x2B__Aircraft_x29_">
</g>
<g id="_x31_2_00000053541090334089295900000016410686384436047024_">
</g>
<g id="_x31_1__x28_Cloud_Layer_3__x2B__Higher_Birds_x29_">
</g>
<g id="_x31_0__x28__x2B__Nearby_Birds_x29_">
</g>
<g id="_x39___x28_Cloud_Layer_2_x29_">
</g>
<g id="_x38___x28__x2B__Nearby_Birds_x29_">
	<g>
		<path class="st44" d="M160.55,1510.95v-1.56c0-0.35-0.42-0.52-0.67-0.28L158,1511c-0.07,0.07-0.17,0.11-0.28,0.11h-0.23
			c-0.6,0-1.18,0.24-1.61,0.67l-0.35,0.35c-0.12,0.12-0.03,0.32,0.13,0.32h5.28c0.35,0,0.52-0.42,0.28-0.67l-0.55-0.55
			C160.59,1511.16,160.55,1511.06,160.55,1510.95z"/>
		<path class="st44" d="M168.31,1517.55h-2.15c-0.6,0-1.18,0.24-1.61,0.67l-0.35,0.35c-0.12,0.12-0.03,0.31,0.13,0.31h0.5
			c0.22,0,0.39,0.17,0.39,0.39v1.33c0,0.35,0.42,0.52,0.67,0.28l1.89-1.89c0.07-0.07,0.17-0.11,0.28-0.11h1.56
			c0.35,0,0.52-0.42,0.28-0.67l-0.02-0.02C169.45,1517.78,168.89,1517.55,168.31,1517.55z"/>
		<path class="st34" d="M0,1579.9h202l-25.67-33.83c-6.63-8.74-18.16-12.2-28.51-8.55c-6.42,2.27-13.55-0.35-16.98-6.23l-6.84-11.73
			c-6.17-10.58-19.04-15.2-30.53-10.97l-2.26,0.83c-5.76,2.12-12.24,0.3-16.04-4.52l-0.4-0.5c-10.69-13.54-29.37-17.81-44.88-10.25
			L0,1508.71V1579.9z"/>
		<g>
			<g>
				<polygon class="st32" points="192.76,1533.17 190.76,1533.17 188.76,1593.17 194.76,1593.17 				"/>
				<path class="st9" d="M189.86,1531.73l-2.59-9.5c-0.13-0.49,0.13-0.99,0.6-1.17h0c0.47-0.17,1,0.05,1.21,0.51l4.12,8.94l0,0
					l9.52,2.54c0.49,0.13,0.79,0.61,0.7,1.11l0,0c-0.09,0.5-0.54,0.84-1.05,0.79l-9.8-0.93l0.01,0.01l-6.94,6.99
					c-0.36,0.36-0.93,0.38-1.31,0.06l0,0c-0.39-0.32-0.46-0.89-0.17-1.3L189.86,1531.73L189.86,1531.73z"/>
			</g>
			<path class="st44" d="M61.81,1529.07c-3.39-0.41-6.53,1.05-8.46,3.53c-0.76,0.97-2.08,1.2-3.13,0.56
				c-1.06-0.65-2.29-1.06-3.61-1.15c-3.36-0.24-6.38,1.64-7.76,4.49c-0.39,0.8-1.29,1.27-2.13,0.96c-0.87-0.31-1.84-0.45-2.85-0.37
				c-2.99,0.25-5.5,2.55-6.03,5.5c-0.72,4.01,2.2,7.65,6.16,7.93c3.09,0.22,5.83-1.69,6.81-4.47c1.27,1.1,2.88,1.82,4.69,1.95
				c3.27,0.23,6.21-1.54,7.65-4.26c1.56,2.16,4.03,3.64,6.9,3.84c5.25,0.37,9.79-3.7,9.95-9.01
				C70.14,1533.83,66.53,1529.63,61.81,1529.07z"/>
			<path class="st45" d="M250.29,1559.64c0.15-5.05-3.69-9.52-8.7-10.12c-3.61-0.43-6.95,1.12-9,3.75c-0.8,1.03-2.21,1.28-3.33,0.59
				c-1.13-0.69-2.43-1.12-3.84-1.22c-3.57-0.25-6.78,1.74-8.26,4.78c-0.42,0.85-1.37,1.35-2.27,1.03c-0.93-0.33-1.95-0.48-3.03-0.39
				c-3.18,0.27-5.85,2.71-6.41,5.85c-0.13,0.71-0.14,1.4-0.06,2.07h-0.05V1583H250L250.29,1559.64z"/>
			<path class="st45" d="M166.7,1560.61c-3.85-0.46-7.42,1.19-9.61,4.01c-0.86,1.1-2.36,1.36-3.55,0.63c-1.2-0.73-2.6-1.2-4.1-1.3
				c-3.82-0.27-7.24,1.86-8.81,5.1c-0.44,0.91-1.47,1.44-2.42,1.09c-0.99-0.36-2.09-0.51-3.24-0.41c-3.39,0.29-6.25,2.9-6.85,6.25
				c-0.81,4.56,2.5,8.69,6.99,9c3.51,0.25,6.62-1.92,7.74-5.08c1.44,1.25,3.28,2.07,5.32,2.21c3.71,0.26,7.05-1.74,8.68-4.83
				c1.77,2.46,4.58,4.14,7.83,4.37c5.96,0.42,11.12-4.2,11.3-10.23C176.16,1566.03,172.06,1561.26,166.7,1560.61z"/>
			<path class="st44" d="M296.06,1539c0.94-6.39,2.24-13.3,4.08-20.61c0.9-3.59,1.86-7.03,2.87-10.31c0.4-1.29,2.24-1.29,2.62,0.01
				c0.95,3.27,1.86,6.71,2.7,10.3c1.71,7.33,2.89,14.24,3.68,20.61H296.06z"/>
			<path class="st44" d="M284.06,1553c0.94-6.39,2.24-13.3,4.08-20.61c0.9-3.59,1.86-7.03,2.87-10.31c0.4-1.29,2.24-1.29,2.62,0.01
				c0.95,3.27,1.86,6.71,2.7,10.3c1.71,7.33,2.89,14.24,3.68,20.61H284.06z"/>
			<path class="st44" d="M18.06,1546.88c0.94-6.39,2.24-13.3,4.08-20.61c0.9-3.59,1.86-7.03,2.87-10.31
				c0.4-1.29,2.24-1.29,2.62,0.01c0.95,3.27,1.86,6.71,2.7,10.3c1.71,7.33,2.89,14.24,3.68,20.61H18.06z"/>
			<path class="st44" d="M38,1552.88c0.94-6.39,2.24-13.3,4.08-20.61c0.9-3.59,1.86-7.03,2.87-10.31c0.4-1.29,2.24-1.29,2.62,0.01
				c0.95,3.27,1.86,6.71,2.7,10.3c1.71,7.33,2.89,14.24,3.68,20.61H38z"/>
			<path class="st44" d="M122,1581c0.94-6.39,2.24-13.3,4.08-20.61c0.9-3.59,1.86-7.03,2.87-10.31c0.4-1.29,2.24-1.29,2.62,0.01
				c0.95,3.27,1.86,6.71,2.7,10.3c1.71,7.33,2.89,14.24,3.68,20.61H122z"/>
			<path class="st44" d="M130,1590.88c0.94-6.39,2.24-13.3,4.08-20.61c0.9-3.59,1.86-7.03,2.87-10.31c0.4-1.29,2.24-1.29,2.62,0.01
				c0.95,3.27,1.86,6.71,2.7,10.3c1.71,7.33,2.89,14.24,3.68,20.61H130z"/>
			<path class="st44" d="M202,1577c0.94-6.39,2.24-13.3,4.08-20.61c0.9-3.59,1.86-7.03,2.87-10.31c0.4-1.29,2.24-1.29,2.62,0.01
				c0.95,3.27,1.86,6.71,2.7,10.3c1.71,7.33,2.89,14.24,3.68,20.61H202z"/>
			<path class="st44" d="M88.06,1567c0.94-6.39,2.24-13.3,4.08-20.61c0.9-3.59,1.86-7.03,2.87-10.31c0.4-1.29,2.24-1.29,2.62,0.01
				c0.95,3.27,1.86,6.71,2.7,10.3c1.71,7.33,2.89,14.24,3.68,20.61H88.06z"/>
			<path class="st44" d="M11.94,1548.88c-0.8-6.37-1.97-13.27-3.68-20.61c-0.84-3.59-1.75-7.03-2.7-10.3
				c-0.38-1.3-2.22-1.31-2.62-0.01c-1,3.28-1.97,6.72-2.87,10.31c-0.03,0.11-0.05,0.21-0.08,0.32v20.29H11.94z"/>
			<path class="st44" d="M10,1538.88c0.94-6.39,2.24-13.3,4.08-20.61c0.9-3.59,1.86-7.03,2.87-10.31c0.4-1.29,2.24-1.29,2.62,0.01
				c0.95,3.27,1.86,6.71,2.7,10.3c1.71,7.33,2.89,14.24,3.68,20.61H10z"/>
			<g>
				<polygon class="st32" points="112.83,1519.16 114.83,1519.16 116.83,1579.16 110.83,1579.16 				"/>
				<path class="st9" d="M115.73,1517.71l2.59-9.5c0.13-0.49-0.13-0.99-0.6-1.17h0c-0.47-0.17-1,0.05-1.21,0.51l-4.12,8.94l0,0
					l-9.52,2.54c-0.49,0.13-0.79,0.61-0.7,1.11l0,0c0.09,0.5,0.54,0.84,1.05,0.79l9.8-0.93l-0.01,0.01l6.94,6.99
					c0.36,0.36,0.93,0.38,1.31,0.06l0,0c0.39-0.32,0.46-0.89,0.17-1.3L115.73,1517.71L115.73,1517.71z"/>
			</g>
			<g>
				<path class="st46" d="M71.09,1522.3h-9.24c-0.36,0-0.66,0.3-0.66,0.66V1559h9.9V1522.3z"/>
				<path class="st38" d="M77.69,1522.3h-6.6v36.7h7.26v-36.04C78.35,1522.6,78.05,1522.3,77.69,1522.3z"/>
				<rect x="61.19" y="1534.84" class="st38" width="17.16" height="1.98"/>
				<path class="st38" d="M67.82,1532.86h-3.37c-0.35,0-0.63-0.28-0.63-0.63v-3.66c0-1.28,1.03-2.31,2.31-2.31l0,0
					c1.28,0,2.31,1.03,2.31,2.31v3.66C68.45,1532.58,68.17,1532.86,67.82,1532.86z"/>
				<path class="st36" d="M75.74,1532.86h-2.05c-0.35,0-0.63-0.28-0.63-0.63v-4.32c0-0.91,0.74-1.65,1.65-1.65h0
					c0.91,0,1.65,0.74,1.65,1.65v4.32C76.37,1532.58,76.09,1532.86,75.74,1532.86z"/>
				<path class="st43" d="M75.62,1519H63.91c-0.78,0-1.41,0.63-1.41,1.41v1.89h14.52v-1.89C77.03,1519.63,76.4,1519,75.62,1519z"/>
				<polygon class="st38" points="88.99,1537.18 83.71,1545.1 73.81,1545.1 73.81,1561 94.27,1561 94.27,1545.1 				"/>
				<rect x="73.81" y="1547.08" class="st46" width="8.58" height="13.92"/>
				<path class="st36" d="M89,1550.38h-1.32c-0.18,0-0.33-0.15-0.33-0.33v-1.98c0-0.55,0.44-0.99,0.99-0.99l0,0
					c0.55,0,0.99,0.44,0.99,0.99v1.98C89.33,1550.23,89.18,1550.38,89,1550.38z"/>
				<rect x="73.81" y="1545.1" class="st38" width="9.9" height="1.98"/>
				<path class="st47" d="M72.56,1545.1h10.45c0.44,0,0.85-0.22,1.1-0.59l4.36-6.55c0.25-0.37,0.8-0.37,1.05,0l4.76,7.13h1.16
					c0.35,0,0.56-0.39,0.36-0.68l-6.51-9.47c-0.17-0.25-0.46-0.41-0.77-0.41h-9.68c-0.24,0-0.47,0.13-0.6,0.33l-6.01,9.62
					C72.05,1544.75,72.24,1545.1,72.56,1545.1z"/>
			</g>
			<g>
				<polygon class="st46" points="259.16,1530.72 264.44,1538.64 274.34,1538.64 274.34,1560.54 253.88,1560.54 253.88,1538.64 				
					"/>
				<polygon class="st38" points="260.33,1532.47 259.16,1530.72 253.88,1538.64 253.88,1542.26 				"/>
				
					<rect x="265.76" y="1538.54" transform="matrix(-1 -5.130486e-11 5.130486e-11 -1 540.1074 3099.0801)" class="st38" width="8.58" height="22"/>
				<path class="st43" d="M275.6,1538.64h-10.45c-0.44,0-0.85-0.22-1.1-0.59l-4.36-6.55c-0.25-0.37-0.8-0.37-1.05,0l-4.76,7.13
					h-1.16c-0.35,0-0.56-0.39-0.36-0.68l6.51-9.47c0.17-0.25,0.46-0.41,0.77-0.41h9.68c0.24,0,0.47,0.13,0.6,0.33l6.01,9.62
					C276.11,1538.29,275.91,1538.64,275.6,1538.64z"/>
			</g>
			<g>
				<polygon class="st46" points="242.87,1539.18 248.15,1547.1 258.05,1547.1 258.05,1569 237.59,1569 237.59,1547.1 				"/>
				<polygon class="st38" points="244.04,1540.93 242.87,1539.18 237.59,1547.1 237.59,1550.72 				"/>
				
					<rect x="249.47" y="1547" transform="matrix(-1 -5.109303e-11 5.109303e-11 -1 507.5251 3116)" class="st38" width="8.58" height="22"/>
				<path class="st36" d="M242.87,1552.38h1.32c0.18,0,0.33-0.15,0.33-0.33v-1.98c0-0.55-0.44-0.99-0.99-0.99l0,0
					c-0.55,0-0.99,0.44-0.99,0.99v1.98C242.54,1552.23,242.69,1552.38,242.87,1552.38z"/>
				<path class="st47" d="M259.31,1547.1h-10.45c-0.44,0-0.85-0.22-1.1-0.59l-4.36-6.55c-0.25-0.37-0.8-0.37-1.05,0l-4.76,7.13
					h-1.16c-0.35,0-0.56-0.39-0.36-0.68l6.51-9.47c0.17-0.25,0.46-0.41,0.77-0.41h9.68c0.24,0,0.47,0.13,0.6,0.33l6.01,9.62
					C259.81,1546.75,259.62,1547.1,259.31,1547.1z"/>
			</g>
			<path class="st43" d="M320,1911v-370.37c-13.78-5.46-29.3-4.76-42.57,2.06l-45.8,23.52c-3.57,1.83-7.76,1.99-11.46,0.43
				l-20.5-8.63c-7.29-3.07-15.63-2.28-22.21,2.11l-23.48,15.65c-4.78,3.19-11.06,3.01-15.66-0.43l-23.4-17.55
				c-5.53-4.15-12.85-5.06-19.23-2.4l-6.87,2.86c-4.25,1.77-9.12,1.26-12.91-1.35l-38.58-26.61c-8.28-5.71-18.94-6.72-28.15-2.67
				L0,1531.66V1911H320z"/>
			<path class="st44" d="M0,1911h320v-360.53c-13.78-5.46-29.3-4.76-42.57,2.06l-40.81,20.96c-6.73,3.46-14.65,3.76-21.62,0.82
				l-15.33-6.45c-7.29-3.07-15.63-2.28-22.21,2.11l-15.84,10.56c-9.36,6.24-21.64,5.9-30.64-0.85l-16.05-12.04
				c-5.53-4.15-12.85-5.06-19.23-2.4l-3.24,1.35c-6.52,2.72-13.97,1.93-19.78-2.07l-35.35-24.38c-8.28-5.71-18.94-6.72-28.15-2.67
				L0,1541.5V1911z"/>
			<path class="st40" d="M287.33,1560.33h-0.66c-0.37,0-0.67-0.3-0.67-0.67V1559c0-0.37,0.3-0.67,0.67-0.67h0.66
				c0.37,0,0.67,0.3,0.67,0.67v0.66C288,1560.03,287.7,1560.33,287.33,1560.33z"/>
			<path class="st40" d="M113.33,1583h-0.66c-0.37,0-0.67-0.3-0.67-0.67v-0.66c0-0.37,0.3-0.67,0.67-0.67h0.66
				c0.37,0,0.67,0.3,0.67,0.67v0.66C114,1582.7,113.7,1583,113.33,1583z"/>
			<path class="st40" d="M87.33,1581h-0.66c-0.37,0-0.67-0.3-0.67-0.67v-0.66c0-0.37,0.3-0.67,0.67-0.67h0.66
				c0.37,0,0.67,0.3,0.67,0.67v0.66C88,1580.7,87.7,1581,87.33,1581z"/>
			<path class="st40" d="M171.33,1609h-0.66c-0.37,0-0.67-0.3-0.67-0.67v-0.66c0-0.37,0.3-0.67,0.67-0.67h0.66
				c0.37,0,0.67,0.3,0.67,0.67v0.66C172,1608.7,171.7,1609,171.33,1609z"/>
			<path class="st40" d="M107.33,1589h-0.66c-0.37,0-0.67-0.3-0.67-0.67v-0.66c0-0.37,0.3-0.67,0.67-0.67h0.66
				c0.37,0,0.67,0.3,0.67,0.67v0.66C108,1588.7,107.7,1589,107.33,1589z"/>
			<path class="st40" d="M281.33,1566.33h-0.66c-0.37,0-0.67-0.3-0.67-0.67V1565c0-0.37,0.3-0.67,0.67-0.67h0.66
				c0.37,0,0.67,0.3,0.67,0.67v0.66C282,1566.03,281.7,1566.33,281.33,1566.33z"/>
		</g>
	</g>
</g>
<g id="_x37___x28_Cloud_Layer_1_x29_">
</g>
<g id="_x36__00000068661700993368236970000009778035845983078308_">
</g>
<g id="_x35__00000078044523084173153740000012161118921027427980_">
</g>
<g id="_x34__00000014591708090884853300000012924613216120282812_">
</g>
<g id="_x33__00000150784116898789853780000012635840894519326891_">
</g>
<g id="_x32__00000155142127021454457340000001118262530934973368_">
</g>
<g id="_x31__00000176748215646741422430000014996548749285466274_">
</g>
<g id="Full">
</g>
<g id="Guide">
</g>
</svg>
