<?xml version="1.0" encoding="utf-8"?>
<!-- Generator: Adobe Illustrator 26.0.2, SVG Export Plug-In . SVG Version: 6.00 Build 0)  -->
<svg version="1.1" xmlns="http://www.w3.org/2000/svg" xmlns:xlink="http://www.w3.org/1999/xlink" x="0px" y="0px"
	 viewBox="0 0 320 1911" style="enable-background:new 0 0 320 1911;" xml:space="preserve">
<style type="text/css">
	.st0{fill:#190128;}
	.st1{fill:#98FF8F;}
	.st2{fill:#5B205C;}
	.st3{fill:#E3CF7F;}
	.st4{fill:#36114A;}
	.st5{opacity:0.5;fill:#FFFFFF;}
	.st6{fill:#1F032F;}
	.st7{fill:#260638;}
	.st8{opacity:0.25;fill:#FFF5EF;}
	.st9{fill:#FFF5EF;}
	.st10{fill:#521C57;}
	.st11{fill:#56577A;}
	.st12{opacity:0.5;fill:#9EEBCC;}
	.st13{opacity:0.75;fill:#FFF5EF;}
	.st14{opacity:0.75;fill:#C0E37F;}
	.st15{fill:#56888F;}
	.st16{fill:#C0E37F;}
	.st17{fill:#54A89C;}
	.st18{fill:#51C9A9;}
	.st19{opacity:0.5;fill:#FFF5EF;}
	.st20{fill:#9EEBCC;}
	.st21{fill:#8DD4BB;}
	.st22{fill:#B9D8C3;}
	.st23{opacity:0.75;fill:#FFFF8F;}
	.st24{fill:#CBDFCA;}
	.st25{opacity:0.15;fill:#FFF5EF;}
	.st26{opacity:0.25;fill:#C2A9C2;}
	.st27{fill:#C2A9C2;}
	.st28{fill:#81B8B3;}
	.st29{fill:#718FA1;}
	.st30{fill:#EAE3C7;}
	.st31{fill:#FAD8AC;}
	.st32{fill:#FFE6D5;}
	.st33{opacity:0.35;fill:#FFFFFF;}
	.st34{opacity:0.15;fill:#FFFFFF;}
	.st35{fill:#FFD1A1;}
	.st36{fill:#FFC483;}
	.st37{fill:#FFC98E;}
	.st38{fill:#FFD8BB;}
	.st39{opacity:0.5;}
	.st40{fill:#FFB776;}
	.st41{fill:#FFC183;}
	.st42{opacity:0.75;}
	.st43{fill:#EDA876;}
	.st44{fill:#E89D6B;}
	.st45{opacity:0.5;fill:#E89D6B;}
	.st46{fill:#FFFFFF;}
	.st47{fill:#E58373;}
	.st48{fill:#DD9268;}
	.st49{fill:#D68968;}
	.st50{fill:#FFCBA4;}
	.st51{fill:#C67466;}
	.st52{fill:#CAEACA;}
	.st53{fill:#E0F2DF;}
	.st54{fill:#BA6D61;}
	.st55{fill:#AC655F;}
	.st56{fill:#A45D5F;}
	.st57{fill:#FFB187;}
	.st58{fill:#8D4B61;}
	.st59{fill:#E08977;}
	.st60{fill:#9C555F;}
	.st61{fill:#56435D;}
	.st62{fill:#614B63;}
	.st63{fill:#7F3B59;}
	.st64{fill:#4D3E54;}
	.st65{fill:#32253F;}
	.st66{fill:#2B1B37;}
	.st67{fill:#5B2950;}
	.st68{fill:#4A1E45;}
	.st69{fill:#662E55;}
	.st70{fill:#382A44;}
	.st71{opacity:0.05;fill:#FFFFFF;}
	.st72{fill:#250C33;}
	.st73{fill:#300F39;}
	.st74{fill:#FF00CF;}
</style>
<g id="_x31_9__x28_Rest_of_Sky_x29_">
</g>
<g id="_x31_8__x28_Cloud_Layer_7_x29_">
	<g>
		<path class="st25" d="M265.89,205.47L250,215h70v-15.18C302.15,193.66,282.32,195.61,265.89,205.47z"/>
		<path class="st19" d="M320,334.08l-6-3.6c-5.77-3.46-13.02-3.29-18.62,0.44l-8.49,5.66c-5.2,3.47-11.86,3.88-17.45,1.09
			l-7.65-3.83c-5.77-2.89-12.66-2.34-17.91,1.41L222,350.88h98V334.08z"/>
		<path class="st26" d="M55.96,366.31c6.41-3.84,13.94-5.05,21.07-3.58c4.7,0.97,9.55,0.64,14.03-1.07
			c11.49-4.4,24.8-4.22,35.78,1.27L141,370H49.82L55.96,366.31z"/>
		<path class="st27" d="M288,403.55h32v-15.2c-2.55,0.85-5.06,1.89-7.5,3.11C306.02,394.7,288,403.55,288,403.55z"/>
		<path class="st28" d="M76,445.68l-7.55-4.53c-10.59-6.36-23.7-6.86-34.74-1.33l-11.73,5.86H76z"/>
		<path class="st28" d="M271.66,536H320v-18.18c-8.96,0.59-17.85,2.93-26.12,7.07L271.66,536z"/>
		<path class="st29" d="M93.34,504l-23.89-16.65c-3.88-2.58-9.99-3.54-15.53-2.45l-4.46,0.88c-5.96,1.17-12.53-0.04-16.3-3.01
			l-9.15-7.21c-4.58-3.61-13.08-4.52-19.52-2.1L0,475v29H93.34z"/>
		<path class="st19" d="M186,660l-9.36-5.62c-13.14-7.88-29.39-8.51-43.09-1.65L119,660H186z"/>
		<path class="st28" d="M118.27,564.48c-5.64-3.47-13.08-3.7-18.98-0.59l-2.99,1.58c-6.44,3.4-14.63,2.79-20.33-1.51l-12.44-9.39
			c-6.41-4.83-15.67-4.71-22.33-0.14c-6.93,4.76-16.83,4.24-23.07-1.25L3,539.87c-0.95-0.84-1.96-1.61-3-2.31v50.13h156.78
			L118.27,564.48z"/>
		<path class="st19" d="M320,753.31c-7.05-2.07-14.72-1.45-21.45,1.91L289,760h31V753.31z"/>
		<path class="st12" d="M293.42,834.69l-4.38,4.07c-3.45,3.21-8.31,4.43-12.87,3.24l-11.11-2.9c-4.55-1.19-9.39,0.02-12.84,3.21
			l-3.99,3.69c-3.16,2.91-7.49,4.19-11.72,3.45l-12.84-2.23c-3.92-0.68-7.95,0.36-11.04,2.87L194,865.16h126v-29.72l-13.33-3.89
			C302.01,830.19,296.97,831.38,293.42,834.69z"/>
		<path class="st19" d="M0,865h108l-34.16-13.45c-5.69-2.24-12.36-2.35-18.18-0.32v0c-7.58,2.65-16.43,1.59-22.68-2.7l-13.84-9.51
			c-5.43-3.73-12.55-4.77-19.14-3.47V865z"/>
		<g>
			<path class="st20" d="M66.79,943.89c-4.54-2.13-9.85-2.24-14.48-0.31l0,0c-6.04,2.52-13.09,1.52-18.07-2.57l-11.03-9.05
				c-6.51-5.34-16.08-4.92-22.64,0.25L0,932.66v24.03h94L66.79,943.89z"/>
		</g>
		<path class="st20" d="M217,1028.68l-6.57-3.94c-9.22-5.53-20.62-5.97-30.23-1.16l-10.2,5.1H217z"/>
	</g>
</g>
<g id="_x31_7__x28_Cloud_Layer_6_x29_">
</g>
<g id="_x31_6__x28_Cloud_Layer_5_x29_">
</g>
<g id="_x31_5">
</g>
<g id="_x31_4">
</g>
<g id="_x31_3__x28_Cloud_Layer_4__x2B__Aircraft_x29_">
</g>
<g id="_x31_2_00000053541090334089295900000016410686384436047024_">
</g>
<g id="_x31_1__x28_Cloud_Layer_3__x2B__Higher_Birds_x29_">
</g>
<g id="_x31_0__x28__x2B__Nearby_Birds_x29_">
</g>
<g id="_x39___x28_Cloud_Layer_2_x29_">
</g>
<g id="_x38___x28__x2B__Nearby_Birds_x29_">
</g>
<g id="_x37___x28_Cloud_Layer_1_x29_">
</g>
<g id="_x36__00000068661700993368236970000009778035845983078308_">
</g>
<g id="_x35__00000078044523084173153740000012161118921027427980_">
</g>
<g id="_x34__00000014591708090884853300000012924613216120282812_">
</g>
<g id="_x33__00000150784116898789853780000012635840894519326891_">
</g>
<g id="_x32__00000155142127021454457340000001118262530934973368_">
</g>
<g id="_x31__00000176748215646741422430000014996548749285466274_">
</g>
<g id="Full">
</g>
<g id="Guide">
</g>
</svg>
