<?xml version="1.0" encoding="utf-8"?>
<!-- Generator: Adobe Illustrator 26.0.2, SVG Export Plug-In . SVG Version: 6.00 Build 0)  -->
<svg version="1.1" xmlns="http://www.w3.org/2000/svg" xmlns:xlink="http://www.w3.org/1999/xlink" x="0px" y="0px"
	 viewBox="0 0 500 375" style="enable-background:new 0 0 500 375;" xml:space="preserve">
<style type="text/css">
	.st0{fill:#FFEAD7;}
	.st1{opacity:0.5;fill:#FFDFC2;}
	.st2{fill:#FFFFFF;}
	.st3{opacity:0.5;fill:#FFDCB8;}
	.st4{fill:#FFF5EF;}
	.st5{fill:#FFDCB8;}
	.st6{fill:#FFCE99;}
	.st7{fill:#FFDFC2;}
	.st8{fill:#FFDBBD;}
	.st9{fill:#FFC483;}
	.st10{fill:#FFB776;}
	.st11{fill:#FFCBA4;}
	.st12{fill:#E89D6B;}
	.st13{fill:#DD9268;}
	.st14{fill:#E58373;}
	.st15{fill:#E0F2DF;}
	.st16{fill:#CAEACA;}
	.st17{fill:none;}
	.st18{fill:#C67466;}
	.st19{fill:#AC655F;}
	.st20{fill:#FFB187;}
	.st21{fill:#8D4B61;}
	.st22{fill:#9C555F;}
	.st23{fill:#AAE2AA;}
	.st24{fill:#79CCAA;}
	.st25{fill:#662E55;}
	.st26{fill:#5B2950;}
	.st27{fill:#32253F;}
	.st28{fill:#2B1B37;}
	.st29{fill:#382A44;}
	.st30{opacity:0.05;fill:#FFFFFF;}
	.st31{fill:#4A1E45;}
	.st32{fill:#56435D;}
	.st33{fill:#7F3B59;}
	.st34{fill:#B2836F;}
	.st35{fill:#4D3E54;}
	.st36{fill:#614B63;}
	.st37{opacity:0.7;fill:#49BA9C;}
	.st38{fill:#3B123E;}
	.st39{fill:#A4DDC8;}
	.st40{fill:#250C33;}
	.st41{fill:#300F39;}
	.st42{fill:#190128;}
	.st43{fill:#35F200;}
	.st44{fill:#0058F4;}
</style>
<g id="_x31_">
</g>
<g id="_x32_">
</g>
<g id="_x33_">
</g>
<g id="_x34__1_">
</g>
<g id="_x35__00000068650285933184752780000010330952612633446584_">
</g>
<g id="_x36_">
</g>
<g id="_x37_">
</g>
<g id="_x38_">
</g>
<g id="_x39__00000049217028608276070180000013554017633487154818_">
	<g>
		<path class="st12" d="M11.45,199.09c0.91-6.24,2.19-12.97,3.97-20.1c0.88-3.5,1.82-6.86,2.8-10.06c0.39-1.26,2.19-1.26,2.55,0.01
			c0.93,3.19,1.81,6.54,2.63,10.05c1.67,7.15,2.81,13.89,3.59,20.1H11.45z"/>
		<g>
			<g>
				<g>
					<path class="st12" d="M418,166c0.78-5.33,1.87-11.09,3.4-17.19c0.75-2.99,1.55-5.86,2.39-8.6c0.33-1.08,1.87-1.07,2.18,0.01
						c0.79,2.73,1.55,5.6,2.25,8.59c1.43,6.12,2.41,11.88,3.07,17.19H418z"/>
				</g>
			</g>
		</g>
		<g>
			<g>
				<g>
					<path class="st12" d="M474.7,170.59c0.78-5.33,1.87-11.09,3.4-17.19c0.75-2.99,1.55-5.86,2.39-8.6
						c0.33-1.08,1.87-1.07,2.18,0.01c0.79,2.73,1.55,5.6,2.25,8.59c1.43,6.12,2.41,11.88,3.07,17.19H474.7z"/>
				</g>
			</g>
		</g>
		<path class="st13" d="M0,189.5h10.3c-0.66-5.31-1.64-11.07-3.07-17.19c-0.7-3-1.46-5.86-2.25-8.59c-0.32-1.08-1.85-1.09-2.18-0.01
			c-0.84,2.74-1.64,5.61-2.39,8.6c-0.14,0.57-0.26,1.12-0.4,1.69V189.5z"/>
		<g>
			<g>
				<g>
					<path class="st13" d="M4.7,196.59c0.78-5.33,1.87-11.09,3.4-17.19c0.75-2.99,1.55-5.86,2.39-8.6c0.33-1.08,1.87-1.07,2.18,0.01
						c0.79,2.73,1.55,5.6,2.25,8.59c1.43,6.12,2.41,11.88,3.07,17.19H4.7z"/>
				</g>
			</g>
		</g>
		<g>
			<g>
				<g>
					<path class="st13" d="M410,170.59c0.78-5.33,1.87-11.09,3.4-17.19c0.75-2.99,1.55-5.86,2.39-8.6c0.33-1.08,1.87-1.07,2.18,0.01
						c0.79,2.73,1.55,5.6,2.25,8.59c1.43,6.12,2.41,11.88,3.07,17.19H410z"/>
				</g>
			</g>
		</g>
		<g>
			<g>
				<g>
					<path class="st13" d="M483.5,176c0.78-5.33,1.87-11.09,3.4-17.19c0.75-2.99,1.55-5.86,2.39-8.6c0.33-1.08,1.87-1.07,2.18,0.01
						c0.79,2.73,1.55,5.6,2.25,8.59c1.43,6.12,2.41,11.88,3.07,17.19H483.5z"/>
				</g>
			</g>
		</g>
		<path class="st13" d="M0,180l18.02,6.01c11.78,3.93,24.39,4.65,36.53,2.09l19.53-4.11c23.59-4.97,48.08,2.56,64.8,19.93l6.17,6.41
			c11.06,11.48,28.63,13.7,42.19,5.32l18.01-11.13c16.4-10.13,37.11-10.17,53.55-0.09l0,0c21.72,13.31,48.95,13.77,71.11,1.21
			l62.94-35.7c22.56-12.8,49.19-16.43,74.35-10.13L500,168v229H0V180z"/>
		<path class="st12" d="M467.2,159.79c-25.17-6.29-51.79-2.66-74.35,10.13l-62.94,35.7c-22.16,12.57-49.39,12.1-71.11-1.21h0
			c-16.44-10.07-37.15-10.04-53.55,0.09l-18.01,11.13c-13.56,8.38-31.13,6.16-42.19-5.32l-6.17-6.41
			c-16.72-17.37-41.21-24.9-64.8-19.93l-19.53,4.11c-12.15,2.56-24.76,1.84-36.53-2.09L0,179.99v8.72l18.16,6.01
			c11.87,3.93,24.58,4.65,36.83,2.09l19.69-4.11c23.78-4.97,48.46,2.56,65.32,19.93l6.22,6.41c11.15,11.48,28.85,13.7,42.53,5.32
			l18.16-11.13c16.53-10.13,37.41-10.17,53.98-0.09l0,0c21.89,13.31,49.34,13.77,71.68,1.21l63.44-35.7
			c22.74-12.8,49.58-16.43,74.95-10.13l29.06,7.21v-7.72L467.2,159.79z"/>
		<path class="st12" d="M279.41,215h-0.83c-0.32,0-0.59-0.26-0.59-0.59v-4.83c0-0.32,0.26-0.59,0.59-0.59h0.83
			c0.32,0,0.59,0.26,0.59,0.59v4.83C280,214.74,279.74,215,279.41,215z"/>
		<path class="st12" d="M438.41,160h-0.83c-0.32,0-0.59-0.26-0.59-0.59v-4.83c0-0.32,0.26-0.59,0.59-0.59h0.83
			c0.32,0,0.59,0.26,0.59,0.59v4.83C439,159.74,438.74,160,438.41,160z"/>
		<path class="st12" d="M130.91,198h-0.83c-0.32,0-0.59-0.26-0.59-0.59v-4.83c0-0.32,0.26-0.59,0.59-0.59h0.83
			c0.32,0,0.59,0.26,0.59,0.59v4.83C131.5,197.74,131.24,198,130.91,198z"/>
		<path class="st12" d="M34.2,191.05l5.14-4.89c0.3-0.29,0.14-0.83-0.26-0.86h0c-1.67-0.12-3.32,0.49-4.59,1.71h0l0,0
			c-1.09-1.38-2.64-2.22-4.31-2.34l0,0c-0.4-0.03-0.63,0.48-0.38,0.81L34.2,191.05z"/>
		<path class="st12" d="M272.33,226h-0.66c-0.37,0-0.67-0.3-0.67-0.67v-0.66c0-0.37,0.3-0.67,0.67-0.67h0.66
			c0.37,0,0.67,0.3,0.67,0.67v0.66C273,225.7,272.7,226,272.33,226z"/>
		<path class="st9" d="M242.33,214h-0.66c-0.37,0-0.67-0.3-0.67-0.67v-0.66c0-0.37,0.3-0.67,0.67-0.67h0.66
			c0.37,0,0.67,0.3,0.67,0.67v0.66C243,213.7,242.7,214,242.33,214z"/>
		<path class="st12" d="M413.33,179h-0.66c-0.37,0-0.67-0.3-0.67-0.67v-0.66c0-0.37,0.3-0.67,0.67-0.67h0.66
			c0.37,0,0.67,0.3,0.67,0.67v0.66C414,178.7,413.7,179,413.33,179z"/>
		<path class="st12" d="M368.33,207h-0.66c-0.37,0-0.67-0.3-0.67-0.67v-0.66c0-0.37,0.3-0.67,0.67-0.67h0.66
			c0.37,0,0.67,0.3,0.67,0.67v0.66C369,206.7,368.7,207,368.33,207z"/>
		<path class="st12" d="M485.33,178h-0.66c-0.37,0-0.67-0.3-0.67-0.67v-0.66c0-0.37,0.3-0.67,0.67-0.67h0.66
			c0.37,0,0.67,0.3,0.67,0.67v0.66C486,177.7,485.7,178,485.33,178z"/>
		<path class="st9" d="M411.33,184h-0.66c-0.37,0-0.67-0.3-0.67-0.67v-0.66c0-0.37,0.3-0.67,0.67-0.67h0.66
			c0.37,0,0.67,0.3,0.67,0.67v0.66C412,183.7,411.7,184,411.33,184z"/>
		<path class="st9" d="M435.33,172h-0.66c-0.37,0-0.67-0.3-0.67-0.67v-0.66c0-0.37,0.3-0.67,0.67-0.67h0.66
			c0.37,0,0.67,0.3,0.67,0.67v0.66C436,171.7,435.7,172,435.33,172z"/>
		<path class="st12" d="M91.33,200h-0.66c-0.37,0-0.67-0.3-0.67-0.67v-0.66c0-0.37,0.3-0.67,0.67-0.67h0.66
			c0.37,0,0.67,0.3,0.67,0.67v0.66C92,199.7,91.7,200,91.33,200z"/>
		<path class="st12" d="M71.33,206h-0.66c-0.37,0-0.67-0.3-0.67-0.67v-0.66c0-0.37,0.3-0.67,0.67-0.67h0.66
			c0.37,0,0.67,0.3,0.67,0.67v0.66C72,205.7,71.7,206,71.33,206z"/>
		<path class="st9" d="M130.33,216h-0.66c-0.37,0-0.67-0.3-0.67-0.67v-0.66c0-0.37,0.3-0.67,0.67-0.67h0.66
			c0.37,0,0.67,0.3,0.67,0.67v0.66C131,215.7,130.7,216,130.33,216z"/>
		<path class="st9" d="M87.33,214h-0.66c-0.37,0-0.67-0.3-0.67-0.67v-0.66c0-0.37,0.3-0.67,0.67-0.67h0.66
			c0.37,0,0.67,0.3,0.67,0.67v0.66C88,213.7,87.7,214,87.33,214z"/>
		<path class="st12" d="M30.33,213h-0.66c-0.37,0-0.67-0.3-0.67-0.67v-0.66c0-0.37,0.3-0.67,0.67-0.67h0.66
			c0.37,0,0.67,0.3,0.67,0.67v0.66C31,212.7,30.7,213,30.33,213z"/>
		<path class="st9" d="M35.33,208h-0.66c-0.37,0-0.67-0.3-0.67-0.67v-0.66c0-0.37,0.3-0.67,0.67-0.67h0.66
			c0.37,0,0.67,0.3,0.67,0.67v0.66C36,207.7,35.7,208,35.33,208z"/>
		<path class="st12" d="M135.33,223h-0.66c-0.37,0-0.67-0.3-0.67-0.67v-0.66c0-0.37,0.3-0.67,0.67-0.67h0.66
			c0.37,0,0.67,0.3,0.67,0.67v0.66C136,222.7,135.7,223,135.33,223z"/>
		<path class="st12" d="M181.33,241h-0.66c-0.37,0-0.67-0.3-0.67-0.67v-0.66c0-0.37,0.3-0.67,0.67-0.67h0.66
			c0.37,0,0.67,0.3,0.67,0.67v0.66C182,240.7,181.7,241,181.33,241z"/>
	</g>
</g>
<g id="_x31_0_00000147915158777594467630000018299806147496965556_">
</g>
<g id="_x31_1_00000031209085476423013220000010579698211204677507_">
</g>
<g id="_x31_2">
</g>
<g id="Full_Illustration">
</g>
<g id="Cropping_Guide">
</g>
</svg>
