<?xml version="1.0" encoding="utf-8"?>
<!-- Generator: Adobe Illustrator 26.0.2, SVG Export Plug-In . SVG Version: 6.00 Build 0)  -->
<svg version="1.1" xmlns="http://www.w3.org/2000/svg" xmlns:xlink="http://www.w3.org/1999/xlink" x="0px" y="0px"
	 viewBox="0 0 500 375" style="enable-background:new 0 0 500 375;" xml:space="preserve">
<style type="text/css">
	.st0{fill:#FFEAD7;}
	.st1{opacity:0.5;fill:#FFDFC2;}
	.st2{fill:#FFFFFF;}
	.st3{opacity:0.5;fill:#FFDCB8;}
	.st4{fill:#FFF5EF;}
	.st5{fill:#FFDCB8;}
	.st6{fill:#FFCE99;}
	.st7{fill:#FFDFC2;}
	.st8{fill:#FFDBBD;}
	.st9{fill:#FFC483;}
	.st10{fill:#FFB776;}
	.st11{fill:#FFCBA4;}
	.st12{fill:#E89D6B;}
	.st13{fill:#DD9268;}
	.st14{fill:#E58373;}
	.st15{fill:#E0F2DF;}
	.st16{fill:#CAEACA;}
	.st17{fill:none;}
	.st18{fill:#C67466;}
	.st19{fill:#AC655F;}
	.st20{fill:#FFB187;}
	.st21{fill:#8D4B61;}
	.st22{fill:#9C555F;}
	.st23{fill:#AAE2AA;}
	.st24{fill:#79CCAA;}
	.st25{fill:#662E55;}
	.st26{fill:#5B2950;}
	.st27{fill:#32253F;}
	.st28{fill:#2B1B37;}
	.st29{fill:#382A44;}
	.st30{opacity:0.05;fill:#FFFFFF;}
	.st31{fill:#4A1E45;}
	.st32{fill:#56435D;}
	.st33{fill:#7F3B59;}
	.st34{fill:#B2836F;}
	.st35{fill:#4D3E54;}
	.st36{fill:#614B63;}
	.st37{opacity:0.7;fill:#49BA9C;}
	.st38{fill:#3B123E;}
	.st39{fill:#A4DDC8;}
	.st40{fill:#250C33;}
	.st41{fill:#300F39;}
	.st42{fill:#190128;}
	.st43{fill:#35F200;}
	.st44{fill:#0058F4;}
</style>
<g id="_x31_">
</g>
<g id="_x32_">
</g>
<g id="_x33_">
</g>
<g id="_x34__1_">
</g>
<g id="_x35__00000068650285933184752780000010330952612633446584_">
</g>
<g id="_x36_">
</g>
<g id="_x37_">
</g>
<g id="_x38_">
	<g>
		<path class="st12" d="M170.45,190c0.91-6.24,2.19-12.97,3.97-20.1c0.88-3.5,1.82-6.86,2.8-10.06c0.39-1.26,2.19-1.26,2.55,0.01
			c0.93,3.19,1.81,6.54,2.63,10.05c1.67,7.15,2.81,13.89,3.59,20.1H170.45z"/>
		<path class="st12" d="M50.5,193c0.91-6.24,2.19-12.97,3.97-20.1c0.88-3.5,1.82-6.86,2.8-10.06c0.39-1.26,2.19-1.26,2.55,0.01
			c0.93,3.19,1.81,6.54,2.63,10.05c1.67,7.15,2.81,13.89,3.59,20.1H50.5z"/>
		<path class="st12" d="M245,176.59c0.91-6.24,2.19-12.97,3.97-20.1c0.88-3.5,1.82-6.86,2.8-10.06c0.39-1.26,2.19-1.26,2.55,0.01
			c0.93,3.19,1.81,6.54,2.63,10.05c1.67,7.15,2.81,13.89,3.59,20.1H245z"/>
		<path class="st12" d="M350.95,193c0.91-6.24,2.19-12.97,3.97-20.1c0.88-3.5,1.82-6.86,2.8-10.06c0.39-1.26,2.19-1.26,2.55,0.01
			c0.93,3.19,1.81,6.54,2.63,10.05c1.67,7.15,2.81,13.89,3.59,20.1H350.95z"/>
		<path class="st13" d="M178.45,184.59c0.91-6.24,2.19-12.97,3.97-20.1c0.88-3.5,1.82-6.86,2.8-10.06c0.39-1.26,2.19-1.26,2.55,0.01
			c0.93,3.19,1.81,6.54,2.63,10.05c1.67,7.15,2.81,13.89,3.59,20.1H178.45z"/>
		<g>
			<path class="st2" d="M220.5,131c-0.55,0-1,0.45-1,1v9.86c0,0.42,0.09,0.83,0.26,1.22l1.48,3.34c0.17,0.38,0.26,0.8,0.26,1.22
				v51.86H234V147v-4.5V131H220.5z"/>
			<path class="st8" d="M227.31,157.5h1.37c0.45,0,0.81-0.36,0.81-0.81V154c0-0.83-0.67-1.5-1.5-1.5l0,0c-0.83,0-1.5,0.67-1.5,1.5
				v2.69C226.5,157.14,226.86,157.5,227.31,157.5z"/>
			<path class="st8" d="M243.5,131H234v11.5v4.5v52.5h8.5v-51.86c0-0.42,0.09-0.83,0.26-1.22l1.48-3.34
				c0.17-0.38,0.26-0.8,0.26-1.22V132C244.5,131.45,244.05,131,243.5,131z"/>
			<path class="st2" d="M234,117h-10c-1.1,0-2,0.9-2,2v12h12V117z"/>
			<path class="st8" d="M240,117h-6v14h8v-12C242,117.9,241.1,117,240,117z"/>
			<path class="st8" d="M230,131h-4c-0.55,0-1-0.45-1-1v-6c0-1.66,1.34-3,3-3l0,0c1.66,0,3,1.34,3,3v6
				C231,130.55,230.55,131,230,131z"/>
			<path class="st2" d="M242,120h-20v-1c0-1.1,0.9-2,2-2h16c1.1,0,2,0.9,2,2V120z"/>
		</g>
		<path class="st12" d="M307.73,175.85c-3.44-0.64-6.74,0.64-8.88,3.04c-0.84,0.94-2.2,1.09-3.23,0.36
			c-1.04-0.73-2.27-1.23-3.61-1.41c-3.42-0.46-6.62,1.25-8.23,4.08c-0.45,0.8-1.4,1.21-2.24,0.84c-0.87-0.38-1.85-0.58-2.89-0.56
			c-3.07,0.06-5.79,2.24-6.52,5.22c-1,4.05,1.74,7.96,5.77,8.51c3.14,0.43,6.07-1.34,7.26-4.12c1.22,1.21,2.83,2.05,4.66,2.3
			c3.32,0.45,6.45-1.16,8.1-3.84c1.45,2.31,3.88,3.99,6.8,4.38c5.34,0.72,10.25-3.13,10.77-8.55
			C315.92,181.27,312.51,176.74,307.73,175.85z"/>
		<path class="st13" d="M369.09,174.08c-3.47-0.46-6.7,0.99-8.71,3.5c-0.79,0.98-2.14,1.2-3.21,0.53c-1.08-0.68-2.33-1.11-3.68-1.22
			c-3.44-0.28-6.55,1.59-8.01,4.5c-0.41,0.82-1.34,1.28-2.2,0.96c-0.89-0.33-1.87-0.49-2.92-0.41c-3.06,0.22-5.67,2.54-6.25,5.55
			c-0.78,4.1,2.15,7.86,6.2,8.2c3.16,0.26,5.99-1.65,7.03-4.49c1.28,1.14,2.93,1.9,4.78,2.06c3.34,0.28,6.38-1.49,7.89-4.26
			c1.57,2.23,4.08,3.78,7.01,4.03c5.37,0.45,10.07-3.66,10.31-9.09C377.55,179.07,373.91,174.73,369.09,174.08z"/>
		<path class="st13" d="M81.24,174.37c-3.47-0.46-6.7,0.99-8.71,3.5c-0.79,0.98-2.14,1.2-3.21,0.53c-1.08-0.68-2.33-1.11-3.68-1.22
			c-3.44-0.28-6.55,1.59-8.01,4.5c-0.41,0.82-1.34,1.28-2.2,0.96c-0.89-0.33-1.87-0.49-2.92-0.41c-3.06,0.22-5.67,2.54-6.25,5.55
			c-0.78,4.1,2.15,7.86,6.2,8.2c3.16,0.26,5.99-1.65,7.03-4.49c1.28,1.14,2.93,1.9,4.78,2.06c3.34,0.28,6.38-1.49,7.89-4.26
			c1.57,2.23,4.08,3.78,7.01,4.03c5.37,0.45,10.07-3.66,10.31-9.09C89.7,179.36,86.06,175.01,81.24,174.37z"/>
		<path class="st12" d="M135.31,173.58c-3.47-0.49-6.71,0.94-8.74,3.44c-0.79,0.98-2.15,1.18-3.21,0.51
			c-1.07-0.68-2.32-1.13-3.67-1.25c-3.44-0.31-6.56,1.54-8.04,4.44c-0.42,0.81-1.35,1.27-2.2,0.94c-0.89-0.34-1.87-0.5-2.91-0.43
			c-3.06,0.2-5.69,2.5-6.29,5.51c-0.82,4.09,2.09,7.88,6.14,8.24c3.16,0.29,6-1.61,7.07-4.43c1.27,1.15,2.91,1.93,4.76,2.09
			c3.34,0.3,6.39-1.44,7.92-4.2c1.55,2.25,4.05,3.81,6.98,4.08c5.37,0.49,10.1-3.58,10.38-9.02
			C143.74,178.64,140.13,174.26,135.31,173.58z"/>
		<g>
			<path class="st2" d="M90.8,159l7.41,11.11c0.37,0.56,1,0.89,1.66,0.89h28.12v35H98.8h-16v-35L90.8,159z"/>
			<polygon class="st8" points="82.8,175 92.8,161 90.8,158 82.8,171 			"/>
			<rect x="101" y="167.5" transform="matrix(-1 2.162569e-11 -2.162569e-11 -1 229 370)" class="st8" width="27" height="35"/>
			<path class="st14" d="M129.89,171H99.87c-0.67,0-1.29-0.33-1.66-0.89l-6.61-9.92c-0.38-0.57-1.21-0.57-1.59,0L82.8,171h-1.75
				c-0.53,0-0.84-0.59-0.54-1.03l9.87-14.36c0.26-0.38,0.7-0.61,1.17-0.61h28.85c0.37,0,0.71,0.19,0.91,0.5l9.11,14.57
				C130.66,170.48,130.37,171,129.89,171z"/>
			<path class="st8" d="M91.52,179h1.37c0.45,0,0.81-0.36,0.81-0.81v-2.69c0-0.83-0.67-1.5-1.5-1.5h0c-0.83,0-1.5,0.67-1.5,1.5v2.69
				C90.71,178.64,91.08,179,91.52,179z"/>
		</g>
		<g>
			<g>
				<g>
					<path class="st12" d="M105.5,193.59c0.78-5.33,1.87-11.09,3.4-17.19c0.75-2.99,1.55-5.86,2.39-8.6
						c0.33-1.08,1.87-1.07,2.18,0.01c0.79,2.73,1.55,5.6,2.25,8.59c1.43,6.12,2.41,11.88,3.07,17.19H105.5z"/>
				</g>
			</g>
		</g>
		<path class="st13" d="M101.41,198.55l36.12,8.45l3.93-16.8c-1-2.21-2.82-4.05-5.19-4.97c-3.26-1.26-6.75-0.61-9.29,1.35
			c-1,0.77-2.36,0.66-3.24-0.24c-0.89-0.91-2-1.63-3.29-2.05c-3.27-1.09-6.74,0.01-8.84,2.49c-0.59,0.7-1.6,0.93-2.36,0.42
			c-0.79-0.53-1.71-0.91-2.74-1.09c-3.03-0.51-6.11,1.14-7.38,3.93C97.7,193.19,98.81,196.7,101.41,198.55z"/>
		<g>
			<path class="st2" d="M264,143l7.41,11.11c0.37,0.56,1,0.89,1.66,0.89H287v35h-15h-16v-35L264,143z"/>
			<polygon class="st8" points="256,159 266,145 264,142 256,155 			"/>
			<rect x="274" y="155" transform="matrix(-1 4.491506e-11 -4.491506e-11 -1 561 345)" class="st8" width="13" height="35"/>
			<path class="st14" d="M288.89,155h-15.84c-0.67,0-1.29-0.33-1.66-0.89l-6.61-9.92c-0.38-0.57-1.21-0.57-1.59,0L255.98,155h-1.75
				c-0.53,0-0.84-0.59-0.54-1.03l9.87-14.36c0.26-0.38,0.7-0.61,1.17-0.61h14.66c0.37,0,0.71,0.19,0.91,0.5l9.11,14.57
				C289.65,154.48,289.36,155,288.89,155z"/>
			<path class="st8" d="M264.29,163h1.37c0.45,0,0.81-0.36,0.81-0.81v-2.69c0-0.83-0.67-1.5-1.5-1.5l0,0c-0.83,0-1.5,0.67-1.5,1.5
				v2.69C263.48,162.64,263.84,163,264.29,163z"/>
		</g>
		<path class="st13" d="M266,176.74c3.48-0.34,6.67,1.21,8.59,3.79c0.75,1.01,2.1,1.27,3.19,0.64c1.1-0.64,2.36-1.03,3.72-1.1
			c3.45-0.17,6.49,1.81,7.85,4.76c0.38,0.83,1.3,1.32,2.16,1.03c0.9-0.3,1.89-0.42,2.93-0.31c3.05,0.32,5.58,2.73,6.06,5.76
			c0.65,4.12-2.42,7.78-6.47,7.98c-3.17,0.16-5.93-1.85-6.88-4.72c-1.32,1.1-2.99,1.8-4.84,1.9c-3.35,0.16-6.32-1.7-7.74-4.52
			c-1.64,2.18-4.2,3.64-7.14,3.79c-5.38,0.26-9.94-3.99-10-9.43C257.37,181.44,261.16,177.22,266,176.74z"/>
		<path class="st13" d="M317,149h-0.95c-0.66,0-1.05-0.74-0.68-1.28l6.26-9.17c0.23-0.34,0.62-0.55,1.03-0.55h8.18
			c0.41,0,0.8,0.2,1.03,0.55l6.26,9.17c0.37,0.54-0.02,1.28-0.68,1.28H327l-5-7L317,149z"/>
		<g>
			<path class="st2" d="M311.43,159l7.41,11.11c0.37,0.56,1,0.89,1.66,0.89h28.12v35h-29.19h-16v-35L311.43,159z"/>
			<polygon class="st8" points="303.43,175 313.43,161 311.43,158 303.43,171 			"/>
			
				<rect x="321.43" y="171" transform="matrix(-1 2.147825e-11 -2.147825e-11 -1 670.0431 377)" class="st8" width="27.19" height="35"/>
			<path class="st13" d="M350.5,171h-30.02c-0.67,0-1.29-0.33-1.66-0.89l-6.61-9.92c-0.38-0.57-1.21-0.57-1.59,0L303.41,171h-1.75
				c-0.53,0-0.84-0.59-0.54-1.03l9.87-14.36c0.26-0.38,0.7-0.61,1.17-0.61H341c0.37,0,0.71,0.19,0.91,0.5l9.11,14.57
				C351.27,170.48,350.98,171,350.5,171z"/>
			<path class="st8" d="M311.72,179h1.37c0.45,0,0.81-0.36,0.81-0.81v-2.69c0-0.83-0.67-1.5-1.5-1.5l0,0c-0.83,0-1.5,0.67-1.5,1.5
				v2.69C310.91,178.64,311.27,179,311.72,179z"/>
			<path class="st12" d="M382.61,186.47c-3.92-2.01-8.37-1.66-11.81,0.47c-1.35,0.83-3.05,0.52-4.03-0.73
				c-0.99-1.26-2.29-2.3-3.85-3.01c-3.96-1.79-8.44-0.88-11.4,1.95c-0.83,0.8-2.13,0.95-3.01,0.21c-0.92-0.77-2.02-1.37-3.28-1.72
				c-3.72-1.03-7.8,0.62-9.76,3.95c-2.66,4.53-0.77,10.23,3.89,12.34c3.64,1.65,7.8,0.57,10.24-2.35c1.04,1.9,2.67,3.5,4.79,4.46
				c3.85,1.74,8.2,0.93,11.15-1.71c0.92,3.31,3.24,6.21,6.62,7.74c6.18,2.8,13.49-0.08,16.07-6.43
				C390.54,195.97,388.05,189.27,382.61,186.47z"/>
		</g>
		<g>
			<path class="st8" d="M257,172l-7.41,11.11c-0.37,0.56-1,0.89-1.66,0.89H234v35h15h16v-35L257,172z"/>
			<rect x="232" y="184" class="st2" width="15" height="35"/>
			<path class="st14" d="M232.09,184h15.84c0.67,0,1.29-0.33,1.66-0.89l6.61-9.92c0.38-0.57,1.21-0.57,1.59,0L265,184h1.75
				c0.53,0,0.84-0.59,0.54-1.03l-9.87-14.36c-0.26-0.38-0.7-0.61-1.17-0.61h-14.66c-0.37,0-0.71,0.19-0.91,0.5l-9.11,14.57
				C231.33,183.48,231.62,184,232.09,184z"/>
			<path class="st11" d="M256.69,192h-1.37c-0.45,0-0.81-0.36-0.81-0.81v-2.69c0-0.83,0.67-1.5,1.5-1.5l0,0c0.83,0,1.5,0.67,1.5,1.5
				v2.69C257.5,191.64,257.14,192,256.69,192z"/>
			<rect x="234" y="184" class="st8" width="15" height="3"/>
		</g>
		<g>
			<rect x="265" y="190" class="st2" width="107" height="30"/>
			<path class="st7" d="M276.5,226L276.5,226c-2.49,0-4.5-2.01-4.5-4.5v-21c0-2.49,2.01-4.5,4.5-4.5l0,0c2.49,0,4.5,2.01,4.5,4.5v21
				C281,223.99,278.99,226,276.5,226z"/>
			<path class="st7" d="M291.5,226L291.5,226c-2.49,0-4.5-2.01-4.5-4.5v-21c0-2.49,2.01-4.5,4.5-4.5l0,0c2.49,0,4.5,2.01,4.5,4.5v21
				C296,223.99,293.99,226,291.5,226z"/>
			<path class="st7" d="M306.5,226L306.5,226c-2.49,0-4.5-2.01-4.5-4.5v-21c0-2.49,2.01-4.5,4.5-4.5l0,0c2.49,0,4.5,2.01,4.5,4.5v21
				C311,223.99,308.99,226,306.5,226z"/>
			<path class="st7" d="M321.5,226L321.5,226c-2.49,0-4.5-2.01-4.5-4.5v-21c0-2.49,2.01-4.5,4.5-4.5l0,0c2.49,0,4.5,2.01,4.5,4.5v21
				C326,223.99,323.99,226,321.5,226z"/>
			<path class="st8" d="M336.5,226L336.5,226c-2.49,0-4.5-2.01-4.5-4.5v-21c0-2.49,2.01-4.5,4.5-4.5l0,0c2.49,0,4.5,2.01,4.5,4.5v21
				C341,223.99,338.99,226,336.5,226z"/>
		</g>
		<g>
			<rect x="111" y="202" class="st2" width="107" height="30"/>
			<path class="st7" d="M152.5,236L152.5,236c-1.93,0-3.5-1.57-3.5-3.5v-23c0-1.93,1.57-3.5,3.5-3.5l0,0c1.93,0,3.5,1.57,3.5,3.5v23
				C156,234.43,154.43,236,152.5,236z"/>
			<path class="st7" d="M164.5,236L164.5,236c-1.93,0-3.5-1.57-3.5-3.5v-23c0-1.93,1.57-3.5,3.5-3.5l0,0c1.93,0,3.5,1.57,3.5,3.5v23
				C168,234.43,166.43,236,164.5,236z"/>
			<path class="st7" d="M176.5,236L176.5,236c-1.93,0-3.5-1.57-3.5-3.5v-23c0-1.93,1.57-3.5,3.5-3.5l0,0c1.93,0,3.5,1.57,3.5,3.5v23
				C180,234.43,178.43,236,176.5,236z"/>
			<path class="st7" d="M189.5,236L189.5,236c-1.93,0-3.5-1.57-3.5-3.5v-23c0-1.93,1.57-3.5,3.5-3.5l0,0c1.93,0,3.5,1.57,3.5,3.5v23
				C193,234.43,191.43,236,189.5,236z"/>
		</g>
		<rect x="142.5" y="214" class="st15" width="59" height="8.5"/>
		<rect x="142" y="217" class="st16" width="59" height="9.5"/>
		<path class="st13" d="M216.91,183.92c2.99,0.02,5.56,1.62,6.96,3.98c0.55,0.92,1.67,1.27,2.65,0.83c0.99-0.45,2.1-0.67,3.26-0.6
			c2.94,0.16,5.36,2.12,6.25,4.74c0.25,0.74,0.98,1.24,1.75,1.07c0.79-0.18,1.64-0.19,2.52-0.01c2.56,0.54,4.5,2.81,4.64,5.43
			c0.19,3.56-2.74,6.4-6.21,6.21c-2.7-0.15-4.88-2.1-5.43-4.62c-1.22,0.82-2.7,1.27-4.28,1.18c-2.86-0.16-5.23-2.01-6.18-4.53
			c-1.59,1.71-3.9,2.73-6.41,2.59c-4.6-0.25-8.1-4.27-7.66-8.91C209.16,187.15,212.76,183.9,216.91,183.92z"/>
		<g>
			<rect x="188" y="165" class="st2" width="26" height="37"/>
			<path class="st13" d="M228.5,161h-41c-0.55,0-1,0.45-1,1v2c0,0.55,0.45,1,1,1h41c0.55,0,1-0.45,1-1v-2
				C229.5,161.45,229.05,161,228.5,161z"/>
			<path class="st8" d="M188,165v3h23c1.66,0,3,1.34,3,3v31h14v-37H188z"/>
			<path class="st8" d="M208.47,178h-14.94c-0.57,0-1.03-0.46-1.03-1.03v-2.94c0-0.57,0.46-1.03,1.03-1.03h14.94
				c0.57,0,1.03,0.46,1.03,1.03v2.94C209.5,177.54,209.04,178,208.47,178z"/>
			<path class="st8" d="M208.47,188h-14.94c-0.57,0-1.03-0.46-1.03-1.03v-2.94c0-0.57,0.46-1.03,1.03-1.03h14.94
				c0.57,0,1.03,0.46,1.03,1.03v2.94C209.5,187.54,209.04,188,208.47,188z"/>
			<path class="st8" d="M208.47,198h-14.94c-0.57,0-1.03-0.46-1.03-1.03v-2.94c0-0.57,0.46-1.03,1.03-1.03h14.94
				c0.57,0,1.03,0.46,1.03,1.03v2.94C209.5,197.54,209.04,198,208.47,198z"/>
		</g>
		<path class="st2" d="M151,159h-14c-0.55,0-1,0.45-1,1v42h15V159z"/>
		<path class="st8" d="M161,159h-10v43h11v-42C162,159.45,161.55,159,161,159z"/>
		<path class="st8" d="M163.2,181H134.8c-0.44,0-0.8-0.36-0.8-0.8v-1.39c0-0.44,0.36-0.8,0.8-0.8h28.39c0.44,0,0.8,0.36,0.8,0.8
			v1.39C164,180.64,163.64,181,163.2,181z"/>
		<path class="st8" d="M146.05,175h-5.1c-0.52,0-0.95-0.43-0.95-0.95v-5.55c0-1.93,1.57-3.5,3.5-3.5l0,0c1.93,0,3.5,1.57,3.5,3.5
			v5.55C147,174.57,146.57,175,146.05,175z"/>
		<path class="st11" d="M158.05,175h-3.1c-0.52,0-0.95-0.43-0.95-0.95v-6.55c0-1.38,1.12-2.5,2.5-2.5l0,0c1.38,0,2.5,1.12,2.5,2.5
			v6.55C159,174.57,158.57,175,158.05,175z"/>
		<path class="st13" d="M157.87,154h-17.74c-1.18,0-2.13,0.95-2.13,2.13V159h22v-2.87C160,154.95,159.05,154,157.87,154z"/>
		<polygon class="st8" points="181,177 173,189 158,189 158,202 173,202 189,202 189,189 		"/>
		<rect x="158" y="192" class="st2" width="13" height="12"/>
		<path class="st11" d="M181,197h-2c-0.28,0-0.5-0.22-0.5-0.5v-3c0-0.83,0.67-1.5,1.5-1.5l0,0c0.83,0,1.5,0.67,1.5,1.5v3
			C181.5,196.78,181.28,197,181,197z"/>
		<polygon class="st2" points="322,155 327,164 327,149 322,141.5 317,149 317,155 		"/>
		<rect x="327" y="149" class="st8" width="10" height="15"/>
		<circle class="st8" cx="322" cy="151" r="1.5"/>
		<g>
			<rect x="196.5" y="157.5" class="st13" width="2" height="3.5"/>
			<rect x="205" y="157.5" class="st13" width="2" height="3.5"/>
			<path class="st2" d="M193.35,156.95l-2.11-8.02c-0.12-0.47,0.23-0.93,0.72-0.93h15.97c0.34,0,0.63,0.23,0.72,0.55l2.11,8.02
				c0.12,0.47-0.23,0.93-0.72,0.93h-15.97C193.73,157.5,193.44,157.27,193.35,156.95z"/>
		</g>
		<path class="st14" d="M156.1,189h15.84c0.67,0,1.29-0.33,1.66-0.89l6.61-9.92c0.38-0.57,1.21-0.57,1.59,0L189,189h1.75
			c0.53,0,0.84-0.59,0.54-1.03l-9.87-14.36c-0.26-0.38-0.7-0.61-1.17-0.61H165.6c-0.37,0-0.71,0.19-0.91,0.5l-9.11,14.57
			C155.33,188.48,155.62,189,156.1,189z"/>
		<g>
			<path class="st4" d="M233.58,117h-4.08l0.66-6.95c0.09-0.69,0.68-1.22,1.38-1.22l0,0c0.7,0,1.29,0.52,1.38,1.22L233.58,117z"/>
			<g>
				<polygon class="st17" points="233.78,99.13 233.85,99.24 233.88,99.11 				"/>
				<path class="st2" d="M227.76,94.19C227.76,94.2,227.76,94.19,227.76,94.19l2.88,1.72l0.03,0.01l1.68,0l1.38,0.31
					c0.31,0.07,0.6,0.19,0.86,0.35c0.49,0.3,0.85,0.78,1.08,1.31l2.64,5.99l-1.78-0.23l-0.35-0.26c-0.59-0.44-1.39-0.33-1.85,0.2
					c0.02,0.13,0.04,0.25,0.07,0.38c0.17,0.76,0.28,1.53,0.28,2.31v3.46c0,1.28-1.04,2.32-2.32,2.32h-2.85
					c-0.65,0-1.17-0.52-1.17-1.17v-6.03c0-0.84,0.14-1.68,0.4-2.48l0.17-0.52c0,0,0,0,0-0.01l0-1.68c0-0.72-0.56-1.36-1.28-1.37
					c0,0-0.01,0-0.01,0l-1.08,0c-0.46,0-0.73-0.51-0.48-0.9L227.76,94.19z"/>
				<path class="st4" d="M236.1,98.85c-1.16,0.63-1.86,1.87-1.82,3.19l0.05,1.55c0.46-0.53,1.26-0.64,1.85-0.2l0.35,0.26l1.78,0.23
					L236.1,98.85z"/>
				<g>
					<path class="st2" d="M230.74,94.33h0.98l-7.64-8.81c-0.51-0.59-1.45-0.53-1.88,0.12c-0.33,0.5-0.24,1.17,0.22,1.56
						L230.74,94.33z"/>
					<path class="st4" d="M228.34,109.17v1.73c0,0.64,0.52,1.15,1.15,1.15h2.88c1.27,0,2.31-1.03,2.31-2.31v-2.84
						c0-0.01,0-0.02,0-0.03c-0.02-1.28-1.62-1.88-2.58-1.04L228.34,109.17z"/>
					<path class="st2" d="M231.86,96.49h-0.14c-0.76,0-1.37-0.61-1.37-1.37v-1.56c0-0.61,0.49-1.1,1.1-1.1h0.69
						c0.61,0,1.1,0.49,1.1,1.1v1.56C233.24,95.88,232.62,96.49,231.86,96.49z"/>
				</g>
				<path class="st4" d="M238.47,104.9l-0.16-1.02l-1.78-0.23l0.24,1.53c0.07,0.45,0.49,0.76,0.94,0.72c0.02,0,0.03,0,0.05,0
					C238.22,105.81,238.54,105.37,238.47,104.9z"/>
				<path class="st2" d="M227.76,94.19L227.76,94.19l-0.87,1.83l-0.83,1.88c-0.26,0.38,0.02,0.9,0.48,0.9l1.08,0l0,0
					c0.71,0,1.29,0.58,1.29,1.29l0,1.76c0,0,0,0,0,0.01l0.17-0.42c0.96-2.33,0.55-5.01-1.07-6.95L227.76,94.19z"/>
				<path class="st2" d="M227.76,94.19l-0.53-2.94c0-0.01,0-0.01,0.01-0.02c0.3-0.13,0.52-0.44,0.52-0.79v-0.29
					c0-0.15-0.04-0.28-0.1-0.4c-0.15-0.29-0.47-0.49-0.83-0.46c-0.47,0.03-0.8,0.47-0.8,0.94v4.01c0,0.69,0.31,1.35,0.85,1.78
					L227.76,94.19z"/>
			</g>
		</g>
		<path class="st9" d="M277.33,186h-0.66c-0.37,0-0.67-0.3-0.67-0.67v-0.66c0-0.37,0.3-0.67,0.67-0.67h0.66
			c0.37,0,0.67,0.3,0.67,0.67v0.66C278,185.7,277.7,186,277.33,186z"/>
		<path class="st13" d="M64.2,194.09c0.78-5.33,1.87-11.09,3.4-17.19c0.75-2.99,1.55-5.86,2.39-8.6c0.33-1.08,1.87-1.07,2.18,0.01
			c0.79,2.73,1.55,5.6,2.25,8.59c1.43,6.12,2.41,11.88,3.07,17.19H64.2z"/>
		<path class="st13" d="M299.04,209.1c-2.85-2.03-6.38-2.27-9.33-0.99c-1.16,0.5-2.46,0.06-3.08-1.04c-0.63-1.1-1.53-2.07-2.68-2.81
			c-2.9-1.86-6.53-1.66-9.18,0.22c-0.75,0.53-1.78,0.5-2.39-0.18c-0.63-0.71-1.43-1.31-2.38-1.73c-2.81-1.24-6.2-0.41-8.12,1.98
			c-2.62,3.25-1.78,7.95,1.63,10.15c2.67,1.71,6.06,1.35,8.32-0.66c0.6,1.61,1.69,3.06,3.25,4.06c2.82,1.81,6.33,1.67,8.96-0.06
			c0.34,2.71,1.83,5.26,4.31,6.85c4.54,2.91,10.61,1.49,13.37-3.2C304.18,217.48,303,211.93,299.04,209.1z"/>
		<path class="st8" d="M219.76,143.08l1.48,3.34c0.08,0.19,0.15,0.38,0.19,0.58H234v-4.5h-14.43
			C219.61,142.7,219.68,142.89,219.76,143.08z"/>
	</g>
</g>
<g id="_x39__00000049217028608276070180000013554017633487154818_">
</g>
<g id="_x31_0_00000147915158777594467630000018299806147496965556_">
</g>
<g id="_x31_1_00000031209085476423013220000010579698211204677507_">
</g>
<g id="_x31_2">
</g>
<g id="Full_Illustration">
</g>
<g id="Cropping_Guide">
</g>
</svg>
